<?xml version="1.0" encoding="UTF-8" standalone="no"?>
<!DOCTYPE svg PUBLIC "-//W3C//DTD SVG 1.1//EN" "http://www.w3.org/Graphics/SVG/1.1/DTD/svg11.dtd">
<svg xmlns="http://www.w3.org/2000/svg" xmlns:xlink="http://www.w3.org/1999/xlink" version="1.1">
<metadata>
Created by FontForge 20170812 at Sat May 30 06:31:07 2020
 By www-data
Copyright (c) 2019 by Deni Anggara. All rights reserved.
</metadata>
<defs>
<font id="Epillox-Light" horiz-adv-x="1046">
  <font-face font-family="Epillox-Light" font-weight="400" font-stretch="normal" units-per-em="1000" panose-1="0 0 4 0 0 0 0 0 0 0" ascent="779" descent="-221" x-height="500" cap-height="700" bbox="-585 -301 1799 1227" underline-thickness="74" underline-position="-266" unicode-range="U+0020-1F9A0"/>
<missing-glyph horiz-adv-x="821" d="M40 -202v902h741v-902h-741zM166 -85h489v668h-489v-668z"/>
    <glyph glyph-name="A_j.liga" unicode="Aj" horiz-adv-x="1177" d="M1058 579q-37 0 -61.5 23t-24.5 60t24.5 60t61.5 23t62 -23t25 -60q0 -36 -25 -59.5t-62 -23.5zM932 -210q-76 0 -121 45t-89 134l-89 181h-446l-74 -150h-104l343 702h117l341 -701q34 -71 58 -97.5t64 -26.5t61.5 25.5t21.5 75.5v445h-167l1 77h253v-533 q0 -84 -46 -130.5t-124 -46.5zM224 224h373l-186 380z"/>
    <glyph glyph-name="F_F.liga" unicode="FF" horiz-adv-x="1068" d="M592 621v-237h409v-77h-409v-307h-93v307h-316v-307h-93v700h919v-79h-417zM499 384v237h-316v-237h316z"/>
    <glyph glyph-name="F_i.liga" unicode="Fi" horiz-adv-x="820" d="M745 700v-76h-562v-244h332v-79h-332v-301h-93v700h655zM658 0v490h87v-490h-87z"/>
    <glyph glyph-name="N_N.liga" unicode="NN" horiz-adv-x="1499" d="M90 0v700h116l498 -551v551h115l498 -551v551h92v-700h-95l-519 574v-574h-95l-518 574v-574h-92z"/>
    <glyph glyph-name="S_S.liga" unicode="SS" horiz-adv-x="1184" d="M297 -9q-92 0 -161 43t-97 117l91 29q17 -54 63 -84t106 -30q69 0 114.5 34t45.5 92q0 44 -27.5 73.5t-80.5 39.5l-114 21q-88 17 -134 64.5t-46 117.5q0 89 69 145.5t179 56.5q88 0 153.5 -42t91.5 -115l-86 -29q-16 51 -60 81t-102 30q-66 0 -106.5 -32.5t-40.5 -83.5 q0 -46 32 -73t83 -37l122 -23q78 -16 121 -65t43 -120q0 -95 -73.5 -152.5t-185.5 -57.5zM889 -9q-92 0 -161 43t-97 117l91 29q17 -54 63 -84t106 -30q69 0 114.5 34t45.5 92q0 44 -27.5 73.5t-80.5 39.5l-114 21q-88 17 -134 64.5t-46 117.5q0 89 69 145.5t179 56.5 q88 0 153.5 -42t91.5 -115l-86 -29q-16 51 -60 81t-102 30q-66 0 -106.5 -32.5t-40.5 -83.5q0 -46 32 -73t83 -37l122 -23q78 -16 121 -65t43 -120q0 -95 -73.5 -152.5t-185.5 -57.5z"/>
    <glyph glyph-name="f_f" unicode="ff" horiz-adv-x="824" d="M746 724q-57 0 -88.5 -27t-31.5 -95v-102h170v-77h-170v-423h-87v423h-270v-423h-87v423h-152v77h152v116q0 98 53 145t135 47q47 0 74 -11v-82q-24 9 -55 9q-57 0 -88.5 -27t-31.5 -95v-102h270v116q0 98 53 145t135 47q47 0 74 -11v-82q-24 9 -55 9z"/>
    <glyph glyph-name="f_f_i" unicode="ffi" horiz-adv-x="1071" d="M996 500v-500h-87v423h-283v-423h-87v423h-270v-423h-87v423h-152v77h152v116q0 98 53 145t135 47q47 0 74 -11v-82q-24 9 -55 9q-57 0 -88.5 -27t-31.5 -95v-102h270v116q0 98 53 145t135 47q47 0 74 -11v-82q-24 9 -55 9q-57 0 -88.5 -27t-31.5 -95v-102h370zM952 745 q37 0 62 -23t25 -60q0 -36 -25 -59.5t-62 -23.5t-61.5 23t-24.5 60t24.5 60t61.5 23z"/>
    <glyph glyph-name="f_f_l" unicode="ffl" horiz-adv-x="1126" d="M30 423v77h152v116q0 98 53 145t135 47q47 0 74 -11v-82q-24 9 -55 9q-57 0 -88.5 -27t-31.5 -95v-102h273v116q0 96 54 140t134 44h321v-800h-88v723h-214q-57 0 -88.5 -27t-31.5 -95v-101h170v-77h-170v-423h-87v423h-273v-423h-87v423h-152z"/>
    <glyph glyph-name="f_t.liga" unicode="ft" horiz-adv-x="848" d="M818 423h-164v-423h-88v423h-297v-423h-87v423h-152v77h152v116q0 98 53 145t135 47q47 0 74 -11v-82q-24 9 -55 9q-57 0 -88.5 -27t-31.5 -95v-102h297v155l88 55v-210h163z"/>
    <glyph glyph-name="fi.liga" unicode="fi" horiz-adv-x="724" d="M649 500v-500h-87v423h-293v-423h-87v423h-152v77h152v116q0 98 53 145t135 47q47 0 74 -11v-82q-24 9 -55 9q-57 0 -88.5 -27t-31.5 -95v-102h380zM605 745q37 0 62 -23t25 -60q0 -36 -25 -59.5t-62 -23.5t-61.5 23t-24.5 60t24.5 60t61.5 23z"/>
    <glyph glyph-name="fl.liga" unicode="fl" horiz-adv-x="706" d="M30 423v77h152v116q0 96 54 140t134 44h261v-800h-88v723h-154q-57 0 -88.5 -27t-31.5 -95v-101h170v-77h-170v-423h-87v423h-152z"/>
    <glyph glyph-name="g_g.liga" unicode="gg" horiz-adv-x="1136" d="M10 -96q0 61 41 97.5t114 36.5h78v77q-82 13 -130 66t-48 125q0 87 61.5 145.5t162.5 58.5q69 0 120 -28l26 140h110l-93 -171q61 -58 61 -145q0 -76 -52.5 -129.5t-140.5 -62.5v-76h471v77q-82 13 -130 66t-48 125q0 87 61.5 145.5t162.5 58.5q69 0 120 -28l26 140h110 l-93 -171q61 -58 61 -145q0 -76 -52.5 -129.5t-140.5 -62.5v-76h103q71 0 113 -35t42 -99q0 -61 -41 -97t-114 -36h-806q-71 0 -113 35t-42 98zM146 306q0 -56 40 -93t103 -37t103 36.5t40 93.5q0 59 -39.5 97t-103.5 38q-63 0 -103 -38t-40 -97zM694 306q0 -56 40 -93 t103 -37t103 36.5t40 93.5q0 59 -39.5 97t-103.5 38q-63 0 -103 -38t-40 -97zM101 -95q0 -28 19.5 -44t55.5 -16h785q35 0 55 16t20 44q0 29 -19.5 45t-55.5 16h-785q-35 0 -55 -16t-20 -45z"/>
    <glyph glyph-name="g_i.liga" unicode="gi" horiz-adv-x="825" d="M706 745q37 0 62 -23t25 -60q0 -36 -25 -59.5t-62 -23.5t-61.5 23t-24.5 60t24.5 60t61.5 23zM423 38q71 0 113 -35t42 -99q0 -61 -41 -97t-114 -36h-258q-71 0 -113 35t-42 98q0 61 41 97.5t114 36.5h78v77q-82 13 -130 66t-48 125q0 87 61.5 145.5t162.5 58.5 q69 0 120 -28l26 140h110l-93 -171q61 -58 61 -145q0 -76 -52.5 -129.5t-140.5 -62.5v-76h103zM663 0v500h87v-500h-87zM146 306q0 -56 40 -93t103 -37t103 36.5t40 93.5q0 59 -39.5 97t-103.5 38q-63 0 -103 -38t-40 -97zM413 -155q35 0 55 16t20 44q0 29 -19.5 45 t-55.5 16h-237q-35 0 -55 -16t-20 -45q0 -28 19.5 -44t55.5 -16h237z"/>
    <glyph glyph-name="g_j.liga" unicode="gj" horiz-adv-x="852" d="M733 800q37 0 62 -23t25 -60t-25 -60t-62 -23t-61.5 23t-24.5 60t24.5 60t61.5 23zM423 38q71 0 113 -35t42 -99q0 -61 -41 -97t-114 -36h-258q-71 0 -113 35t-42 98q0 61 41 97.5t114 36.5h78v77q-82 13 -130 66t-48 125q0 87 61.5 145.5t162.5 58.5q69 0 120 -28 l26 140h110l-93 -171q61 -58 61 -145q0 -76 -52.5 -129.5t-140.5 -62.5v-76h103zM690 -200v700h87v-700h-87zM146 306q0 -56 40 -93t103 -37t103 36.5t40 93.5q0 59 -39.5 97t-103.5 38q-63 0 -103 -38t-40 -97zM413 -155q35 0 55 16t20 44q0 29 -19.5 45t-55.5 16h-237 q-35 0 -55 -16t-20 -45q0 -28 19.5 -44t55.5 -16h237z"/>
    <glyph glyph-name="i_i.liga" unicode="ii" horiz-adv-x="474" d="M32 659q0 37 28.5 60t73.5 23q35 0 63.5 -15.5t39.5 -39.5q11 24 39.5 39.5t63.5 15.5q45 0 73.5 -23t28.5 -60t-28.5 -60t-73.5 -23q-35 0 -63.5 15.5t-39.5 39.5q-11 -24 -39.5 -39.5t-63.5 -15.5q-45 0 -73.5 23t-28.5 60zM75 0v500h88v-500h-88zM312 0v500h87v-500 h-87z"/>
    <glyph glyph-name="ij.liga" unicode="ij" horiz-adv-x="520" d="M32 662q0 36 24.5 59.5t62.5 23.5q37 0 61.5 -23.5t24.5 -59.5t-24.5 -59.5t-61.5 -23.5q-38 0 -62.5 23.5t-24.5 59.5zM315 662q0 36 24.5 59.5t62.5 23.5q37 0 61.5 -23.5t24.5 -59.5t-24.5 -59.5t-61.5 -23.5q-38 0 -62.5 23.5t-24.5 59.5zM75 -29v529h87v-532 q0 -47 26 -73.5t72 -26.5t72 26t26 74v532h88v-529q0 -85 -50.5 -133t-135.5 -48q-88 0 -136.5 49t-48.5 132z"/>
    <glyph glyph-name="i_t_i.liga" unicode="iti" horiz-adv-x="849" d="M32 659q0 37 24.5 60t61.5 23t62 -23t25 -60q0 -36 -25 -59.5t-62 -23.5t-61.5 23t-24.5 60zM644 659q0 37 25 60t62 23t61.5 -23t24.5 -60q0 -36 -25 -59.5t-61 -23.5q-37 0 -62 23t-25 60zM75 0v500h304v155l88 55v-210h308v-500h-88v423h-220v-423h-88v423h-217v-423 h-87z"/>
    <glyph glyph-name="j_j.liga" unicode="jj" horiz-adv-x="500" d="M32 662q0 37 24.5 60t61.5 23t62 -23t25 -60q0 -36 -25 -59.5t-62 -23.5t-61.5 23t-24.5 60zM295 662q0 37 24.5 60t61.5 23t62 -23t25 -60q0 -36 -25 -59.5t-62 -23.5t-61.5 23t-24.5 60zM-173 -131l66 37q16 -47 85 -47q46 0 71.5 25.5t25.5 71.5v544h87v-546 q0 -26 -6 -49q17 -46 85 -46q47 0 72 25.5t25 71.5v544h87v-546q0 -78 -47 -123t-132 -45q-88 0 -131 45q-48 -45 -132 -45q-59 0 -100 21.5t-56 61.5z"/>
    <glyph glyph-name="l_i.liga" unicode="li" horiz-adv-x="475" d="M163 800v-800h-88v745zM356 579q-37 0 -61.5 23t-24.5 60t24.5 60t61.5 23t62 -23t25 -60q0 -36 -25 -59.5t-62 -23.5zM400 500v-500h-87v500h87z"/>
    <glyph glyph-name="l_l.liga" unicode="ll" horiz-adv-x="476" d="M163 800v-800h-88v745zM401 800v-800h-88v745z"/>
    <glyph glyph-name="l_l_i.liga" unicode="lli" horiz-adv-x="713" d="M163 800v-800h-88v745zM401 800v-800h-88v745zM594 579q-37 0 -61.5 23t-24.5 60t24.5 60t61.5 23t62 -23t25 -60q0 -36 -25 -59.5t-62 -23.5zM638 500v-500h-87v500h87z"/>
    <glyph glyph-name="m_m.liga" unicode="mm" horiz-adv-x="1565" d="M75 0v500h1415v-500h-88v423h-244v-423h-87v423h-245v-423h-87v423h-244v-423h-88v423h-244v-423h-88z"/>
    <glyph glyph-name="q_j.liga" unicode="qj" horiz-adv-x="931" d="M813 745q37 0 61.5 -23.5t24.5 -59.5t-24.5 -59.5t-61.5 -23.5q-38 0 -62.5 23t-24.5 60q0 36 25 59.5t62 23.5zM769 -32v532h88v-529q0 -85 -50.5 -133t-135.5 -48q-88 0 -136.5 49t-48.5 132v91q-67 -72 -183 -72q-114 0 -186 72t-72 188q0 117 72 188.5t186 71.5 q126 0 193 -84v74h77v-532q0 -47 26 -73.5t72 -26.5t72 26t26 74zM318 70q57 0 103 28t65 74v156q-20 47 -66 75t-103 28q-80 0 -130.5 -50t-50.5 -131q0 -80 51 -130t131 -50z"/>
    <glyph glyph-name="s_s.liga" unicode="ss" horiz-adv-x="930" d="M228 -10q-69 0 -120.5 31t-69.5 84l81 34q9 -37 39.5 -58t71.5 -21q49 0 78.5 21.5t29.5 60.5q0 56 -78 72l-78 16q-131 26 -131 133q0 67 52.5 108.5t136.5 41.5q66 0 115 -30t66 -81l-72 -36q-8 35 -38.5 56.5t-70.5 21.5q-47 0 -74 -20.5t-27 -54.5q0 -52 82 -70 l76 -16q129 -26 129 -135q0 -71 -54 -114.5t-144 -43.5zM693 -10q-69 0 -120.5 31t-69.5 84l81 34q9 -37 39.5 -58t71.5 -21q49 0 78.5 21.5t29.5 60.5q0 56 -78 72l-78 16q-131 26 -131 133q0 67 52.5 108.5t136.5 41.5q66 0 115 -30t66 -81l-72 -36q-8 35 -38.5 56.5 t-70.5 21.5q-47 0 -74 -20.5t-27 -54.5q0 -52 82 -70l76 -16q129 -26 129 -135q0 -71 -54 -114.5t-144 -43.5z"/>
    <glyph glyph-name="t_i.liga" unicode="ti" horiz-adv-x="663" d="M458 714q0 37 25 60t62 23t61.5 -23t24.5 -60q0 -36 -25 -59.5t-61 -23.5q-37 0 -62 23t-25 60zM30 423v77h158v155l88 55v-210h313v-500h-88v423h-225v-423h-88v423h-158z"/>
    <glyph glyph-name="t_i_t.liga" unicode="tit" horiz-adv-x="1082" d="M453 659q0 37 25 60t62 23t61.5 -23t24.5 -60q0 -36 -25 -59.5t-61 -23.5q-37 0 -62 23t-25 60zM30 423v77h158v155l88 55v-210h525v155l87 55v-210h164v-77h-164v-423h-87v423h-217v-423h-88v423h-220v-423h-88v423h-158z"/>
    <glyph glyph-name="t_t.liga" unicode="tt" horiz-adv-x="738" d="M708 423h-164v-423h-88v423h-180v-423h-88v423h-158v77h158v155l88 55v-210h180v155l88 55v-210h163z"/>
    <glyph glyph-name=".notdef" horiz-adv-x="821" d="M40 -202v902h741v-902h-741zM166 -85h489v668h-489v-668z"/>
    <glyph glyph-name=".null" horiz-adv-x="0"/>
    <glyph glyph-name="uni000D" horiz-adv-x="333"/>
    <glyph glyph-name="space" unicode=" " horiz-adv-x="200"/>
    <glyph glyph-name="exclam" unicode="!" horiz-adv-x="263" d="M78 700h107l-20 -431h-67zM70 135q24 23 61 23t62 -23t25 -60t-25 -60q-25 -24 -62 -24t-61.5 23t-24.5 61q0 37 25 60z"/>
    <glyph glyph-name="quotedbl" unicode="&quot;" horiz-adv-x="601" d="M405 800h91v-362h-91v362zM105 800h91v-362h-91v362z"/>
    <glyph glyph-name="numbersign" unicode="#" horiz-adv-x="827" d="M45 454v63h212l26 183h71l-26 -183h219l26 183h71l-26 -183h164v-63h-173l-30 -207h203v-64h-212l-26 -183h-71l26 183h-219l-26 -183h-71l26 183h-164v64h173l30 207h-203zM289 247h219l30 207h-219z"/>
    <glyph glyph-name="dollar" unicode="$" horiz-adv-x="592" d="M39 152l91 29q22 -71 94 -100l63 237l-50 9q-88 17 -134 64.5t-46 117.5q0 89 69 145.5t179 56.5q44 0 85 -11l26 97h24l-28 -105q103 -40 138 -138l-86 -29q-20 59 -73 89l-58 -216l59 -11q78 -16 121 -65t43 -120q0 -95 -73.5 -152.5t-185.5 -57.5q-33 0 -71 7l-26 -95 h-24l27 101q-122 36 -164 147zM299 67q69 0 114.5 34t45.5 92q0 44 -27.5 73.5t-80.5 39.5l-41 8l-64 -240q24 -7 53 -7zM155 520q0 -46 32 -73t83 -37l40 -8l59 222q-30 12 -67 12q-66 0 -106.5 -32.5t-40.5 -83.5z"/>
    <glyph glyph-name="percent" unicode="%" horiz-adv-x="730" d="M50 0l308 387q-43 -26 -97 -26q-78 0 -130.5 50.5t-52.5 123.5t52.5 124t130.5 51t130.5 -51t52.5 -124q0 -22 -7 -50l171 215h72l-309 -387q45 26 98 26q78 0 130.5 -51t52.5 -124t-52.5 -123.5t-130.5 -50.5t-130.5 50.5t-52.5 123.5q0 25 8 51l-172 -215h-72zM356 164 q0 -45 33 -76.5t80 -31.5q48 0 80.5 31.5t32.5 76.5q0 46 -32.5 78t-80.5 32q-47 0 -80 -32t-33 -78zM182 459q32 -32 79 -32q48 0 80.5 31.5t32.5 76.5q0 46 -32.5 78t-80.5 32q-47 0 -79.5 -32t-32.5 -78q0 -45 33 -76z"/>
    <glyph glyph-name="ampersand" unicode="&amp;" horiz-adv-x="795" d="M63 192q0 66 37 114.5t100 65.5q-44 14 -71.5 55t-27.5 94q0 80 56.5 129.5t148.5 49.5h155v-78h-135q-62 0 -96.5 -30t-34.5 -82q0 -45 27.5 -73t75.5 -32h214v95h91v-95h147v-76h-147v-248h147v-81h-462q-107 0 -166 51.5t-59 140.5zM194 114q37 -33 103 -33h215v248 h-231q-60 -7 -92 -40t-32 -83q0 -59 37 -92z"/>
    <glyph glyph-name="quotesingle" unicode="'" horiz-adv-x="301" d="M196 438h-91v362h91v-362z"/>
    <glyph glyph-name="parenleft" unicode="(" horiz-adv-x="522" d="M175 565q100 123 273 166l21 -73q-148 -41 -229 -143.5t-81 -250.5q0 -147 81 -250.5t229 -143.5l-21 -73q-173 43 -273 166.5t-100 300.5t100 301z"/>
    <glyph glyph-name="parenright" unicode=")" horiz-adv-x="522" d="M282 14q81 102 81 250q0 147 -81 250.5t-229 143.5l21 73q173 -43 273 -166.5t100 -300.5t-100 -300.5t-273 -166.5l-21 73q148 41 229 144z"/>
    <glyph glyph-name="asterisk" unicode="*" horiz-adv-x="448" d="M45 430l106 77l-106 77l22 38l121 -54l15 132h42l14 -132l122 54l22 -38l-106 -77l106 -77l-22 -38l-122 54l-14 -132h-42l-15 132l-121 -54z"/>
    <glyph glyph-name="plus" unicode="+" horiz-adv-x="790" d="M90 365h263v265h85v-265h262v-80h-262v-265h-85v265h-263v80z"/>
    <glyph glyph-name="comma" unicode="," horiz-adv-x="297" d="M74 135q24 23 61 23t62 -23t25 -60q0 -27 -20 -63l-85 -157h-57l52 139q-28 7 -45.5 28.5t-17.5 52.5q0 37 25 60z"/>
    <glyph glyph-name="hyphen" unicode="-" horiz-adv-x="550" d="M90 328h370v-71h-370v71z"/>
    <glyph glyph-name="period" unicode="." horiz-adv-x="323" d="M75 75q0 37 24.5 60t61.5 23t62 -23t25 -60t-25 -60q-25 -24 -62 -24t-61.5 23t-24.5 61z"/>
    <glyph glyph-name="slash" unicode="/" horiz-adv-x="455" d="M323 700h87l-278 -700h-87z"/>
    <glyph glyph-name="zero" unicode="0" horiz-adv-x="896" d="M60 350q0 153 109 257q108 103 279 103t279.5 -103.5t108.5 -256.5q0 -154 -108.5 -257t-279.5 -103t-279.5 103.5t-108.5 256.5zM155 350q0 -105 64 -178l404 404q-75 50 -175 50q-128 0 -210.5 -79t-82.5 -197zM448 75q129 0 211 78t82 197q0 104 -64 177l-403 -403 q76 -49 174 -49z"/>
    <glyph glyph-name="one" unicode="1" horiz-adv-x="648" d="M286 85v488l-206 -176v103l237 200h61v-615h210v-85h-528v85h226z"/>
    <glyph glyph-name="two" unicode="2" horiz-adv-x="639" d="M60 79l249 195q-7 -1 -21 -1q-99 0 -162 59t-63 152q0 100 73 163t186 63q105 0 177.5 -59t72.5 -161q0 -40 -10.5 -73.5t-33.5 -61t-41.5 -44.5t-50.5 -42l-240 -184h383v-85h-519v79zM156 483q0 -66 45.5 -107.5t117.5 -41.5q69 0 114.5 42t45.5 109t-45 106.5 t-113 39.5q-71 0 -118 -40.5t-47 -107.5z"/>
    <glyph glyph-name="three" unicode="3" horiz-adv-x="619" d="M131 206q7 -63 52.5 -100t114.5 -37q71 0 114 38t43 97q0 52 -34.5 85.5t-97.5 33.5h-72v69h69q57 0 92 32t35 85q0 56 -38 89.5t-107 33.5q-59 0 -101 -33.5t-52 -88.5l-86 23q15 80 82.5 128.5t163.5 48.5q104 0 167 -53t63 -140q0 -57 -31 -100.5t-82 -57.5 q57 -13 89.5 -57t32.5 -108q0 -89 -72 -146.5t-178 -57.5q-107 0 -177 52.5t-83 144.5z"/>
    <glyph glyph-name="four" unicode="4" horiz-adv-x="709" d="M436 700h97v-405h123v-79h-123v-216h-92v216h-403v75zM441 295v291l-290 -291h290z"/>
    <glyph glyph-name="five" unicode="5" horiz-adv-x="654" d="M60 154l87 27q14 -50 62 -80.5t114 -30.5q79 0 127 44.5t48 115.5q0 69 -46.5 111t-120.5 42q-67 0 -115.5 -29.5t-64.5 -81.5l-84 11l60 417h430v-85h-354l-34 -221q29 29 78.5 45.5t107.5 16.5q101 0 168.5 -63t67.5 -163q0 -107 -74.5 -173.5t-188.5 -66.5 q-100 0 -172.5 45t-95.5 119z"/>
    <glyph glyph-name="six" unicode="6" horiz-adv-x="646" d="M86 321q20 52 65 135l132 244h106q-53 -100 -154 -262q41 22 103 22q108 0 178 -61.5t70 -164.5q0 -109 -75 -176.5t-191 -67.5q-110 0 -182.5 62.5t-72.5 163.5q0 53 21 105zM158 225q0 -70 44 -111t118 -41q78 0 125.5 44t47.5 117q0 68 -47.5 112t-120.5 44 q-77 0 -122 -45.5t-45 -119.5z"/>
    <glyph glyph-name="seven" unicode="7" horiz-adv-x="588" d="M45 616v84h498v-75l-307 -625h-110l317 616h-398z"/>
    <glyph glyph-name="eight" unicode="8" horiz-adv-x="658" d="M63 199q0 65 37 114t98 63q-50 17 -80.5 58.5t-30.5 93.5q0 82 66.5 132t175.5 50t175.5 -50t66.5 -132q0 -52 -30.5 -93.5t-80.5 -58.5q61 -14 98 -63t37 -114q0 -94 -73 -151q-73 -58 -193 -58t-193 57.5t-73 151.5zM157 205q0 -63 46 -99q45 -36 126 -36t126.5 36 t45.5 99q0 64 -45.5 100t-126.5 36t-126.5 -36t-45.5 -100zM219 434q41 -32 110 -32t110 31.5t41 86.5q0 54 -40 86t-111 32t-111 -32t-40 -86q0 -55 41 -86z"/>
    <glyph glyph-name="nine" unicode="9" horiz-adv-x="648" d="M64 466q0 109 75 176.5t191 67.5q110 0 182.5 -62.5t72.5 -163.5q0 -53 -20.5 -105t-65.5 -135l-132 -244h-106q53 100 154 262q-41 -22 -103 -22q-108 0 -178 61.5t-70 164.5zM157 466q0 -68 47.5 -112t120.5 -44q77 0 122 45.5t45 119.5q0 70 -44 111t-118 41 q-78 0 -125.5 -44t-47.5 -117z"/>
    <glyph glyph-name="colon" unicode=":" horiz-adv-x="305" d="M91 134q24 23 61 23t62 -23t25 -60t-25 -60q-25 -24 -62 -24t-61.5 23.5t-24.5 60.5t25 60zM91 517q24 23 61 23t62 -23t25 -60t-25 -60t-62 -23t-61.5 23t-24.5 60t25 60z"/>
    <glyph glyph-name="semicolon" unicode=";" horiz-adv-x="330" d="M78 -79l107 70h-9q-37 0 -62 23.5t-25 60.5t25 60t62 23t61.5 -23t24.5 -60q0 -50 -41 -73v-68l-143 -94v81zM89 457q0 37 24.5 60t61.5 23t62 -23t25 -60t-25 -60t-62 -23t-61.5 23t-24.5 60z"/>
    <glyph glyph-name="less" unicode="&lt;" horiz-adv-x="665" d="M530 579v-95l-342 -188l342 -189v-95l-440 239v89z"/>
    <glyph glyph-name="equal" unicode="=" horiz-adv-x="650" d="M590 505v-80h-500v80h500zM90 145v80h500v-80h-500z"/>
    <glyph glyph-name="greater" unicode="&gt;" horiz-adv-x="620" d="M530 340v-89l-440 -239v95l342 188l-342 189v95z"/>
    <glyph glyph-name="question" unicode="?" horiz-adv-x="540" d="M93 667q64 43 153 43q101 0 163.5 -51t62.5 -133q0 -72 -51.5 -122t-140.5 -68l-4 -67h-78l-5 107q89 7 139 44.5t50 96.5q0 53 -39 85t-104 32q-58 0 -100.5 -29t-52.5 -76l-71 24q14 70 78 114zM145 75q0 36 24.5 59.5t61.5 23.5q38 0 62.5 -23t24.5 -60t-24.5 -60.5 t-62.5 -23.5q-37 0 -61.5 23.5t-24.5 60.5z"/>
    <glyph glyph-name="at" unicode="@" horiz-adv-x="1366" d="M257 680q166 128 443 128q262 0 419 -110t157 -291q0 -116 -68 -190t-176 -74q-53 0 -96 21t-61 58q-15 -37 -49.5 -57.5t-77.5 -20.5t-78.5 19.5t-46.5 51.5q-43 -63 -128 -63q-72 0 -117 47t-45 122q0 76 46.5 123t118.5 47q83 0 114 -54v56h59v-210q0 -38 22.5 -58.5 t60.5 -20.5q40 0 62.5 25.5t22.5 68.5v141h-91v52h91v70l67 28v-98h107v-52h-107v-125q0 -51 34.5 -82.5t91.5 -31.5q81 0 129 57t48 150q0 155 -135 247.5t-375 92.5q-247 0 -394 -107t-147 -299q0 -183 145 -285t389 -102q128 0 246.5 27.5t190.5 72.5l17 -58 q-73 -47 -196.5 -75t-257.5 -28q-273 0 -437.5 123t-164.5 325q0 211 167 339zM428 240q30 -31 79 -31q76 0 102 64v97q-9 29 -36 47t-63 18q-50 0 -81 -31q-32 -31 -32 -82t31 -82z"/>
    <glyph glyph-name="A" unicode="A" horiz-adv-x="822" d="M9 0l343 702h117l344 -702h-105l-74 150h-447l-74 -150h-104zM598 224l-187 380l-187 -380h374z"/>
    <glyph glyph-name="B" unicode="B" horiz-adv-x="747" d="M90 700h391q91 0 146.5 -48t55.5 -130q0 -62 -32 -106t-88 -62q60 -18 92 -63t32 -108q0 -88 -56.5 -136t-155.5 -48h-385v701zM183 319v-241h279q59 0 94 32t35 88t-34.5 88.5t-94.5 32.5h-279zM458 386q61 0 95.5 31.5t34.5 87.5q0 55 -34 87t-96 32h-275v-238h275z "/>
    <glyph glyph-name="C" unicode="C" horiz-adv-x="866" d="M169 607q108 103 279 103q131 0 228.5 -64t136.5 -168l-91 -30q-30 81 -103.5 129t-170.5 48q-127 0 -209 -78.5t-82 -196.5t82 -196t209 -78q98 0 171.5 47.5t102.5 129.5l91 -30q-39 -105 -136 -169t-229 -64q-171 0 -279.5 103.5t-108.5 256.5t109 257z"/>
    <glyph glyph-name="D" unicode="D" horiz-adv-x="808" d="M411 700q160 0 248.5 -95t88.5 -256q0 -165 -91.5 -257t-245.5 -92h-321v700h321zM183 621v-542h218q118 0 184.5 72.5t66.5 198.5q0 128 -67 199.5t-184 71.5h-218z"/>
    <glyph glyph-name="E" unicode="E" horiz-adv-x="710" d="M646 700v-79h-463v-231h453v-76h-453v-235h468v-79h-561v700h556z"/>
    <glyph glyph-name="F" unicode="F" horiz-adv-x="659" d="M600 700v-79h-417v-237h409v-77h-409v-307h-93v700h510z"/>
    <glyph glyph-name="G" unicode="G" horiz-adv-x="879" d="M60 345q0 157 108 261t279 104q132 0 232 -64t134 -168l-91 -28q-28 81 -103 128t-173 47q-128 0 -208.5 -77.5t-80.5 -199.5q0 -123 80 -198.5t209 -75.5q121 0 196.5 63t79.5 167h-283v56h377q3 -16 3 -39q0 -149 -104.5 -240t-271.5 -91q-171 0 -277 99.5t-106 255.5z "/>
    <glyph glyph-name="H" unicode="H" horiz-adv-x="846" d="M183 700v-310h481v310h92v-700h-92v311h-481v-311h-93v700h93z"/>
    <glyph glyph-name="I" unicode="I" horiz-adv-x="617" d="M60 79h203v542h-203v79h497v-79h-202v-542h202v-79h-497v79z"/>
    <glyph glyph-name="J" unicode="J" horiz-adv-x="719" d="M161 383v-120q0 -84 52.5 -135t138.5 -51q89 0 140.5 50t51.5 136v358h-456v79h548v-437q0 -129 -77 -201t-207 -72q-128 0 -206 75t-78 198v90z"/>
    <glyph glyph-name="K" unicode="K" horiz-adv-x="775" d="M90 0v700h93v-295h268l178 295h118l-228 -323l241 -377h-109l-203 321h-265v-321h-93z"/>
    <glyph glyph-name="L" unicode="L" horiz-adv-x="652" d="M90 0v700h93v-621h424v-79h-517z"/>
    <glyph glyph-name="M" unicode="M" horiz-adv-x="1047" d="M247 700l278 -591l276 591h156v-700h-93v633l-297 -633h-87l-297 633v-633h-93v700h157z"/>
    <glyph glyph-name="N" unicode="N" horiz-adv-x="885" d="M206 700l498 -551v551h91v-700h-95l-518 574v-574h-92v700h116z"/>
    <glyph glyph-name="O" unicode="O" horiz-adv-x="896" d="M60 350q0 153 108.5 256.5t279.5 103.5t279.5 -103.5t108.5 -256.5q0 -154 -108 -257q-109 -103 -280 -103t-279.5 103.5t-108.5 256.5zM157 350q0 -118 82 -196t209 -78q129 0 210 77.5t81 196.5q0 118 -82 196.5t-209 78.5t-209 -78.5t-82 -196.5zM359 350 q0 36 24.5 61t64.5 25t64.5 -25t24.5 -61q0 -37 -24.5 -61.5t-64.5 -24.5t-64 25q-25 24 -25 61z"/>
    <glyph glyph-name="P" unicode="P" horiz-adv-x="736" d="M90 0v700h364q110 0 177 -62t67 -163t-67 -163t-177 -62h-271v-250h-93zM183 322h254q74 0 119.5 41t45.5 109q0 67 -45 108t-120 41h-254v-299z"/>
    <glyph glyph-name="Q" unicode="Q" horiz-adv-x="896" d="M169 607q108 103 279 103t279.5 -104t108.5 -258q0 -138 -90 -236q43 -37 93 -37q31 0 55 11v-88q-30 -11 -68 -11q-83 0 -153 63q-98 -60 -224 -60q-171 0 -280 103.5t-109 256.5t109 257zM157 350q0 -74 34 -135t95 -97q-45 73 -45 141q0 72 46 113.5t116 41.5 q34 0 66 -11.5t54 -25.5t47.5 -42.5t39.5 -47t38.5 -54.5t35.5 -51q55 72 55 167q0 119 -82 197.5t-209 78.5t-209 -78.5t-82 -196.5zM310 150q22 -40 60 -65q38 -9 78 -9q92 0 164 43q-15 19 -41 57.5t-42.5 59.5t-40 45.5t-48.5 36t-52 11.5q-48 0 -74.5 -27t-26.5 -73 q0 -40 23 -79z"/>
    <glyph glyph-name="R" unicode="R" horiz-adv-x="788" d="M90 0v700h413q108 0 173.5 -54.5t65.5 -147.5q0 -92 -64 -147t-171 -55h-4l-151 1l401 -297h-140l-430 324v-324h-93zM497 364q69 0 109 33t40 96q0 59 -38 93.5t-111 34.5h-314v-257h314z"/>
    <glyph glyph-name="S" unicode="S" horiz-adv-x="592" d="M130 180q17 -54 63 -84t106 -30q69 0 114.5 34t45.5 92q0 44 -27.5 73.5t-80.5 39.5l-114 21q-88 17 -134 64.5t-46 117.5q0 89 69 145.5t179 56.5q88 0 153.5 -42t91.5 -115l-86 -29q-16 51 -60 81t-102 30q-66 0 -106.5 -32.5t-40.5 -83.5q0 -46 32 -73t83 -37l122 -23 q78 -16 121 -65t43 -120q0 -95 -73.5 -152.5t-185.5 -57.5q-92 0 -161 43t-97 117z"/>
    <glyph glyph-name="T" unicode="T" horiz-adv-x="706" d="M38 700h630v-79h-268v-621h-93v621h-269v79z"/>
    <glyph glyph-name="U" unicode="U" horiz-adv-x="763" d="M83 700h93v-427q0 -91 55.5 -145t150.5 -54t150.5 54t55.5 145v427h92v-437q0 -123 -82.5 -198t-216.5 -75t-216 75t-82 198v437z"/>
    <glyph glyph-name="V" unicode="V" horiz-adv-x="842" d="M23 700h109l289 -596l290 596h108l-345 -700h-105z"/>
    <glyph glyph-name="W" unicode="W" horiz-adv-x="1139" d="M33 700h105l162 -586l219 586h102l218 -586l162 586h105l-203 -700h-114l-219 562l-219 -562h-115z"/>
    <glyph glyph-name="X" unicode="X" horiz-adv-x="769" d="M32 0l294 349l-294 351h109l244 -290l244 290h108l-293 -348l293 -352h-109l-243 291l-245 -291h-108z"/>
    <glyph glyph-name="Y" unicode="Y" horiz-adv-x="794" d="M8 700h119l270 -292l270 292h119l-342 -363v-337h-93v337z"/>
    <glyph glyph-name="Z" unicode="Z" horiz-adv-x="716" d="M68 0v79l444 542h-434v79h550v-79l-443 -542h463v-79h-580z"/>
    <glyph glyph-name="bracketleft" unicode="[" horiz-adv-x="451" d="M398 720v-70h-223v-760h223v-70h-308v900h308z"/>
    <glyph glyph-name="backslash" unicode="\" horiz-adv-x="454" d="M131 700l278 -700h-86l-278 700h86z"/>
    <glyph glyph-name="bracketright" unicode="]" horiz-adv-x="451" d="M53 650v70h308v-900h-308v70h223v760h-223z"/>
    <glyph glyph-name="asciicircum" unicode="^" horiz-adv-x="647" d="M38 437l242 263h88l241 -263l-93 -3l-192 200l-192 -200z"/>
    <glyph glyph-name="underscore" unicode="_" horiz-adv-x="520" d="M75 0h370v-72h-370v72z"/>
    <glyph glyph-name="grave" unicode="`" horiz-adv-x="306" d="M30 737l246 -64v-80l-246 63v81z"/>
    <glyph glyph-name="a" unicode="a" horiz-adv-x="648" d="M45 250q0 117 72 188.5t186 71.5q126 0 193 -84v72h77v-498h-77v73q-67 -83 -193 -83q-114 0 -186 72t-72 188zM187 120q51 -50 131 -50q57 0 103 28t65 74v156q-20 47 -66 75t-103 28q-80 0 -130.5 -50t-50.5 -131q0 -80 51 -130z"/>
    <glyph glyph-name="b" unicode="b" horiz-adv-x="648" d="M163 800v-361q66 71 183 71q113 0 185 -71.5t72 -188.5q0 -116 -71.5 -188t-185.5 -72q-127 0 -193 82v-72h-78v745zM228 98q45 -28 103 -28q80 0 130.5 50t50.5 130q0 81 -50 131t-130 50q-58 0 -103.5 -28t-65.5 -75v-156q20 -47 65 -74z"/>
    <glyph glyph-name="c" unicode="c" horiz-adv-x="628" d="M124 435q78 75 201 75q97 0 167.5 -47.5t97.5 -125.5l-85 -28q-19 55 -67 87t-113 32q-82 0 -135.5 -50.5t-53.5 -127.5q0 -76 53.5 -127t135.5 -51q65 0 113 32.5t67 86.5l85 -28q-27 -78 -97.5 -125.5t-167.5 -47.5q-123 0 -201.5 75t-78.5 185t79 185z"/>
    <glyph glyph-name="d" unicode="d" horiz-adv-x="648" d="M45 250q0 117 72 188.5t186 71.5q117 0 183 -72v307l87 55v-800h-77v73q-67 -83 -193 -83q-114 0 -186 72t-72 188zM187 120q51 -50 131 -50q57 0 103 28t65 74v156q-20 47 -66 75t-103 28q-80 0 -130.5 -50t-50.5 -131q0 -80 51 -130z"/>
    <glyph glyph-name="e" unicode="e" horiz-adv-x="643" d="M45 250q0 110 78.5 185t201.5 75t201.5 -75t78.5 -185v-6h-469q2 -74 55.5 -123t133.5 -49q65 0 113 32.5t67 86.5l85 -28q-27 -78 -97.5 -125.5t-167.5 -47.5q-123 0 -201 75q-79 75 -79 185zM141 292h369q-14 61 -64.5 98.5t-120.5 37.5t-120 -37.5t-64 -98.5z"/>
    <glyph glyph-name="f" unicode="f" horiz-adv-x="467" d="M30 500h152v116q0 98 53 145t135 47q47 0 74 -11v-82q-24 9 -55 9q-57 0 -88.5 -27t-31.5 -95v-102h170v-77h-170v-423h-87v423h-152v77z"/>
    <glyph glyph-name="g" unicode="g" horiz-adv-x="588" d="M51 2q41 36 114 36h78v77q-82 13 -130 66t-48 125q0 87 61.5 145.5t162.5 58.5q69 0 120 -28l26 140h110l-93 -171q61 -58 61 -145q0 -76 -52.5 -129.5t-140.5 -62.5v-76h103q71 0 113 -35t42 -99q0 -61 -41 -97t-114 -36h-258q-71 0 -113 35t-42 98q0 61 41 98zM146 306 q0 -56 40 -93t103 -37t103 36.5t40 93.5q0 59 -39.5 97t-103.5 38q-63 0 -103 -38t-40 -97zM121 -139q19 -16 55 -16h237q35 0 55 16t20 44q0 29 -19.5 45t-55.5 16h-237q-35 0 -55 -16t-20 -45q0 -28 20 -44z"/>
    <glyph glyph-name="h" unicode="h" horiz-adv-x="598" d="M163 800v-300h360v-500h-87v423h-273v-423h-88v750z"/>
    <glyph glyph-name="i" unicode="i" horiz-adv-x="237" d="M75 500h87v-500h-87v500zM32 662q0 37 24.5 60t61.5 23t62 -23t25 -60q0 -36 -25 -59q-25 -24 -62 -24t-61.5 23t-24.5 60z"/>
    <glyph glyph-name="j" unicode="j" horiz-adv-x="237" d="M-107 -94q16 -47 85 -47q46 0 71.5 25.5t25.5 71.5v544h87v-546q0 -78 -47 -123t-132 -45q-59 0 -100 21.5t-56 61.5zM32 662q0 37 24.5 60t61.5 23t62 -23t25 -60q0 -36 -25 -59q-25 -24 -62 -24t-61.5 23t-24.5 60z"/>
    <glyph glyph-name="k" unicode="k" horiz-adv-x="583" d="M75 745l88 55v-500h186l117 200h111l-157 -220l161 -280h-104l-128 223h-186v-223h-88v745z"/>
    <glyph glyph-name="l" unicode="l" horiz-adv-x="238" d="M163 800v-800h-88v745z"/>
    <glyph glyph-name="m" unicode="m" horiz-adv-x="901" d="M826 500v-500h-87v423h-244v-423h-88v423h-244v-423h-88v500h751z"/>
    <glyph glyph-name="n" unicode="n" horiz-adv-x="598" d="M523 500v-500h-87v423h-273v-423h-88v500h448z"/>
    <glyph glyph-name="o" unicode="o" horiz-adv-x="650" d="M45 250q0 110 78.5 185t201.5 75t201.5 -75t78.5 -185t-78 -185q-79 -75 -202 -75t-201.5 75t-78.5 185zM186 120q55 -53 139 -53q85 0 140 52t55 131t-55 131t-140 52q-84 0 -139 -52t-55 -131q0 -78 55 -130zM249 250q0 31 21.5 52.5t54.5 21.5q34 0 55.5 -21.5 t21.5 -52.5t-21.5 -52t-55.5 -21q-33 0 -54.5 21t-21.5 52z"/>
    <glyph glyph-name="p" unicode="p" horiz-adv-x="648" d="M75 -200v700h78v-72q67 82 193 82q113 0 185 -71.5t72 -188.5q0 -116 -71.5 -188t-185.5 -72q-117 0 -183 71v-261h-88zM228 98q45 -28 103 -28q80 0 130.5 50t50.5 130q0 81 -50 131t-130 50q-58 0 -103.5 -28t-65.5 -75v-156q20 -47 65 -74z"/>
    <glyph glyph-name="q" unicode="q" horiz-adv-x="648" d="M45 250q0 117 72 188.5t186 71.5q126 0 193 -84v74h77v-700h-87v262q-67 -72 -183 -72q-114 0 -186 72t-72 188zM187 120q51 -50 131 -50q57 0 103 28t65 74v156q-20 47 -66 75t-103 28q-80 0 -130.5 -50t-50.5 -131q0 -80 51 -130z"/>
    <glyph glyph-name="r" unicode="r" horiz-adv-x="430" d="M75 0v500h330v-77h-242v-423h-88z"/>
    <glyph glyph-name="s" unicode="s" horiz-adv-x="465" d="M119 139q9 -37 39.5 -58t71.5 -21q49 0 78.5 21.5t29.5 60.5q0 56 -78 72l-78 16q-131 26 -131 133q0 67 52.5 108.5t136.5 41.5q66 0 115 -30t66 -81l-72 -36q-8 35 -38.5 56.5t-70.5 21.5q-47 0 -74 -20.5t-27 -54.5q0 -52 82 -70l76 -16q129 -26 129 -135 q0 -71 -54 -114.5t-144 -43.5q-69 0 -120.5 31t-69.5 84z"/>
    <glyph glyph-name="t" unicode="t" horiz-adv-x="470" d="M30 423v77h158v155l88 55v-210h163l1 -77h-164v-423h-88v423h-158z"/>
    <glyph glyph-name="u" unicode="u" horiz-adv-x="608" d="M70 500h88v-296q0 -65 39 -101t107 -36q70 0 108.5 36.5t38.5 100.5v296h87v-301q0 -99 -63.5 -154t-170.5 -55q-111 0 -172.5 57t-61.5 152v301z"/>
    <glyph glyph-name="v" unicode="v" horiz-adv-x="638" d="M15 500h103l201 -421l202 421h102l-249 -500h-109z"/>
    <glyph glyph-name="w" unicode="w" horiz-adv-x="884" d="M15 500h100l127 -381l161 381h79l160 -381l127 381h100l-175 -500h-88l-163 371l-162 -371h-91z"/>
    <glyph glyph-name="x" unicode="x" horiz-adv-x="648" d="M23 0l237 248l-232 252h111l187 -200l187 200h105l-231 -247l238 -253h-111l-193 199l-193 -199h-105z"/>
    <glyph glyph-name="y" unicode="y" horiz-adv-x="599" d="M75 4v9h87v-13q0 -62 36 -95t101 -33q66 0 101.5 33t35.5 95v143h-361v357h87v-280h274v280h88v-496q0 -102 -60 -155.5t-165 -53.5q-108 0 -166 55t-58 154z"/>
    <glyph glyph-name="z" unicode="z" horiz-adv-x="576" d="M538 0h-485v78l356 344h-346v78h460v-78l-356 -344h371v-78z"/>
    <glyph glyph-name="braceleft" unicode="{" horiz-adv-x="504" d="M143 335q30 22 30 75v310h278v-70h-193v-250q0 -53 -26 -88t-73 -42q46 -6 72.5 -40.5t26.5 -89.5v-250h193v-70h-278v310q0 98 -118 98h-2v84q60 0 90 23z"/>
    <glyph glyph-name="bar" unicode="|" horiz-adv-x="499" d="M289 800v-1000h-79v1000h79z"/>
    <glyph glyph-name="braceright" unicode="}" horiz-adv-x="504" d="M53 -180v70h193v250q0 53 26 88t73 42q-46 6 -72.5 40.5t-26.5 89.5v250h-193v70h278v-310q0 -98 118 -98h2v-84q-60 0 -90 -22.5t-30 -75.5v-310h-278z"/>
    <glyph glyph-name="asciitilde" unicode="~" horiz-adv-x="570" d="M90 322v126h66v-138q0 -34 26 -34q12 0 20.5 9.5t21.5 33.5l36 68q35 74 108 74q51 0 81.5 -33.5t30.5 -89.5v-122h-65v133q0 48 -32 48q-13 0 -23 -8.5t-14.5 -15.5t-13.5 -25l-35 -66q-31 -68 -103 -68q-48 0 -76 29t-28 79z"/>
    <glyph glyph-name="exclamdown" unicode="¡" horiz-adv-x="263" d="M98 232h67l20 -431h-107zM45 426q0 37 25 61q25 23 62 23t61.5 -23t24.5 -61q0 -37 -24.5 -60t-61.5 -23t-62 23t-25 60z"/>
    <glyph glyph-name="cent" unicode="¢" horiz-adv-x="658" d="M129 525q68 73 178 83v92h22v-90h11q97 0 167.5 -47.5t97.5 -125.5l-85 -28q-19 55 -67 87t-113 32h-11v-356h11q65 0 113 32.5t67 86.5l85 -28q-27 -78 -97.5 -125.5t-167.5 -47.5h-11v-90h-22v92q-110 10 -178.5 83t-68.5 175t69 175zM151 350q0 -68 43.5 -116.5 t112.5 -59.5v352q-69 -11 -112 -59q-44 -49 -44 -117z"/>
    <glyph glyph-name="sterling" unicode="£" horiz-adv-x="748" d="M68 0v81h119v203h-119v22h119v184q0 99 63 159.5t165 60.5q103 0 165.5 -57t62.5 -151v-46l-89 -15v36q0 69 -36.5 107.5t-98.5 38.5q-67 0 -105 -39.5t-38 -106.5v-171l213 1v-22l-213 -1v-203h403v-81h-611z"/>
    <glyph glyph-name="currency" unicode="¤" horiz-adv-x="676" d="M45 627l16 16l93 -93q76 60 184 60q110 0 184 -60l93 93l16 -16l-92 -92q79 -74 79 -185t-79 -185l92 -92l-16 -16l-93 93q-76 -60 -184 -60q-110 0 -184 60l-93 -93l-16 16l92 92q-79 74 -79 185q0 112 79 186zM149 350q0 -76 53.5 -127t135.5 -51q83 0 136 51t53 127 q0 77 -53 127.5t-136 50.5q-82 0 -135.5 -50.5t-53.5 -127.5z"/>
    <glyph glyph-name="yen" unicode="¥" horiz-adv-x="794" d="M127 700l270 -292l270 292h119l-339 -359h208v-22h-211v-128h211v-22h-211v-169h-93v168h-212v22h212v128h-212v22h209l-340 360h119z"/>
    <glyph glyph-name="brokenbar" unicode="¦" horiz-adv-x="499" d="M289 800v-413h-79v413h79zM210 -200v413h79v-413h-79z"/>
    <glyph glyph-name="section" unicode="§" horiz-adv-x="589" d="M132 456q-53 35 -53 103q0 56 41.5 93.5t110.5 43.5l227 20v-74l-216 -19q-75 -6 -75 -63q0 -51 66 -59l199 -26q57 -7 89 -38.5t32 -79.5q0 -41 -24.5 -71.5t-69.5 -45.5q54 -35 54 -104q0 -54 -39.5 -90t-104.5 -42l-242 -22v70l224 20q68 6 68 62q0 50 -68 60l-184 26 q-62 9 -95 40.5t-33 80.5q0 85 93 115zM127 358q0 -62 75 -70l162 -17q7 -1 14 -1q34 0 58 17.5t24 52.5q0 29 -18 46t-51 20l-170 18q-9 1 -17 1q-31 0 -54 -16.5t-23 -50.5z"/>
    <glyph glyph-name="dieresis" unicode="¨" horiz-adv-x="482" d="M304 722q24 23 61 23t62 -23t25 -60q0 -36 -25 -59q-25 -24 -62 -24t-61.5 23t-24.5 60t25 60zM55 722q25 23 62 23t61.5 -23t24.5 -60q0 -36 -25 -59.5t-61 -23.5q-37 0 -62 23t-25 60t25 60z"/>
    <glyph glyph-name="copyright" unicode="©" horiz-adv-x="884" d="M167 606q107 104 275 104t275 -104t107 -256t-107 -256t-275 -104t-275 104t-107 256t107 256zM125 350q0 -129 89 -215t228 -86t228 86t89 215q0 128 -89 214.5t-228 86.5t-228 -86.5t-89 -214.5zM248 350q0 79 56 132.5t144 53.5q69 0 119.5 -34.5t69.5 -89.5l-62 -20 q-14 39 -47.5 61.5t-79.5 22.5q-58 0 -95.5 -36t-37.5 -90t37.5 -90t95.5 -36q46 0 79.5 23t47.5 62l62 -21q-19 -55 -69.5 -89.5t-119.5 -34.5q-88 0 -144 53.5t-56 132.5z"/>
    <glyph glyph-name="ordfeminine" unicode="ª" horiz-adv-x="403" d="M30 557q0 68 43 109t108 41t103 -43v40h76v-293h-76v40q-37 -43 -103 -43q-65 0 -108 41t-43 108zM137 497q24 -23 64 -23q26 0 48.5 12.5t30.5 31.5v79q-22 43 -80 43q-40 0 -64 -22.5t-24 -60.5q0 -37 25 -60z"/>
    <glyph glyph-name="guillemotleft" unicode="«" horiz-adv-x="627" d="M591 500l-129 -250l129 -250h-193v500h193zM90 500h193l-129 -250l129 -250h-193v500z"/>
    <glyph glyph-name="logicalnot" unicode="¬" horiz-adv-x="860" d="M180 320v80h500v-354h-80v274h-420z"/>
    <glyph glyph-name="registered" unicode="®" horiz-adv-x="630" d="M128 686q74 70 187 70t187.5 -70t74.5 -180t-74.5 -180t-187.5 -70t-187.5 70t-74.5 180t75 180zM157 354q62 -59 158 -59t158 59t62 152t-62 152t-158 59t-158 -59t-62 -152t62 -152zM228 620h109q36 0 56.5 -19t20.5 -51q0 -29 -18.5 -47.5t-49.5 -19.5l76 -84h-61 l-87 95v-95h-46v221zM327 509q39 0 39 35t-39 35h-53v-70h53z"/>
    <glyph glyph-name="macron" unicode="¯" horiz-adv-x="356" d="M30 693h296v-70h-296v70z"/>
    <glyph glyph-name="degree" unicode="°" horiz-adv-x="482" d="M38 516q0 85 58 139t145 54t145 -54t58 -139t-58 -139.5t-145 -54.5t-145 55q-58 54 -58 139zM147 425q36 -36 94 -36t95 35.5t37 91.5q0 55 -37 90.5t-95 35.5t-94 -35q-37 -35 -37 -91t37 -91z"/>
    <glyph glyph-name="plusminus" unicode="±" horiz-adv-x="810" d="M120 388v75h243v177h85v-177h242v-75h-242v-178h-85v178h-243zM120 74h570v-74h-570v74z"/>
    <glyph glyph-name="twosuperior" unicode="²" horiz-adv-x="486" d="M60 368l160 126h-7q-66 0 -108 41t-42 104q0 70 51.5 114t130.5 44q75 0 125.5 -41t50.5 -113q0 -37 -16 -68.5t-32.5 -47.5t-45.5 -38l-149 -115h248v-74h-366v68zM171 572q28 -26 72 -26q42 0 70 26t28 67t-27.5 65.5t-69.5 24.5q-43 0 -72 -25t-29 -66t28 -66z"/>
    <glyph glyph-name="threesuperior" unicode="³" horiz-adv-x="471" d="M119 446q5 -38 32.5 -61t69.5 -23q43 0 69.5 23.5t26.5 59.5q0 33 -21.5 54t-60.5 21h-54v60h51q36 0 58 20t22 53q0 35 -24 55.5t-65 20.5q-36 0 -62 -20.5t-32 -54.5l-75 20q10 55 59 89t117 34q73 0 118.5 -37.5t45.5 -98.5q0 -40 -21 -69.5t-56 -40.5 q38 -9 60.5 -39.5t22.5 -74.5q0 -63 -50.5 -103.5t-126.5 -40.5q-75 0 -125.5 36.5t-59.5 99.5z"/>
    <glyph glyph-name="acute" unicode="´" horiz-adv-x="306" d="M276 737v-81l-246 -63v80z"/>
    <glyph glyph-name="paragraph" unicode="¶" horiz-adv-x="734" d="M79 464q40 36 106 36h534v-47h-119v-653h-47v653h-195v-653h-59v433h-114q-66 0 -106.5 37t-40.5 97t41 97z"/>
    <glyph glyph-name="periodcentered" unicode="·" horiz-adv-x="444" d="M90 304q0 56 38 92t94 36t94 -36t38 -92q0 -57 -38 -93t-94 -36t-94 36t-38 93z"/>
    <glyph glyph-name="cedilla" unicode="¸" horiz-adv-x="278" d="M15 -166l65 16q4 -22 20 -35t40 -13q26 0 41.5 14t15.5 37t-14.5 37t-38.5 14t-37 -11l-32 8v111h66v-63q14 2 22 2q42 0 71 -27t29 -69q0 -50 -34.5 -79.5t-88.5 -29.5q-47 0 -81.5 25t-43.5 63z"/>
    <glyph glyph-name="onesuperior" unicode="¹" horiz-adv-x="490" d="M211 374v304l-137 -119v91l165 140h53v-416h138v-74h-370v74h151z"/>
    <glyph glyph-name="ordmasculine" unicode="º" horiz-adv-x="388" d="M30 558q0 64 46 108t118 44t118 -44t46 -108q0 -65 -46 -109t-118 -44t-118 44t-46 109zM102 558q0 -39 25 -64t67 -25t67 25t25 64q0 38 -25 63t-67 25t-67 -25t-25 -63z"/>
    <glyph glyph-name="guillemotright" unicode="»" horiz-adv-x="627" d="M473 250l-129 250h193v-500h-193zM165 250l-129 250h193v-500h-193z"/>
    <glyph glyph-name="onequarter" unicode="¼" horiz-adv-x="949" d="M549 117v63l218 240h82v-236h73v-67h-73v-117h-78v117h-222zM156 351v242l-113 -100v87l141 120h50v-349h114v-71h-317v71h125zM717 700h53l-478 -700h-53zM771 184v140l-132 -140h132z"/>
    <glyph glyph-name="onehalf" unicode="½" horiz-adv-x="977" d="M631 0v64l131 104h-3q-54 0 -89 34.5t-35 87.5q0 60 44 98t112 38q64 0 107 -35t43 -96q0 -44 -21 -74.5t-58 -58.5l-120 -91h204v-71h-315zM31 280v71h125v242l-113 -100v87l141 120h50v-349h114v-71h-317zM717 700h53l-478 -700h-53zM710 289q0 -32 22 -52t57 -20 q33 0 55 20.5t22 52.5t-22 51.5t-55 19.5q-34 0 -56 -20q-23 -20 -23 -52z"/>
    <glyph glyph-name="threequarters" unicode="¾" horiz-adv-x="928" d="M746 420h82v-236h73v-67h-73v-117h-78v117h-222v63zM97 406q3 -30 25 -48t55 -18q34 0 54.5 18.5t20.5 47.5q0 26 -17 42.5t-48 16.5h-49v57h46q29 0 46.5 16t17.5 43t-19 43.5t-51 16.5q-29 0 -50 -16.5t-25 -43.5l-71 20q9 47 51.5 76t101.5 29q62 0 102 -32.5 t40 -84.5q0 -34 -17.5 -59t-47.5 -35q32 -8 51 -34.5t19 -63.5q0 -54 -43.5 -88.5t-109.5 -34.5q-64 0 -108 31t-52 85zM218 0l478 700h53l-478 -700h-53zM750 184v140l-132 -140h132z"/>
    <glyph glyph-name="questiondown" unicode="¿" horiz-adv-x="540" d="M120 97q51 50 140 68l4 67h78l5 -107q-89 -7 -139 -44.5t-50 -96.5q0 -53 39 -85t104 -32q58 0 100.5 29t52.5 76l71 -24q-14 -70 -78 -113.5t-153 -43.5q-101 0 -163.5 51t-62.5 133q0 72 52 122zM222 426q0 37 24.5 60.5t62.5 23.5q37 0 61.5 -23.5t24.5 -60.5 q0 -36 -24.5 -59.5t-61.5 -23.5q-38 0 -62.5 23t-24.5 60z"/>
    <glyph glyph-name="Agrave" unicode="À" horiz-adv-x="822" d="M9 0l343 702h117l344 -702h-105l-74 150h-447l-74 -150h-104zM598 224l-187 380l-187 -380h374zM532 873v-80l-246 63v81z"/>
    <glyph glyph-name="Aacute" unicode="Á" horiz-adv-x="822" d="M9 0l343 702h117l344 -702h-105l-74 150h-447l-74 -150h-104zM598 224l-187 380l-187 -380h374zM532 937v-81l-246 -63v80z"/>
    <glyph glyph-name="Acircumflex" unicode="Â" horiz-adv-x="822" d="M352 702h117l344 -702h-105l-74 150h-447l-74 -150h-104zM598 224l-187 380l-187 -380h374zM241 790v81l168 71l169 -71v-81l-169 72z"/>
    <glyph glyph-name="Atilde" unicode="Ã" horiz-adv-x="822" d="M352 702h117l344 -702h-105l-74 150h-447l-74 -150h-104zM224 224h374l-187 380zM234 965h69v-70q0 -26 20 -26q15 0 36 26l31 36q37 42 81 42q36 0 58 -23.5t22 -62.5v-89h-69v67q0 33 -25 33q-4 0 -8.5 -1t-7 -2.5t-6.5 -5t-6 -5.5t-6.5 -7t-6.5 -7l-34 -39 q-34 -36 -75 -36q-33 0 -53 20.5t-20 54.5v95z"/>
    <glyph glyph-name="Adieresis" unicode="Ä" horiz-adv-x="822" d="M352 702h117l344 -702h-105l-74 150h-447l-74 -150h-104zM598 224l-187 380l-187 -380h374zM447 862q0 37 24.5 60t61.5 23t62 -23t25 -60q0 -36 -25 -59q-25 -24 -62 -24t-61.5 23t-24.5 60zM198 862q0 37 25 60t62 23t61.5 -23t24.5 -60q0 -36 -25 -59.5t-61 -23.5 q-37 0 -62 23t-25 60z"/>
    <glyph glyph-name="Aring" unicode="Å" horiz-adv-x="822" d="M352 702h117l344 -702h-105l-74 150h-447l-74 -150h-104zM224 224h374l-187 380zM289 881q0 48 33 76.5t87 28.5t87 -28.5t33 -76.5t-33 -76q-33 -29 -87 -29t-87 28.5t-33 76.5zM372 847q14 -13 37 -13t37 12.5t14 34.5q0 21 -14 35q-15 13 -37 13t-36.5 -13.5 t-14.5 -34.5q0 -22 14 -34z"/>
    <glyph glyph-name="AE" unicode="Æ" horiz-adv-x="1105" d="M9 0l293 700h739v-80h-464v-228h454v-77h-454v-235h469v-80h-561v149h-310l-62 -149h-104zM205 224h280v396h-116z"/>
    <glyph glyph-name="Ccedilla" unicode="Ç" horiz-adv-x="866" d="M169 607q108 103 279 103q131 0 228.5 -64t136.5 -168l-91 -30q-30 81 -103.5 129t-170.5 48q-127 0 -209 -78.5t-82 -196.5t82 -196t209 -78q98 0 171.5 47.5t102.5 129.5l91 -30q-38 -101 -129.5 -164.5t-216.5 -68.5v-41q14 2 22 2q42 0 71 -27t29 -69 q0 -50 -34.5 -79.5t-88.5 -29.5q-47 0 -81.5 25t-43.5 63l65 16q4 -22 20 -35t40 -13q26 0 41.5 14t15.5 37t-14.5 37t-38.5 14t-37 -11l-32 8v91q-152 15 -246.5 116t-94.5 242q0 153 109 257z"/>
    <glyph glyph-name="Egrave" unicode="È" horiz-adv-x="710" d="M90 0v700h556v-79h-463v-231h453v-76h-453v-235h468v-79h-561zM491 873v-80l-246 63v81z"/>
    <glyph glyph-name="Eacute" unicode="É" horiz-adv-x="710" d="M90 0v700h556v-79h-463v-231h453v-76h-453v-235h468v-79h-561zM245 793v80l246 64v-81z"/>
    <glyph glyph-name="Ecircumflex" unicode="Ê" horiz-adv-x="710" d="M90 700h556v-79h-463v-231h453v-76h-453v-235h468v-79h-561v700zM200 871l168 71l169 -71v-81l-169 72l-168 -72v81z"/>
    <glyph glyph-name="Edieresis" unicode="Ë" horiz-adv-x="710" d="M646 700v-79h-463v-231h453v-76h-453v-235h468v-79h-561v700h556zM431 922q24 23 61 23t62 -23t25 -60q0 -36 -25 -59q-25 -24 -62 -24t-61.5 23t-24.5 60t25 60zM182 922q25 23 62 23t61.5 -23t24.5 -60q0 -36 -25 -59.5t-61 -23.5q-37 0 -62 23t-25 60t25 60z"/>
    <glyph glyph-name="Igrave" unicode="Ì" horiz-adv-x="617" d="M60 0v79h203v542h-203v79h497v-79h-202v-542h202v-79h-497zM186 856v81l246 -64v-80z"/>
    <glyph glyph-name="Iacute" unicode="Í" horiz-adv-x="617" d="M60 0v79h203v542h-203v79h497v-79h-202v-542h202v-79h-497zM186 793v80l246 64v-81z"/>
    <glyph glyph-name="Icircumflex" unicode="Î" horiz-adv-x="617" d="M60 621v79h497v-79h-202v-542h202v-79h-497v79h203v542h-203zM309 942l169 -71v-81l-169 72l-168 -72v81z"/>
    <glyph glyph-name="Idieresis" unicode="Ï" horiz-adv-x="617" d="M263 79v542h-203v79h497v-79h-202v-542h202v-79h-497v79h203zM347 862q0 37 24.5 60t61.5 23t62 -23t25 -60q0 -36 -25 -59q-25 -24 -62 -24t-61.5 23t-24.5 60zM123 922q25 23 62 23t61.5 -23t24.5 -60q0 -36 -25 -59.5t-61 -23.5q-37 0 -62 23t-25 60t25 60z"/>
    <glyph glyph-name="Eth" unicode="Ð" horiz-adv-x="808" d="M-15 311v79h105v310h321q160 0 248.5 -95t88.5 -256q0 -165 -91.5 -257t-245.5 -92h-321v311h-105zM183 390h194v-79h-194v-232h218q118 0 184.5 72.5t66.5 198.5q0 128 -67 199.5t-184 71.5h-218v-231z"/>
    <glyph glyph-name="Ntilde" unicode="Ñ" horiz-adv-x="885" d="M90 700h116l498 -551v551h91v-700h-95l-518 574v-574h-92v700zM268 965h69v-70q0 -26 20 -26q15 0 36 26l31 36q37 42 81 42q36 0 58 -23.5t22 -62.5v-89h-69v67q0 33 -25 33q-4 0 -8.5 -1t-7 -2.5t-6.5 -5t-6 -5.5t-6.5 -7t-6.5 -7l-34 -39q-34 -36 -75 -36 q-33 0 -53 20.5t-20 54.5v95z"/>
    <glyph glyph-name="Ograve" unicode="Ò" horiz-adv-x="896" d="M169 607q108 103 279 103t279.5 -103.5t108.5 -256.5q0 -154 -108 -257q-109 -103 -280 -103t-279.5 103.5t-108.5 256.5t109 257zM157 350q0 -118 82 -196t209 -78q129 0 210 77.5t81 196.5q0 118 -82 196.5t-209 78.5t-209 -78.5t-82 -196.5zM359 350q0 36 24.5 61 t64.5 25t64.5 -25t24.5 -61q0 -37 -24.5 -61.5t-64.5 -24.5t-64 25q-25 24 -25 61zM325 856v81l246 -64v-80z"/>
    <glyph glyph-name="Oacute" unicode="Ó" horiz-adv-x="896" d="M169 607q108 103 279 103t279.5 -103.5t108.5 -256.5q0 -154 -108 -257q-109 -103 -280 -103t-279.5 103.5t-108.5 256.5t109 257zM157 350q0 -118 82 -196t209 -78q129 0 210 77.5t81 196.5q0 118 -82 196.5t-209 78.5t-209 -78.5t-82 -196.5zM359 350q0 36 24.5 61 t64.5 25t64.5 -25t24.5 -61q0 -37 -24.5 -61.5t-64.5 -24.5t-64 25q-25 24 -25 61zM325 873l246 64v-81l-246 -63v80z"/>
    <glyph glyph-name="Ocircumflex" unicode="Ô" horiz-adv-x="896" d="M169 607q108 103 279 103t279.5 -103.5t108.5 -256.5q0 -154 -108 -257q-109 -103 -280 -103t-279.5 103.5t-108.5 256.5t109 257zM239 154q82 -78 209 -78q129 0 210 77.5t81 196.5q0 118 -82 196.5t-209 78.5t-209 -78.5t-82 -196.5t82 -196zM448 942l169 -71v-81 l-169 72l-168 -72v81zM384 289q-25 24 -25 61q0 36 24.5 61t64.5 25t64.5 -25t24.5 -61q0 -37 -24.5 -61.5t-64.5 -24.5t-64 25z"/>
    <glyph glyph-name="Otilde" unicode="Õ" horiz-adv-x="896" d="M169 607q108 103 279 103t279.5 -103.5t108.5 -256.5q0 -154 -108 -257q-109 -103 -280 -103t-279.5 103.5t-108.5 256.5t109 257zM157 350q0 -118 82 -196t209 -78q129 0 210 77.5t81 196.5q0 118 -82 196.5t-209 78.5t-209 -78.5t-82 -196.5zM342 965v-70q0 -26 20 -26 q15 0 36 26l31 36q37 42 81 42q36 0 58 -23.5t22 -62.5v-89h-69v67q0 33 -25 33q-4 0 -8.5 -1t-7 -2.5t-6.5 -5t-6 -5.5t-6.5 -7t-6.5 -7l-34 -39q-34 -36 -75 -36q-33 0 -53 20.5t-20 54.5v95h69zM384 289q-25 24 -25 61q0 36 24.5 61t64.5 25t64.5 -25t24.5 -61 q0 -37 -24.5 -61.5t-64.5 -24.5t-64 25z"/>
    <glyph glyph-name="Odieresis" unicode="Ö" horiz-adv-x="896" d="M169 607q108 103 279 103t279.5 -103.5t108.5 -256.5q0 -154 -108 -257q-109 -103 -280 -103t-279.5 103.5t-108.5 256.5t109 257zM157 350q0 -118 82 -196t209 -78q129 0 210 77.5t81 196.5q0 118 -82 196.5t-209 78.5t-209 -78.5t-82 -196.5zM384 289q-25 24 -25 61 q0 36 24.5 61t64.5 25t64.5 -25t24.5 -61q0 -37 -24.5 -61.5t-64.5 -24.5t-64 25zM486 862q0 37 24.5 60t61.5 23t62 -23t25 -60q0 -36 -25 -59q-25 -24 -62 -24t-61.5 23t-24.5 60zM237 862q0 37 25 60t62 23t61.5 -23t24.5 -60q0 -36 -25 -59.5t-61 -23.5q-37 0 -62 23 t-25 60z"/>
    <glyph glyph-name="multiply" unicode="×" horiz-adv-x="668" d="M90 138l188 187l-188 188l57 56l188 -187l187 187l56 -56l-187 -188l187 -187l-56 -57l-187 187l-188 -187z"/>
    <glyph glyph-name="Oslash" unicode="Ø" horiz-adv-x="896" d="M169 607q108 103 279 103q139 0 240 -71l98 98l50 -50l-95 -95q95 -100 95 -242q0 -154 -108.5 -257t-279.5 -103q-138 0 -239 71l-97 -96l-49 49l93 93q-96 101 -96 243q0 153 109 257zM239 154q82 -78 209 -78q129 0 210 77.5t81 196.5q0 118 -82 196.5t-209 78.5 t-209 -78.5t-82 -196.5t82 -196zM359 350q0 36 25 61q24 25 64 25t64.5 -25t24.5 -61q0 -37 -24.5 -61.5t-64.5 -24.5t-64.5 24.5t-24.5 61.5z"/>
    <glyph glyph-name="Ugrave" unicode="Ù" horiz-adv-x="763" d="M83 263v437h93v-427q0 -91 55.5 -145t150.5 -54t150.5 54t55.5 145v427h92v-437q0 -123 -82.5 -198t-216.5 -75t-216 75t-82 198zM259 856v81l246 -64v-80z"/>
    <glyph glyph-name="Uacute" unicode="Ú" horiz-adv-x="763" d="M83 700h93v-427q0 -91 55.5 -145t150.5 -54t150.5 54t55.5 145v427h92v-437q0 -123 -82.5 -198t-216.5 -75t-216 75t-82 198v437zM259 873l246 64v-81l-246 -63v80z"/>
    <glyph glyph-name="Ucircumflex" unicode="Û" horiz-adv-x="763" d="M176 700v-427q0 -91 55.5 -145t150.5 -54t150.5 54t55.5 145v427h92v-437q0 -123 -82.5 -198t-216.5 -75t-216 75t-82 198v437h93zM382 942l169 -71v-81l-169 72l-168 -72v81z"/>
    <glyph glyph-name="Udieresis" unicode="Ü" horiz-adv-x="763" d="M176 700v-427q0 -91 55.5 -145t150.5 -54t150.5 54t55.5 145v427h92v-437q0 -123 -82.5 -198t-216.5 -75t-216 75t-82 198v437h93zM445 922q24 23 61 23t62 -23t25 -60q0 -36 -25 -59q-25 -24 -62 -24t-61.5 23t-24.5 60t25 60zM171 862q0 37 25 60t62 23t61.5 -23 t24.5 -60q0 -36 -25 -59.5t-61 -23.5q-37 0 -62 23t-25 60z"/>
    <glyph glyph-name="Yacute" unicode="Ý" horiz-adv-x="794" d="M8 700h119l270 -292l270 292h119l-342 -363v-337h-93v337zM274 793v80l246 64v-81z"/>
    <glyph glyph-name="Thorn" unicode="Þ" horiz-adv-x="736" d="M90 0v700h93v-121h271q110 0 177 -62.5t67 -166.5t-67 -166.5t-177 -62.5h-271v-121h-93zM183 200h254q75 0 120 40.5t45 109.5q0 70 -45 110t-120 40h-254v-300z"/>
    <glyph glyph-name="germandbls" unicode="ß" horiz-adv-x="690" d="M391 -10q-66 0 -98 19v73q31 -16 81 -16q82 0 131 43.5t49 115.5q0 69 -45 108.5t-116 39.5h-52v70q81 5 123 43t42 100q0 64 -44.5 103.5t-117.5 39.5q-84 0 -132.5 -51t-48.5 -136v-542h-88v547q0 121 75.5 192t200.5 71q104 0 173.5 -58.5t69.5 -155.5q0 -62 -33 -109 t-91 -67q79 -11 127 -65.5t48 -137.5q0 -102 -70.5 -164.5t-183.5 -62.5z"/>
    <glyph glyph-name="agrave" unicode="à" horiz-adv-x="648" d="M45 250q0 117 72 188.5t186 71.5q126 0 193 -84v72h77v-498h-77v73q-67 -83 -193 -83q-114 0 -186 72t-72 188zM136 250q0 -80 51 -130t131 -50q57 0 103 28t65 74v156q-20 47 -66 75t-103 28q-80 0 -130.5 -50t-50.5 -131zM161 656v81l246 -64v-80z"/>
    <glyph glyph-name="aacute" unicode="á" horiz-adv-x="648" d="M45 250q0 117 72 188.5t186 71.5q126 0 193 -84v72h77v-498h-77v73q-67 -83 -193 -83q-114 0 -186 72t-72 188zM136 250q0 -80 51 -130t131 -50q57 0 103 28t65 74v156q-20 47 -66 75t-103 28q-80 0 -130.5 -50t-50.5 -131zM161 593v80l246 64v-81z"/>
    <glyph glyph-name="acircumflex" unicode="â" horiz-adv-x="648" d="M45 250q0 117 72 188.5t186 71.5q126 0 193 -84v72h77v-498h-77v73q-67 -83 -193 -83q-114 0 -186 72t-72 188zM136 250q0 -80 51 -130t131 -50q57 0 103 28t65 74v156q-20 47 -66 75t-103 28q-80 0 -130.5 -50t-50.5 -131zM116 590v81l168 71l169 -71v-81l-169 72z"/>
    <glyph glyph-name="atilde" unicode="ã" horiz-adv-x="648" d="M117 439q72 71 186 71q126 0 193 -84v72h77v-498h-77v73q-67 -83 -193 -83q-114 0 -186 72t-72 188q0 117 72 189zM187 120q51 -50 131 -50q57 0 103 28t65 74v156q-20 47 -66 75t-103 28q-80 0 -130.5 -50t-50.5 -131q0 -80 51 -130zM178 765v-70q0 -26 20 -26 q15 0 36 26l31 36q37 42 81 42q36 0 58 -23.5t22 -62.5v-89h-69v67q0 33 -25 33q-4 0 -8.5 -1t-7 -2.5t-6.5 -5t-6 -5.5t-6.5 -7t-6.5 -7l-34 -39q-34 -36 -75 -36q-33 0 -53 20.5t-20 54.5v95h69z"/>
    <glyph glyph-name="adieresis" unicode="ä" horiz-adv-x="648" d="M117 439q72 71 186 71q126 0 193 -84v72h77v-498h-77v73q-67 -83 -193 -83q-114 0 -186 72t-72 188q0 117 72 189zM136 250q0 -80 51 -130t131 -50q57 0 103 28t65 74v156q-20 47 -66 75t-103 28q-80 0 -130.5 -50t-50.5 -131zM322 662q0 37 24.5 60t61.5 23t62 -23 t25 -60q0 -36 -25 -59q-25 -24 -62 -24t-61.5 23t-24.5 60zM98 722q25 23 62 23t61.5 -23t24.5 -60q0 -36 -25 -59.5t-61 -23.5q-37 0 -62 23t-25 60t25 60z"/>
    <glyph glyph-name="aring" unicode="å" horiz-adv-x="648" d="M45 250q0 117 72 188.5t186 71.5q126 0 193 -84v72h77v-498h-77v73q-67 -83 -193 -83q-114 0 -186 72t-72 188zM136 250q0 -80 51 -130t131 -50q57 0 103 28t65 74v156q-20 47 -66 75t-103 28q-80 0 -130.5 -50t-50.5 -131zM164 681q0 48 33 76.5t87 28.5t87 -28.5 t33 -76.5t-33 -76q-33 -29 -87 -29t-87 28.5t-33 76.5zM247 647q14 -13 37 -13t37 12.5t14 34.5q0 21 -14 35q-15 13 -37 13t-36.5 -13.5t-14.5 -34.5q0 -22 14 -34z"/>
    <glyph glyph-name="ae" unicode="æ" horiz-adv-x="1082" d="M117 439q72 71 186 71q64 0 115.5 -24t77.5 -66v78h67v-78q33 42 90 66t125 24q114 0 190 -70t76 -179q0 -12 -1 -17h-469v-28q10 -64 62 -104t127 -40q65 0 114 32t67 87l86 -28q-19 -73 -88.5 -123t-163.5 -50q-154 0 -215 82v-72h-67v81q-27 -43 -78.5 -67t-114.5 -24 q-114 0 -186 72t-72 188q0 117 72 189zM136 250q0 -80 51 -130t131 -50q57 0 103 28t65 74v157q-20 46 -66 74t-103 28q-80 0 -130.5 -50t-50.5 -131zM578 307v-15h371q-14 61 -65.5 98.5t-122.5 37.5q-66 0 -116 -33.5t-67 -87.5z"/>
    <glyph glyph-name="ccedilla" unicode="ç" horiz-adv-x="628" d="M124 435q78 75 201 75q97 0 167.5 -47.5t97.5 -125.5l-85 -28q-19 55 -67 87t-113 32q-82 0 -135.5 -50.5t-53.5 -127.5q0 -76 53.5 -127t135.5 -51q65 0 113 32.5t67 86.5l85 -28q-25 -71 -86 -117.5t-146 -53.5v-43q14 2 22 2q42 0 71 -27t29 -69q0 -50 -34.5 -79.5 t-88.5 -29.5q-47 0 -81.5 25t-43.5 63l65 16q4 -22 20 -35t40 -13q26 0 41.5 14t15.5 37t-14.5 37t-38.5 14t-37 -11l-32 8v91q-110 10 -178.5 83t-68.5 175q0 110 79 185z"/>
    <glyph glyph-name="egrave" unicode="è" horiz-adv-x="643" d="M45 250q0 110 78.5 185t201.5 75t201.5 -75t78.5 -185v-6h-469q2 -74 55.5 -123t133.5 -49q65 0 113 32.5t67 86.5l85 -28q-27 -78 -97.5 -125.5t-167.5 -47.5q-123 0 -201 75q-79 75 -79 185zM141 292h369q-14 61 -64.5 98.5t-120.5 37.5t-120 -37.5t-64 -98.5zM200 656 v81l246 -64v-80z"/>
    <glyph glyph-name="eacute" unicode="é" horiz-adv-x="643" d="M45 250q0 110 78.5 185t201.5 75t201.5 -75t78.5 -185v-6h-469q2 -74 55.5 -123t133.5 -49q65 0 113 32.5t67 86.5l85 -28q-27 -78 -97.5 -125.5t-167.5 -47.5q-123 0 -201 75q-79 75 -79 185zM141 292h369q-14 61 -64.5 98.5t-120.5 37.5t-120 -37.5t-64 -98.5zM200 673 l246 64v-81l-246 -63v80z"/>
    <glyph glyph-name="ecircumflex" unicode="ê" horiz-adv-x="643" d="M45 250q0 110 78.5 185t201.5 75t201.5 -75t78.5 -185v-6h-469q2 -74 55.5 -123t133.5 -49q65 0 113 32.5t67 86.5l85 -28q-27 -78 -97.5 -125.5t-167.5 -47.5q-123 0 -201 75q-79 75 -79 185zM141 292h369q-14 61 -64.5 98.5t-120.5 37.5t-120 -37.5t-64 -98.5zM155 590 v81l168 71l169 -71v-81l-169 72z"/>
    <glyph glyph-name="edieresis" unicode="ë" horiz-adv-x="643" d="M124 435q78 75 201 75t201.5 -75t78.5 -185v-6h-469q2 -74 55.5 -123t133.5 -49q65 0 113 32.5t67 86.5l85 -28q-27 -78 -97.5 -125.5t-167.5 -47.5q-123 0 -201 75q-79 75 -79 185t79 185zM510 292q-14 61 -64.5 98.5t-120.5 37.5t-120 -37.5t-64 -98.5h369zM361 662 q0 37 24.5 60t61.5 23t62 -23t25 -60q0 -36 -25 -59q-25 -24 -62 -24t-61.5 23t-24.5 60zM137 722q25 23 62 23t61.5 -23t24.5 -60q0 -36 -25 -59.5t-61 -23.5q-37 0 -62 23t-25 60t25 60z"/>
    <glyph glyph-name="igrave" unicode="ì" horiz-adv-x="238" d="M-4 737l246 -64v-80l-246 63v81zM163 500v-500h-88v500h88z"/>
    <glyph glyph-name="iacute" unicode="í" horiz-adv-x="238" d="M242 737v-81l-246 -63v80zM163 500v-500h-88v500h88z"/>
    <glyph glyph-name="icircumflex" unicode="î" horiz-adv-x="238" d="M-49 590v81l168 71l169 -71v-81l-169 72zM163 500v-500h-88v500h88z"/>
    <glyph glyph-name="idieresis" unicode="ï" horiz-adv-x="238" d="M75 500h88v-500h-88v500zM157 662q0 37 24.5 60t61.5 23t62 -23t25 -60q0 -36 -25 -59q-25 -24 -62 -24t-61.5 23t-24.5 60zM-67 722q25 23 62 23t61.5 -23t24.5 -60q0 -36 -25 -59.5t-61 -23.5q-37 0 -62 23t-25 60t25 60z"/>
    <glyph glyph-name="eth" unicode="ð" horiz-adv-x="607" d="M427 487q73 -65 104 -123t31 -126q0 -109 -75 -177.5t-186 -68.5q-112 0 -184 65t-72 170q0 102 71 168.5t173 66.5q40 0 71 -10l-229 185l-53 -36v201l76 -69l145 99v-80l-94 -64zM303 74q75 0 121.5 44t46.5 113q0 70 -46.5 114t-121.5 44q-72 0 -120 -44.5t-48 -113.5 q0 -68 48 -112.5t120 -44.5z"/>
    <glyph glyph-name="ntilde" unicode="ñ" horiz-adv-x="598" d="M523 500v-500h-87v423h-273v-423h-88v500h448zM134 765h69v-70q0 -26 20 -26q15 0 36 26l31 36q37 42 81 42q36 0 58 -23.5t22 -62.5v-89h-69v67q0 33 -25 33q-4 0 -8.5 -1t-7 -2.5t-6.5 -5t-6 -5.5t-6.5 -7t-6.5 -7l-34 -39q-34 -36 -75 -36q-33 0 -53 20.5t-20 54.5v95 z"/>
    <glyph glyph-name="ograve" unicode="ò" horiz-adv-x="650" d="M45 250q0 110 78.5 185t201.5 75t201.5 -75t78.5 -185t-78 -185q-79 -75 -202 -75t-201.5 75t-78.5 185zM131 250q0 -78 55 -130.5t139 -52.5q85 0 140 52t55 131t-55 131t-140 52q-84 0 -139 -52t-55 -131zM202 656v81l246 -64v-80zM271 198q-22 21 -22 52t21.5 52.5 t54.5 21.5q34 0 55.5 -21.5t21.5 -52.5t-21.5 -52t-55.5 -21q-33 0 -54 21z"/>
    <glyph glyph-name="oacute" unicode="ó" horiz-adv-x="650" d="M45 250q0 110 78.5 185t201.5 75t201.5 -75t78.5 -185t-78 -185q-79 -75 -202 -75t-201.5 75t-78.5 185zM131 250q0 -78 55 -130.5t139 -52.5q85 0 140 52t55 131t-55 131t-140 52q-84 0 -139 -52t-55 -131zM202 673l246 64v-81l-246 -63v80zM271 198q-22 21 -22 52 t21.5 52.5t54.5 21.5q34 0 55.5 -21.5t21.5 -52.5t-21.5 -52t-55.5 -21q-33 0 -54 21z"/>
    <glyph glyph-name="ocircumflex" unicode="ô" horiz-adv-x="650" d="M45 250q0 110 78.5 185t201.5 75t201.5 -75t78.5 -185t-78 -185q-79 -75 -202 -75t-201.5 75t-78.5 185zM131 250q0 -78 55 -130.5t139 -52.5q85 0 140 52t55 131t-55 131t-140 52q-84 0 -139 -52t-55 -131zM325 742l169 -71v-81l-169 72l-168 -72v81zM249 250 q0 31 21.5 52.5t54.5 21.5q34 0 55.5 -21.5t21.5 -52.5t-21.5 -52t-55.5 -21q-33 0 -54.5 21t-21.5 52z"/>
    <glyph glyph-name="otilde" unicode="õ" horiz-adv-x="650" d="M45 250q0 110 78.5 185t201.5 75t201.5 -75t78.5 -185t-78 -185q-79 -75 -202 -75t-201.5 75t-78.5 185zM186 120q55 -53 139 -53q85 0 140 52t55 131t-55 131t-140 52q-84 0 -139 -52t-55 -131q0 -78 55 -130zM150 765h69v-70q0 -26 20 -26q15 0 36 26l31 36 q37 42 81 42q36 0 58 -23.5t22 -62.5v-89h-69v67q0 33 -25 33q-4 0 -8.5 -1t-7 -2.5t-6.5 -5t-6 -5.5t-6.5 -7t-6.5 -7l-34 -39q-34 -36 -75 -36q-33 0 -53 20.5t-20 54.5v95zM249 250q0 31 21.5 52.5t54.5 21.5q34 0 55.5 -21.5t21.5 -52.5t-21.5 -52t-55.5 -21 q-33 0 -54.5 21t-21.5 52z"/>
    <glyph glyph-name="odieresis" unicode="ö" horiz-adv-x="650" d="M124 435q78 75 201 75t201.5 -75t78.5 -185t-78 -185q-79 -75 -202 -75t-201.5 75t-78.5 185t79 185zM186 120q55 -53 139 -53q85 0 140 52t55 131t-55 131t-140 52q-84 0 -139 -52t-55 -131q0 -78 55 -130zM363 662q0 37 24.5 60t61.5 23t62 -23t25 -60q0 -36 -25 -59 q-25 -24 -62 -24t-61.5 23t-24.5 60zM139 722q25 23 62 23t61.5 -23t24.5 -60q0 -36 -25 -59.5t-61 -23.5q-37 0 -62 23t-25 60t25 60zM271 198q-22 21 -22 52t21.5 52.5t54.5 21.5q34 0 55.5 -21.5t21.5 -52.5t-21.5 -52t-55.5 -21q-33 0 -54 21z"/>
    <glyph glyph-name="divide" unicode="÷" horiz-adv-x="650" d="M328 444q-33 0 -56 21.5t-23 55.5q0 33 23 54t56 21q34 0 56.5 -21t22.5 -54q0 -34 -22.5 -55.5t-56.5 -21.5zM560 363v-75h-470v75h470zM328 53q-33 0 -56 21t-23 55t23 55t56 21q34 0 56.5 -21t22.5 -55q0 -33 -23 -54.5t-56 -21.5z"/>
    <glyph glyph-name="oslash" unicode="ø" horiz-adv-x="650" d="M112 77q-67 72 -67 173q0 110 78.5 185t201.5 75q98 0 170 -50l83 84l40 -41l-80 -80q67 -72 67 -173q0 -110 -78.5 -185t-201.5 -75q-97 0 -170 49l-82 -82l-41 40zM186 120q55 -53 139 -53q85 0 140 52t55 131t-55 131t-140 52q-84 0 -139 -52t-55 -131q0 -78 55 -130z M271 303q21 21 54 21q34 0 55.5 -21.5t21.5 -52.5t-21.5 -52t-55.5 -21q-33 0 -54.5 21t-21.5 52t22 53z"/>
    <glyph glyph-name="ugrave" unicode="ù" horiz-adv-x="608" d="M70 500h88v-296q0 -65 39 -101t107 -36q70 0 108.5 36.5t38.5 100.5v296h87v-301q0 -99 -63.5 -154t-170.5 -55q-111 0 -172.5 57t-61.5 152v301zM181 737l246 -64v-80l-246 63v81z"/>
    <glyph glyph-name="uacute" unicode="ú" horiz-adv-x="608" d="M158 500v-296q0 -65 39 -101t107 -36q70 0 108.5 36.5t38.5 100.5v296h87v-301q0 -99 -63.5 -154t-170.5 -55q-111 0 -172.5 57t-61.5 152v301h88zM427 737v-81l-246 -63v80z"/>
    <glyph glyph-name="ucircumflex" unicode="û" horiz-adv-x="608" d="M158 500v-296q0 -65 39 -101t107 -36q70 0 108.5 36.5t38.5 100.5v296h87v-301q0 -99 -63.5 -154t-170.5 -55q-111 0 -172.5 57t-61.5 152v301h88zM136 590v81l168 71l169 -71v-81l-169 72z"/>
    <glyph glyph-name="udieresis" unicode="ü" horiz-adv-x="608" d="M70 500h88v-296q0 -65 39 -101t107 -36q70 0 108.5 36.5t38.5 100.5v296h87v-301q0 -99 -63.5 -154t-170.5 -55q-111 0 -172.5 57t-61.5 152v301zM367 722q24 23 61 23t62 -23t25 -60q0 -36 -25 -59q-25 -24 -62 -24t-61.5 23t-24.5 60t25 60zM118 722q25 23 62 23 t61.5 -23t24.5 -60q0 -36 -25 -59.5t-61 -23.5q-37 0 -62 23t-25 60t25 60z"/>
    <glyph glyph-name="yacute" unicode="ý" horiz-adv-x="599" d="M75 4v9h87v-13q0 -62 36 -95t101 -33q66 0 101.5 33t35.5 95v143h-361v357h87v-280h274v280h88v-496q0 -102 -60 -155.5t-165 -53.5q-108 0 -166 55t-58 154zM176 593v80l246 64v-81z"/>
    <glyph glyph-name="thorn" unicode="þ" horiz-adv-x="648" d="M346 510q113 0 185 -71.5t72 -188.5q0 -116 -71.5 -188t-185.5 -72q-117 0 -183 71v-261h-88v1000h88v-361q66 71 183 71zM331 70q80 0 130.5 50t50.5 130q0 81 -50 131t-130 50q-58 0 -103.5 -28t-65.5 -75v-156q20 -47 65 -74.5t103 -27.5z"/>
    <glyph glyph-name="ydieresis" unicode="ÿ" horiz-adv-x="599" d="M75 143v357h87v-280h274v280h88v-496q0 -102 -60 -155.5t-165 -53.5q-108 0 -166 55t-58 154v9h87v-13q0 -62 36 -95t101 -33q66 0 101.5 33t35.5 95v143h-361zM337 662q0 37 24.5 60t61.5 23t62 -23t25 -60q0 -36 -25 -59q-25 -24 -62 -24t-61.5 23t-24.5 60zM113 722 q25 23 62 23t61.5 -23t24.5 -60q0 -36 -25 -59.5t-61 -23.5q-37 0 -62 23t-25 60t25 60z"/>
    <glyph glyph-name="Amacron" unicode="Ā" horiz-adv-x="822" d="M9 0l343 702h117l344 -702h-105l-74 150h-447l-74 -150h-104zM598 224l-187 380l-187 -380h374zM557 893v-70h-296v70h296z"/>
    <glyph glyph-name="amacron" unicode="ā" horiz-adv-x="648" d="M45 250q0 117 72 188.5t186 71.5q126 0 193 -84v72h77v-498h-77v73q-67 -83 -193 -83q-114 0 -186 72t-72 188zM136 250q0 -80 51 -130t131 -50q57 0 103 28t65 74v156q-20 47 -66 75t-103 28q-80 0 -130.5 -50t-50.5 -131zM136 623v70h296v-70h-296z"/>
    <glyph glyph-name="Abreve" unicode="Ă" horiz-adv-x="822" d="M352 702h117l344 -702h-105l-74 150h-447l-74 -150h-104zM224 224h374l-187 380zM244 950h79v-16q0 -32 22.5 -50.5t59.5 -18.5q38 0 60.5 19t22.5 50v16h78v-21q0 -59 -44 -95t-117 -36q-72 0 -116.5 36t-44.5 95v21z"/>
    <glyph glyph-name="abreve" unicode="ă" horiz-adv-x="648" d="M45 250q0 117 72 188.5t186 71.5q126 0 193 -84v72h77v-498h-77v73q-67 -83 -193 -83q-114 0 -186 72t-72 188zM187 120q51 -50 131 -50q57 0 103 28t65 74v156q-20 47 -66 75t-103 28q-80 0 -130.5 -50t-50.5 -131q0 -80 51 -130zM119 729v21h79v-16q0 -32 22.5 -50.5 t59.5 -18.5q38 0 60.5 19t22.5 50v16h78v-21q0 -59 -44 -95t-117 -36q-72 0 -116.5 36t-44.5 95z"/>
    <glyph glyph-name="Aogonek" unicode="Ą" horiz-adv-x="822" d="M352 702h117l344 -702h-39q-52 -23 -52 -70q0 -28 20.5 -44t55.5 -16q32 0 55 10l-1 -58q-28 -13 -70 -13q-57 0 -90.5 27t-33.5 73q0 57 50 91l-74 150h-447l-74 -150h-104zM598 224l-187 380l-187 -380h374z"/>
    <glyph glyph-name="aogonek" unicode="ą" horiz-adv-x="648" d="M117 439q72 71 186 71q126 0 193 -84v72h77v-498h-1q-52 -23 -52 -70q0 -28 20.5 -44t55.5 -16q32 0 55 10l-1 -58q-28 -13 -70 -13q-57 0 -90.5 27t-33.5 73q0 57 50 91h-10v73q-67 -83 -193 -83q-114 0 -186 72t-72 188q0 117 72 189zM187 120q51 -50 131 -50 q57 0 103 28t65 74v156q-20 47 -66 75t-103 28q-80 0 -130.5 -50t-50.5 -131q0 -80 51 -130z"/>
    <glyph glyph-name="Cacute" unicode="Ć" horiz-adv-x="866" d="M169 607q108 103 279 103q131 0 228.5 -64t136.5 -168l-91 -30q-30 81 -103.5 129t-170.5 48q-127 0 -209 -78.5t-82 -196.5t82 -196t209 -78q98 0 171.5 47.5t102.5 129.5l91 -30q-39 -105 -136 -169t-229 -64q-171 0 -279.5 103.5t-108.5 256.5t109 257zM311 873 l246 64v-81l-246 -63v80z"/>
    <glyph glyph-name="cacute" unicode="ć" horiz-adv-x="628" d="M124 435q78 75 201 75q97 0 167.5 -47.5t97.5 -125.5l-85 -28q-19 55 -67 87t-113 32q-82 0 -135.5 -50.5t-53.5 -127.5q0 -76 53.5 -127t135.5 -51q65 0 113 32.5t67 86.5l85 -28q-27 -78 -97.5 -125.5t-167.5 -47.5q-123 0 -201.5 75t-78.5 185t79 185zM192 673l246 64 v-81l-246 -63v80z"/>
    <glyph glyph-name="Cdotaccent" unicode="Ċ" horiz-adv-x="866" d="M60 350q0 153 108.5 256.5t279.5 103.5q131 0 228.5 -64t136.5 -168l-91 -30q-30 81 -103.5 129t-170.5 48q-127 0 -209 -78.5t-82 -196.5t82 -196t209 -78q98 0 171.5 47.5t102.5 129.5l91 -30q-39 -105 -136 -169t-229 -64q-171 0 -279.5 103.5t-108.5 256.5zM346 862 q0 37 25 60t62 23t61.5 -23t24.5 -60q0 -36 -25 -59.5t-61 -23.5q-37 0 -62 23t-25 60z"/>
    <glyph glyph-name="cdotaccent" unicode="ċ" horiz-adv-x="628" d="M45 250q0 110 78.5 185t201.5 75q97 0 167.5 -47.5t97.5 -125.5l-85 -28q-19 55 -67 87t-113 32q-82 0 -135.5 -50.5t-53.5 -127.5q0 -76 53.5 -127t135.5 -51q65 0 113 32.5t67 86.5l85 -28q-27 -78 -97.5 -125.5t-167.5 -47.5q-123 0 -201.5 75t-78.5 185zM227 662 q0 37 25 60t62 23t61.5 -23t24.5 -60q0 -36 -25 -59.5t-61 -23.5q-37 0 -62 23t-25 60z"/>
    <glyph glyph-name="Ccaron" unicode="Č" horiz-adv-x="866" d="M169 607q108 103 279 103q131 0 228.5 -64t136.5 -168l-91 -30q-30 81 -103.5 129t-170.5 48q-127 0 -209 -78.5t-82 -196.5t82 -196t209 -78q98 0 171.5 47.5t102.5 129.5l91 -30q-39 -105 -136 -169t-229 -64q-171 0 -279.5 103.5t-108.5 256.5t109 257zM266 862v80 l168 -71l169 71v-80l-169 -72z"/>
    <glyph glyph-name="ccaron" unicode="č" horiz-adv-x="628" d="M124 435q78 75 201 75q97 0 167.5 -47.5t97.5 -125.5l-85 -28q-19 55 -67 87t-113 32q-82 0 -135.5 -50.5t-53.5 -127.5q0 -76 53.5 -127t135.5 -51q65 0 113 32.5t67 86.5l85 -28q-27 -78 -97.5 -125.5t-167.5 -47.5q-123 0 -201.5 75t-78.5 185t79 185zM147 742 l168 -71l169 71v-80l-169 -72l-168 72v80z"/>
    <glyph glyph-name="Dcaron" unicode="Ď" horiz-adv-x="808" d="M90 700h321q160 0 248.5 -95t88.5 -256q0 -165 -91.5 -257t-245.5 -92h-321v700zM183 79h218q118 0 184.5 72.5t66.5 198.5q0 128 -67 199.5t-184 71.5h-218v-542zM241 942l168 -71l169 71v-80l-169 -72l-168 72v80z"/>
    <glyph glyph-name="dcaron" unicode="ď" horiz-adv-x="769" d="M45 250q0 117 72 188.5t186 71.5q117 0 183 -72v307l87 55v-800h-77v73q-67 -83 -193 -83q-114 0 -186 72t-72 188zM136 250q0 -80 51 -130t131 -50q57 0 103 28t65 74v156q-20 47 -66 75t-103 28q-80 0 -130.5 -50t-50.5 -131zM670 531v229l79 40v-269h-79z"/>
    <glyph glyph-name="Dcroat" unicode="Đ" horiz-adv-x="808" d="M-15 311v79h105v310h321q160 0 248.5 -95t88.5 -256q0 -165 -91.5 -257t-245.5 -92h-321v311h-105zM183 390h194v-79h-194v-232h218q118 0 184.5 72.5t66.5 198.5q0 128 -67 199.5t-184 71.5h-218v-231z"/>
    <glyph glyph-name="dcroat" unicode="đ" horiz-adv-x="638" d="M45 250q0 117 72 188.5t186 71.5q117 0 183 -72v164h-223v67h223v76l87 55v-131h66v-67h-66v-602h-77v73q-67 -83 -193 -83q-114 0 -186 72t-72 188zM136 250q0 -80 51 -130t131 -50q57 0 103 28t65 74v156q-20 47 -66 75t-103 28q-80 0 -130.5 -50t-50.5 -131z"/>
    <glyph glyph-name="Emacron" unicode="Ē" horiz-adv-x="710" d="M90 0v700h556v-79h-463v-231h453v-76h-453v-235h468v-79h-561zM516 893v-70h-296v70h296z"/>
    <glyph glyph-name="emacron" unicode="ē" horiz-adv-x="643" d="M45 250q0 110 78.5 185t201.5 75t201.5 -75t78.5 -185v-6h-469q2 -74 55.5 -123t133.5 -49q65 0 113 32.5t67 86.5l85 -28q-27 -78 -97.5 -125.5t-167.5 -47.5q-123 0 -201 75q-79 75 -79 185zM141 292h369q-14 61 -64.5 98.5t-120.5 37.5t-120 -37.5t-64 -98.5zM471 693 v-70h-296v70h296z"/>
    <glyph glyph-name="Edotaccent" unicode="Ė" horiz-adv-x="710" d="M646 700v-79h-463v-231h453v-76h-453v-235h468v-79h-561v700h556zM280 862q0 37 25 60t62 23t61.5 -23t24.5 -60q0 -36 -25 -59.5t-61 -23.5q-37 0 -62 23t-25 60z"/>
    <glyph glyph-name="edotaccent" unicode="ė" horiz-adv-x="643" d="M45 250q0 110 78.5 185t201.5 75t201.5 -75t78.5 -185v-6h-469q2 -74 55.5 -123t133.5 -49q65 0 113 32.5t67 86.5l85 -28q-27 -78 -97.5 -125.5t-167.5 -47.5q-123 0 -201 75q-79 75 -79 185zM141 292h369q-14 61 -64.5 98.5t-120.5 37.5t-120 -37.5t-64 -98.5zM235 662 q0 37 25 60t62 23t61.5 -23t24.5 -60q0 -36 -25 -59.5t-61 -23.5q-37 0 -62 23t-25 60z"/>
    <glyph glyph-name="Eogonek" unicode="Ę" horiz-adv-x="710" d="M90 0v700h556v-79h-463v-231h453v-76h-453v-235h468v-79h-130q-50 -23 -50 -69q0 -28 20.5 -44t55.5 -16q32 0 55 10l-1 -58q-28 -13 -70 -13q-57 0 -90.5 27t-33.5 73q0 57 49 90h-366z"/>
    <glyph glyph-name="eogonek" unicode="ę" horiz-adv-x="643" d="M45 250q0 110 78.5 185t201.5 75t201.5 -75t78.5 -185v-6h-469q2 -74 55.5 -123t133.5 -49q65 0 113 32.5t67 86.5l85 -28q-24 -69 -82.5 -114.5t-140.5 -55.5q-24 -22 -24 -53q0 -28 20.5 -44t55.5 -16q32 0 55 10l-1 -58q-28 -13 -70 -13q-57 0 -90.5 27t-33.5 73 q0 41 28 71q-116 7 -189 80.5t-73 179.5zM141 292h369q-14 61 -64.5 98.5t-120.5 37.5t-120 -37.5t-64 -98.5z"/>
    <glyph glyph-name="Ecaron" unicode="Ě" horiz-adv-x="710" d="M90 700h556v-79h-463v-231h453v-76h-453v-235h468v-79h-561v700zM200 942l168 -71l169 71v-80l-169 -72l-168 72v80z"/>
    <glyph glyph-name="ecaron" unicode="ě" horiz-adv-x="643" d="M45 250q0 110 78.5 185t201.5 75t201.5 -75t78.5 -185v-6h-469q2 -74 55.5 -123t133.5 -49q65 0 113 32.5t67 86.5l85 -28q-27 -78 -97.5 -125.5t-167.5 -47.5q-123 0 -201 75q-79 75 -79 185zM141 292h369q-14 61 -64.5 98.5t-120.5 37.5t-120 -37.5t-64 -98.5zM155 742 l168 -71l169 71v-80l-169 -72l-168 72v80z"/>
    <glyph glyph-name="Gbreve" unicode="Ğ" horiz-adv-x="879" d="M60 345q0 157 108 261t279 104q132 0 232 -64t134 -168l-91 -28q-28 81 -103 128t-173 47q-128 0 -208.5 -77.5t-80.5 -199.5q0 -123 80 -198.5t209 -75.5q121 0 196.5 63t79.5 167h-283v56h377q3 -16 3 -39q0 -149 -104.5 -240t-271.5 -91q-171 0 -277 99.5t-106 255.5z M275 950h79v-16q0 -32 22.5 -50.5t59.5 -18.5q38 0 60.5 19t22.5 50v16h78v-21q0 -59 -44 -95t-117 -36q-72 0 -116.5 36t-44.5 95v21z"/>
    <glyph glyph-name="gbreve" unicode="ğ" horiz-adv-x="588" d="M51 2q41 36 114 36h78v77q-82 13 -130 66t-48 125q0 87 61.5 145.5t162.5 58.5q69 0 120 -28l26 140h110l-93 -171q61 -58 61 -145q0 -76 -52.5 -129.5t-140.5 -62.5v-76h103q71 0 113 -35t42 -99q0 -61 -41 -97t-114 -36h-258q-71 0 -113 35t-42 98q0 61 41 98zM186 213 q40 -37 103 -37t103 36.5t40 93.5q0 59 -39.5 97t-103.5 38q-63 0 -103 -38t-40 -97q0 -56 40 -93zM121 -139q19 -16 55 -16h237q35 0 55 16t20 44q0 29 -19.5 45t-55.5 16h-237q-35 0 -55 -16t-20 -45q0 -28 20 -44zM124 729v21h79v-16q0 -32 22.5 -50.5t59.5 -18.5 q38 0 60.5 19t22.5 50v16h78v-21q0 -59 -44 -95t-117 -36q-72 0 -116.5 36t-44.5 95z"/>
    <glyph glyph-name="Gdotaccent" unicode="Ġ" horiz-adv-x="879" d="M60 345q0 157 108 261t279 104q132 0 232 -64t134 -168l-91 -28q-28 81 -103 128t-173 47q-128 0 -208.5 -77.5t-80.5 -199.5q0 -123 80 -198.5t209 -75.5q121 0 196.5 63t79.5 167h-283v56h377q3 -16 3 -39q0 -149 -104.5 -240t-271.5 -91q-171 0 -277 99.5t-106 255.5z M352 862q0 37 25 60t62 23t61.5 -23t24.5 -60q0 -36 -25 -59.5t-61 -23.5q-37 0 -62 23t-25 60z"/>
    <glyph glyph-name="gdotaccent" unicode="ġ" horiz-adv-x="588" d="M10 -96q0 61 41 97.5t114 36.5h78v77q-82 13 -130 66t-48 125q0 87 61.5 145.5t162.5 58.5q69 0 120 -28l26 140h110l-93 -171q61 -58 61 -145q0 -76 -52.5 -129.5t-140.5 -62.5v-76h103q71 0 113 -35t42 -99q0 -61 -41 -97t-114 -36h-258q-71 0 -113 35t-42 98zM146 306 q0 -56 40 -93t103 -37t103 36.5t40 93.5q0 59 -39.5 97t-103.5 38q-63 0 -103 -38t-40 -97zM121 -139q19 -16 55 -16h237q35 0 55 16t20 44q0 29 -19.5 45t-55.5 16h-237q-35 0 -55 -16t-20 -45q0 -28 20 -44zM226 722q25 23 62 23t61.5 -23t24.5 -60q0 -36 -25 -59.5 t-61 -23.5q-37 0 -62 23t-25 60t25 60z"/>
    <glyph glyph-name="uni0122" unicode="Ģ" horiz-adv-x="879" d="M60 345q0 157 108 261t279 104q132 0 232 -64t134 -168l-91 -28q-28 81 -103 128t-173 47q-128 0 -208.5 -77.5t-80.5 -199.5q0 -123 80 -198.5t209 -75.5q121 0 196.5 63t79.5 167h-283v56h377q3 -16 3 -39q0 -149 -104.5 -240t-271.5 -91q-171 0 -277 99.5t-106 255.5z M436 -182q-30 2 -48.5 19.5t-18.5 45.5q0 29 20 47t51 18t51 -18t20 -47q0 -44 -41 -60v-55l-117 -69v71z"/>
    <glyph glyph-name="uni0123" unicode="ģ" horiz-adv-x="588" d="M10 -96q0 61 41 97.5t114 36.5h78v77q-82 13 -130 66t-48 125q0 87 61.5 145.5t162.5 58.5q69 0 120 -28l26 140h110l-93 -171q61 -58 61 -145q0 -76 -52.5 -129.5t-140.5 -62.5v-76h103q71 0 113 -35t42 -99q0 -61 -41 -97t-114 -36h-258q-71 0 -113 35t-42 98zM186 213 q40 -37 103 -37t103 36.5t40 93.5q0 59 -39.5 97t-103.5 38q-63 0 -103 -38t-40 -97q0 -56 40 -93zM121 -139q19 -16 55 -16h237q35 0 55 16t20 44q0 29 -19.5 45t-55.5 16h-237q-35 0 -55 -16t-20 -45q0 -28 20 -44zM210 656q0 52 46 72v58l143 95v-82l-99 -64 q32 -3 52.5 -24.5t20.5 -54.5q0 -35 -23.5 -56.5t-58.5 -21.5q-34 0 -57.5 21.5t-23.5 56.5z"/>
    <glyph glyph-name="Hbar" unicode="Ħ" horiz-adv-x="846" d="M30 535v55h60v110h93v-110h481v110h92v-110h61v-55h-61v-535h-92v311h-481v-311h-93v535h-60zM183 390h481v145h-481v-145z"/>
    <glyph glyph-name="hbar" unicode="ħ" horiz-adv-x="598" d="M23 602v67h52v81l88 50v-131h236v-67h-236v-102h360v-500h-87v423h-273v-423h-88v602h-52z"/>
    <glyph glyph-name="Imacron" unicode="Ī" horiz-adv-x="617" d="M60 0v79h203v542h-203v79h497v-79h-202v-542h202v-79h-497zM161 823v70h296v-70h-296z"/>
    <glyph glyph-name="imacron" unicode="ī" horiz-adv-x="238" d="M-29 693h296v-70h-296v70zM163 500v-500h-88v500h88z"/>
    <glyph glyph-name="Iogonek" unicode="Į" horiz-adv-x="617" d="M60 700h497v-79h-202v-542h202v-79h-78q-52 -23 -52 -70q0 -28 20.5 -44t55.5 -16q32 0 55 10l-1 -58q-28 -13 -70 -13q-57 0 -90.5 27t-33.5 73q0 57 50 91h-353v79h203v542h-203v79z"/>
    <glyph glyph-name="iogonek" unicode="į" horiz-adv-x="238" d="M48 -91q0 57 50 91h-23v500h88v-500h1q-52 -23 -52 -70q0 -28 20.5 -44t55.5 -16q32 0 55 10l-1 -58q-28 -13 -70 -13q-57 0 -90.5 27t-33.5 73zM56 722q25 23 62 23t61.5 -23t24.5 -60q0 -36 -25 -59.5t-61 -23.5q-37 0 -62 23t-25 60t25 60z"/>
    <glyph glyph-name="Idotaccent" unicode="İ" horiz-adv-x="617" d="M263 79v542h-203v79h497v-79h-202v-542h202v-79h-497v79h203zM246 922q25 23 62 23t61.5 -23t24.5 -60q0 -36 -25 -59.5t-61 -23.5q-37 0 -62 23t-25 60t25 60z"/>
    <glyph glyph-name="dotlessi" unicode="ı" horiz-adv-x="238" d="M163 500v-500h-88v500h88z"/>
    <glyph glyph-name="ij" unicode="ĳ" horiz-adv-x="434" d="M32 659q0 37 26 60t67 23q35 0 59.5 -17.5t32.5 -47.5q8 30 32.5 47.5t59.5 17.5q41 0 67 -23t26 -60t-25.5 -60t-66.5 -23q-35 0 -60 18t-33 47q-8 -29 -33.5 -47t-59.5 -18q-41 0 -66.5 23t-25.5 60zM75 0v500h88v-500h-88zM272 -200v700h87v-700h-87z"/>
    <glyph glyph-name="uni0136" unicode="Ķ" horiz-adv-x="775" d="M90 700h93v-295h268l178 295h118l-228 -323l241 -377h-109l-203 321h-265v-321h-93v700zM313 -301v71l83 48q-30 2 -48.5 19.5t-18.5 45.5q0 29 20 47t51 18t51 -18t20 -47q0 -44 -41 -60v-55z"/>
    <glyph glyph-name="uni0137" unicode="ķ" horiz-adv-x="583" d="M163 800v-500h186l117 200h111l-157 -220l161 -280h-104l-128 223h-186v-223h-88v745zM217 -230l83 48q-30 2 -48.5 19.5t-18.5 45.5q0 29 20 47t51 18t51 -18t20 -47q0 -44 -41 -60v-55l-117 -69v71z"/>
    <glyph glyph-name="Lacute" unicode="Ĺ" horiz-adv-x="652" d="M301 937v-81l-246 -63v80zM90 0v700h93v-621h424v-79h-517z"/>
    <glyph glyph-name="lacute" unicode="ĺ" horiz-adv-x="238" d="M204 1037v-81l-246 -63v80zM163 800v-800h-88v745z"/>
    <glyph glyph-name="uni013B" unicode="Ļ" horiz-adv-x="652" d="M90 0v700h93v-621h424v-79h-517zM345 -182q-30 2 -48.5 19.5t-18.5 45.5q0 29 20 47t51 18t51 -18t20 -47q0 -44 -41 -60v-55l-117 -69v71z"/>
    <glyph glyph-name="uni013C" unicode="ļ" horiz-adv-x="238" d="M75 745l88 55v-800h-88v745zM77 -182q-30 2 -48.5 19.5t-18.5 45.5q0 29 20 47t51 18t51 -18t20 -47q0 -44 -41 -60v-55l-117 -69v71z"/>
    <glyph glyph-name="Lcaron" unicode="Ľ" horiz-adv-x="652" d="M90 0v700h93v-621h424v-79h-517zM439 431h-79v229l79 40v-269z"/>
    <glyph glyph-name="lcaron" unicode="ľ" horiz-adv-x="359" d="M163 800v-800h-88v745zM339 531h-79v229l79 40v-269z"/>
    <glyph glyph-name="Lslash" unicode="Ł" horiz-adv-x="652" d="M0 426l90 23v251h93v-226l163 42v-75l-163 -42v-320h424v-79h-517v374l-90 -23v75z"/>
    <glyph glyph-name="lslash" unicode="ł" horiz-adv-x="265" d="M103 488v257l88 55v-289l75 20v-75l-75 -20v-436h-88v413l-105 -27v75z"/>
    <glyph glyph-name="Nacute" unicode="Ń" horiz-adv-x="885" d="M206 700l498 -551v551h91v-700h-95l-518 574v-574h-92v700h116zM320 873l246 64v-81l-246 -63v80z"/>
    <glyph glyph-name="nacute" unicode="ń" horiz-adv-x="598" d="M523 500v-500h-87v423h-273v-423h-88v500h448zM186 673l246 64v-81l-246 -63v80z"/>
    <glyph glyph-name="uni0145" unicode="Ņ" horiz-adv-x="885" d="M90 700h116l498 -551v551h91v-700h-95l-518 574v-574h-92v700zM439 -182q-30 2 -48.5 19.5t-18.5 45.5q0 29 20 47t51 18t51 -18t20 -47q0 -44 -41 -60v-55l-117 -69v71z"/>
    <glyph glyph-name="uni0146" unicode="ņ" horiz-adv-x="598" d="M75 500h448v-500h-87v423h-273v-423h-88v500zM305 -182q-30 2 -48.5 19.5t-18.5 45.5q0 29 20 47t51 18t51 -18t20 -47q0 -44 -41 -60v-55l-117 -69v71z"/>
    <glyph glyph-name="Ncaron" unicode="Ň" horiz-adv-x="885" d="M90 700h116l498 -551v551h91v-700h-95l-518 574v-574h-92v700zM443 871l169 71v-80l-169 -72l-168 72v80z"/>
    <glyph glyph-name="ncaron" unicode="ň" horiz-adv-x="598" d="M75 0v500h448v-500h-87v423h-273v-423h-88zM141 742l168 -71l169 71v-80l-169 -72l-168 72v80z"/>
    <glyph glyph-name="Eng" unicode="Ŋ" horiz-adv-x="885" d="M206 700l498 -551v551h91v-743q0 -75 -46.5 -120.5t-125.5 -45.5q-56 0 -96 21t-55 59l67 37q14 -44 75 -44q40 0 63 21t23 57v58l-518 574v-574h-92v700h116z"/>
    <glyph glyph-name="eng" unicode="ŋ" horiz-adv-x="598" d="M523 500v-552q0 -72 -45.5 -114.5t-126.5 -42.5q-56 0 -96 21t-55 59l67 37q14 -44 79 -44q42 0 66 23t24 63v473h-273v-423h-88v500h448z"/>
    <glyph glyph-name="Omacron" unicode="Ō" horiz-adv-x="896" d="M169 607q108 103 279 103t279.5 -103.5t108.5 -256.5q0 -154 -108 -257q-109 -103 -280 -103t-279.5 103.5t-108.5 256.5t109 257zM157 350q0 -118 82 -196t209 -78q129 0 210 77.5t81 196.5q0 118 -82 196.5t-209 78.5t-209 -78.5t-82 -196.5zM359 350q0 36 24.5 61 t64.5 25t64.5 -25t24.5 -61q0 -37 -24.5 -61.5t-64.5 -24.5t-64 25q-25 24 -25 61zM300 823v70h296v-70h-296z"/>
    <glyph glyph-name="omacron" unicode="ō" horiz-adv-x="650" d="M45 250q0 110 78.5 185t201.5 75t201.5 -75t78.5 -185t-78 -185q-79 -75 -202 -75t-201.5 75t-78.5 185zM186 120q55 -53 139 -53q85 0 140 52t55 131t-55 131t-140 52q-84 0 -139 -52t-55 -131q0 -78 55 -130zM473 693v-70h-296v70h296zM271 198q-22 21 -22 52 t21.5 52.5t54.5 21.5q34 0 55.5 -21.5t21.5 -52.5t-21.5 -52t-55.5 -21q-33 0 -54 21z"/>
    <glyph glyph-name="Ohungarumlaut" unicode="Ő" horiz-adv-x="896" d="M60 350q0 153 108.5 256.5t279.5 103.5t279.5 -103.5t108.5 -256.5q0 -154 -108 -257q-109 -103 -280 -103t-279.5 103.5t-108.5 256.5zM157 350q0 -118 82 -196t209 -78q129 0 210 77.5t81 196.5q0 118 -82 196.5t-209 78.5t-209 -78.5t-82 -196.5zM257 789v81l199 63 v-50l180 57v-80l-199 -64v51zM359 350q0 36 24.5 61t64.5 25t64.5 -25t24.5 -61q0 -37 -24.5 -61.5t-64.5 -24.5t-64 25q-25 24 -25 61z"/>
    <glyph glyph-name="ohungarumlaut" unicode="ő" horiz-adv-x="650" d="M45 250q0 110 78.5 185t201.5 75t201.5 -75t78.5 -185t-78 -185q-79 -75 -202 -75t-201.5 75t-78.5 185zM186 120q55 -53 139 -53q85 0 140 52t55 131t-55 131t-140 52q-84 0 -139 -52t-55 -131q0 -78 55 -130zM134 670l199 63v-50l180 57v-80l-199 -64v51l-180 -58v81z M249 250q0 31 21.5 52.5t54.5 21.5q34 0 55.5 -21.5t21.5 -52.5t-21.5 -52t-55.5 -21q-33 0 -54.5 21t-21.5 52z"/>
    <glyph glyph-name="OE" unicode="Œ" horiz-adv-x="1131" d="M60 349q0 161 88.5 256t248.5 95h670v-79h-463v-229h453v-77h-453v-236h468v-79h-675q-154 0 -245.5 92t-91.5 257zM223 152q66 -73 185 -73h103v542h-103q-118 0 -184.5 -71.5t-66.5 -199.5q0 -126 66 -198z"/>
    <glyph glyph-name="oe" unicode="œ" horiz-adv-x="1118" d="M124 435q78 75 201 75q77 0 139 -31.5t99 -85.5q36 54 97.5 85.5t139.5 31.5q123 0 201.5 -75t78.5 -185v-6h-469q2 -74 55.5 -123t133.5 -49q65 0 113 32.5t67 86.5l85 -28q-27 -78 -97.5 -125.5t-167.5 -47.5q-78 0 -139.5 31.5t-97.5 85.5q-37 -54 -99 -85.5 t-139 -31.5q-123 0 -201.5 75t-78.5 185t79 185zM131 250q0 -78 55 -130.5t139 -52.5q85 0 140 52t55 131t-55 131t-140 52q-84 0 -139 -52t-55 -131zM616 292h369q-14 61 -64.5 98.5t-120.5 37.5t-120 -37.5t-64 -98.5zM271 303q21 21 54 21q34 0 55.5 -21.5t21.5 -52.5 t-21.5 -52t-55.5 -21q-33 0 -54.5 21t-21.5 52t22 53z"/>
    <glyph glyph-name="Racute" unicode="Ŕ" horiz-adv-x="788" d="M90 700h413q108 0 173.5 -54.5t65.5 -147.5q0 -92 -64 -147t-171 -55h-4l-151 1l401 -297h-140l-430 324v-324h-93v700zM183 621v-257h314q69 0 109 33t40 96q0 59 -38 93.5t-111 34.5h-314zM284 873l246 64v-81l-246 -63v80z"/>
    <glyph glyph-name="racute" unicode="ŕ" horiz-adv-x="430" d="M327 737v-81l-246 -63v80zM75 0v500h330v-77h-242v-423h-88z"/>
    <glyph glyph-name="uni0156" unicode="Ŗ" horiz-adv-x="788" d="M90 0v700h413q108 0 173.5 -54.5t65.5 -147.5q0 -92 -64 -147t-171 -55h-4l-151 1l401 -297h-140l-430 324v-324h-93zM183 364h314q69 0 109 33t40 96q0 59 -38 93.5t-111 34.5h-314v-257zM403 -182q-30 2 -48.5 19.5t-18.5 45.5q0 29 20 47t51 18t51 -18t20 -47 q0 -44 -41 -60v-55l-117 -69v71z"/>
    <glyph glyph-name="uni0157" unicode="ŗ" horiz-adv-x="430" d="M75 0v500h330v-77h-242v-423h-88zM111 -182q-30 2 -48.5 19.5t-18.5 45.5q0 29 20 47t51 18t51 -18t20 -47q0 -44 -41 -60v-55l-117 -69v71z"/>
    <glyph glyph-name="Rcaron" unicode="Ř" horiz-adv-x="788" d="M90 700h413q108 0 173.5 -54.5t65.5 -147.5q0 -92 -64 -147t-171 -55h-4l-151 1l401 -297h-140l-430 324v-324h-93v700zM183 621v-257h314q69 0 109 33t40 96q0 59 -38 93.5t-111 34.5h-314zM239 942l168 -71l169 71v-80l-169 -72l-168 72v80z"/>
    <glyph glyph-name="rcaron" unicode="ř" horiz-adv-x="430" d="M36 742l168 -71l169 71v-80l-169 -72l-168 72v80zM75 0v500h330v-77h-242v-423h-88z"/>
    <glyph glyph-name="Sacute" unicode="Ś" horiz-adv-x="592" d="M130 180q17 -54 63 -84t106 -30q69 0 114.5 34t45.5 92q0 44 -27.5 73.5t-80.5 39.5l-114 21q-88 17 -134 64.5t-46 117.5q0 89 69 145.5t179 56.5q88 0 153.5 -42t91.5 -115l-86 -29q-16 51 -60 81t-102 30q-66 0 -106.5 -32.5t-40.5 -83.5q0 -46 32 -73t83 -37l122 -23 q78 -16 121 -65t43 -120q0 -95 -73.5 -152.5t-185.5 -57.5q-92 0 -161 43t-97 117zM419 937v-81l-246 -63v80z"/>
    <glyph glyph-name="sacute" unicode="ś" horiz-adv-x="465" d="M119 139q9 -37 39.5 -58t71.5 -21q49 0 78.5 21.5t29.5 60.5q0 56 -78 72l-78 16q-131 26 -131 133q0 67 52.5 108.5t136.5 41.5q66 0 115 -30t66 -81l-72 -36q-8 35 -38.5 56.5t-70.5 21.5q-47 0 -74 -20.5t-27 -54.5q0 -52 82 -70l76 -16q129 -26 129 -135 q0 -71 -54 -114.5t-144 -43.5q-69 0 -120.5 31t-69.5 84zM108 593v80l246 64v-81z"/>
    <glyph glyph-name="Scedilla" unicode="Ş" horiz-adv-x="592" d="M130 180q17 -54 63 -84t106 -30q69 0 114.5 34t45.5 92q0 44 -27.5 73.5t-80.5 39.5l-114 21q-88 17 -134 64.5t-46 117.5q0 89 69 145.5t179 56.5q88 0 153.5 -42t91.5 -115l-86 -29q-16 51 -60 81t-102 30q-66 0 -106.5 -32.5t-40.5 -83.5q0 -46 32 -73t83 -37l122 -23 q78 -16 121 -65t43 -120q0 -88 -63.5 -144.5t-163.5 -64.5v-43q14 2 22 2q42 0 71 -27t29 -69q0 -50 -34.5 -79.5t-88.5 -29.5q-47 0 -81.5 25t-43.5 63l65 16q4 -22 20 -35t40 -13q26 0 41.5 14t15.5 37t-14.5 37t-38.5 14t-37 -11l-32 8v92q-80 8 -139.5 49.5t-84.5 108.5 z"/>
    <glyph glyph-name="scedilla" unicode="ş" horiz-adv-x="465" d="M38 105l81 34q9 -37 39.5 -58t71.5 -21q49 0 78.5 21.5t29.5 60.5q0 56 -78 72l-78 16q-131 26 -131 133q0 67 52.5 108.5t136.5 41.5q66 0 115 -30t66 -81l-72 -36q-8 35 -38.5 56.5t-70.5 21.5q-47 0 -74 -20.5t-27 -54.5q0 -52 82 -70l76 -16q129 -26 129 -135 q0 -63 -43.5 -105t-118.5 -51v-43q14 2 22 2q42 0 71 -27t29 -69q0 -50 -34.5 -79.5t-88.5 -29.5q-47 0 -81.5 25t-43.5 63l65 16q4 -22 20 -35t40 -13q26 0 41.5 14t15.5 37t-14.5 37t-38.5 14t-37 -11l-32 8v91q-59 6 -101.5 36t-58.5 77z"/>
    <glyph glyph-name="Scaron" unicode="Š" horiz-adv-x="592" d="M130 180q17 -54 63 -84t106 -30q69 0 114.5 34t45.5 92q0 44 -27.5 73.5t-80.5 39.5l-114 21q-88 17 -134 64.5t-46 117.5q0 89 69 145.5t179 56.5q88 0 153.5 -42t91.5 -115l-86 -29q-16 51 -60 81t-102 30q-66 0 -106.5 -32.5t-40.5 -83.5q0 -46 32 -73t83 -37l122 -23 q78 -16 121 -65t43 -120q0 -95 -73.5 -152.5t-185.5 -57.5q-92 0 -161 43t-97 117zM296 871l169 71v-80l-169 -72l-168 72v80z"/>
    <glyph glyph-name="scaron" unicode="š" horiz-adv-x="465" d="M119 139q9 -37 39.5 -58t71.5 -21q49 0 78.5 21.5t29.5 60.5q0 56 -78 72l-78 16q-131 26 -131 133q0 67 52.5 108.5t136.5 41.5q66 0 115 -30t66 -81l-72 -36q-8 35 -38.5 56.5t-70.5 21.5q-47 0 -74 -20.5t-27 -54.5q0 -52 82 -70l76 -16q129 -26 129 -135 q0 -71 -54 -114.5t-144 -43.5q-69 0 -120.5 31t-69.5 84zM231 671l169 71v-80l-169 -72l-168 72v80z"/>
    <glyph glyph-name="uni0162" unicode="Ţ" horiz-adv-x="706" d="M668 700v-79h-268v-621h-14v-51q14 2 22 2q42 0 71 -27t29 -69q0 -50 -34.5 -79.5t-88.5 -29.5q-47 0 -81.5 25t-43.5 63l65 16q4 -22 20 -35t40 -13q26 0 41.5 14t15.5 37t-14.5 37t-38.5 14t-37 -11l-32 8v99h-13v621h-269v79h630z"/>
    <glyph glyph-name="uni0163" unicode="ţ" horiz-adv-x="470" d="M30 500h158v155l88 55v-210h163l1 -77h-164v-423h-8v-51q14 2 22 2q42 0 71 -27t29 -69q0 -50 -34.5 -79.5t-88.5 -29.5q-47 0 -81.5 25t-43.5 63l65 16q4 -22 20 -35t40 -13q26 0 41.5 14t15.5 37t-14.5 37t-38.5 14t-37 -11l-32 8v99h-14v423h-158v77z"/>
    <glyph glyph-name="Tcaron" unicode="Ť" horiz-adv-x="706" d="M38 621v79h630v-79h-268v-621h-93v621h-269zM185 862v80l168 -71l169 71v-80l-169 -72z"/>
    <glyph glyph-name="tcaron" unicode="ť" horiz-adv-x="470" d="M30 500h158v155l88 55v-210h163l1 -77h-164v-423h-88v423h-158v77zM360 581v179l80 40l-1 -219h-79z"/>
    <glyph glyph-name="Tbar" unicode="Ŧ" horiz-adv-x="706" d="M38 621v79h630v-79h-268v-238h181v-67h-181v-316h-93v316h-184v67h184v238h-269z"/>
    <glyph glyph-name="tbar" unicode="ŧ" horiz-adv-x="470" d="M30 423v77h158v155l88 55v-210h163l1 -77h-164v-173h163v-67h-163v-183h-88v183h-158v67h158v173h-158z"/>
    <glyph glyph-name="Umacron" unicode="Ū" horiz-adv-x="763" d="M83 263v437h93v-427q0 -91 55.5 -145t150.5 -54t150.5 54t55.5 145v427h92v-437q0 -123 -82.5 -198t-216.5 -75t-216 75t-82 198zM234 823v70h296v-70h-296z"/>
    <glyph glyph-name="umacron" unicode="ū" horiz-adv-x="608" d="M70 500h88v-296q0 -65 39 -101t107 -36q70 0 108.5 36.5t38.5 100.5v296h87v-301q0 -99 -63.5 -154t-170.5 -55q-111 0 -172.5 57t-61.5 152v301zM156 623v70h296v-70h-296z"/>
    <glyph glyph-name="Uring" unicode="Ů" horiz-adv-x="763" d="M83 700h93v-427q0 -91 55.5 -145t150.5 -54t150.5 54t55.5 145v427h92v-437q0 -123 -82.5 -198t-216.5 -75t-216 75t-82 198v437zM262 881q0 48 33 76.5t87 28.5t87 -28.5t33 -76.5t-33 -76q-33 -29 -87 -29t-87 28.5t-33 76.5zM345 847q14 -13 37 -13t37 12.5t14 34.5 q0 21 -14.5 34.5t-36.5 13.5t-36.5 -13.5t-14.5 -34.5q0 -22 14 -34z"/>
    <glyph glyph-name="uring" unicode="ů" horiz-adv-x="608" d="M158 500v-296q0 -65 39 -101t107 -36q70 0 108.5 36.5t38.5 100.5v296h87v-301q0 -99 -63.5 -154t-170.5 -55q-111 0 -172.5 57t-61.5 152v301h88zM184 681q0 48 33 76.5t87 28.5t87 -28.5t33 -76.5t-33 -76q-33 -29 -87 -29t-87 28.5t-33 76.5zM253 681q0 -22 14 -34 q14 -13 37 -13t37 12.5t14 34.5q0 21 -14.5 34.5t-36.5 13.5t-36.5 -13.5t-14.5 -34.5z"/>
    <glyph glyph-name="Uhungarumlaut" unicode="Ű" horiz-adv-x="763" d="M176 700v-427q0 -91 55.5 -145t150.5 -54t150.5 54t55.5 145v427h92v-437q0 -123 -82.5 -198t-216.5 -75t-216 75t-82 198v437h93zM191 870l199 63v-50l180 57v-80l-199 -64v51l-180 -58v81z"/>
    <glyph glyph-name="uhungarumlaut" unicode="ű" horiz-adv-x="608" d="M70 199v301h88v-296q0 -65 39 -101t107 -36q70 0 108.5 36.5t38.5 100.5v296h87v-301q0 -99 -63.5 -154t-170.5 -55q-111 0 -172.5 57t-61.5 152zM312 733v-50l180 57v-80l-199 -64v51l-180 -58v81z"/>
    <glyph glyph-name="Uogonek" unicode="Ų" horiz-adv-x="763" d="M83 700h93v-427q0 -91 55.5 -145t150.5 -54t150.5 54t55.5 145v427h92v-437q0 -118 -76 -192t-201 -80q-35 -24 -35 -61q0 -28 20.5 -44t55.5 -16q32 0 55 10l-1 -58q-28 -13 -70 -13q-57 0 -90.5 27t-33.5 73q0 48 39 83q-119 11 -189.5 84t-70.5 187v437z"/>
    <glyph glyph-name="uogonek" unicode="ų" horiz-adv-x="608" d="M70 500h88v-296q0 -65 39 -101t107 -36q70 0 108.5 36.5t38.5 100.5v296h87v-301q0 -97 -61 -152t-164 -57q-34 -23 -34 -60q0 -28 20.5 -44t55.5 -16q32 0 55 10l-1 -58q-28 -13 -70 -13q-57 0 -90.5 27t-33.5 73q0 52 41 84q-89 12 -137.5 67t-48.5 139v301z"/>
    <glyph glyph-name="Wcircumflex" unicode="Ŵ" horiz-adv-x="1139" d="M33 700h105l162 -586l219 586h102l218 -586l162 586h105l-203 -700h-114l-219 562l-219 -562h-115zM400 871l168 71l169 -71v-81l-169 72l-168 -72v81z"/>
    <glyph glyph-name="wcircumflex" unicode="ŵ" horiz-adv-x="884" d="M15 500h100l127 -381l161 381h79l160 -381l127 381h100l-175 -500h-88l-163 371l-162 -371h-91zM442 764l169 -71v-81l-169 72l-168 -72v81z"/>
    <glyph glyph-name="Ycircumflex" unicode="Ŷ" horiz-adv-x="794" d="M127 700l270 -292l270 292h119l-342 -363v-337h-93v337l-343 363h119zM229 790v81l168 71l169 -71v-81l-169 72z"/>
    <glyph glyph-name="ycircumflex" unicode="ŷ" horiz-adv-x="599" d="M75 4v9h87v-13q0 -62 36 -95t101 -33q66 0 101.5 33t35.5 95v143h-361v357h87v-280h274v280h88v-496q0 -102 -60 -155.5t-165 -53.5q-108 0 -166 55t-58 154zM131 671l168 71l169 -71v-81l-169 72l-168 -72v81z"/>
    <glyph glyph-name="Ydieresis" unicode="Ÿ" horiz-adv-x="794" d="M127 700l270 -292l270 292h119l-342 -363v-337h-93v337l-343 363h119zM435 862q0 37 24.5 60t61.5 23t62 -23t25 -60q0 -36 -25 -59q-25 -24 -62 -24t-61.5 23t-24.5 60zM186 862q0 37 25 60t62 23t61.5 -23t24.5 -60q0 -36 -25 -59.5t-61 -23.5q-37 0 -62 23t-25 60z "/>
    <glyph glyph-name="Zacute" unicode="Ź" horiz-adv-x="716" d="M481 937v-81l-246 -63v80zM68 0v79l444 542h-434v79h550v-79l-443 -542h463v-79h-580z"/>
    <glyph glyph-name="zacute" unicode="ź" horiz-adv-x="576" d="M414 737v-81l-246 -63v80zM538 0h-485v78l356 344h-346v78h460v-78l-356 -344h371v-78z"/>
    <glyph glyph-name="Zdotaccent" unicode="Ż" horiz-adv-x="716" d="M68 79l444 542h-434v79h550v-79l-443 -542h463v-79h-580v79zM270 862q0 37 25 60t62 23t61.5 -23t24.5 -60q0 -36 -25 -59.5t-61 -23.5q-37 0 -62 23t-25 60z"/>
    <glyph glyph-name="zdotaccent" unicode="ż" horiz-adv-x="576" d="M53 0v78l356 344h-346v78h460v-78l-356 -344h371v-78h-485zM228 722q25 23 62 23t61.5 -23t24.5 -60q0 -36 -25 -59.5t-61 -23.5q-37 0 -62 23t-25 60t25 60z"/>
    <glyph glyph-name="Zcaron" unicode="Ž" horiz-adv-x="716" d="M190 942l168 -71l169 71v-80l-169 -72l-168 72v80zM68 0v79l444 542h-434v79h550v-79l-443 -542h463v-79h-580z"/>
    <glyph glyph-name="zcaron" unicode="ž" horiz-adv-x="576" d="M123 742l168 -71l169 71v-80l-169 -72l-168 72v80zM538 0h-485v78l356 344h-346v78h460v-78l-356 -344h371v-78z"/>
    <glyph glyph-name="uni0218" unicode="Ș" horiz-adv-x="592" d="M39 151l91 29q17 -54 63 -84t106 -30q69 0 114.5 34t45.5 92q0 44 -27.5 73.5t-80.5 39.5l-114 21q-88 17 -134 64.5t-46 117.5q0 89 69 145.5t179 56.5q88 0 153.5 -42t91.5 -115l-86 -29q-16 51 -60 81t-102 30q-66 0 -106.5 -32.5t-40.5 -83.5q0 -46 32 -73t83 -37 l122 -23q78 -16 121 -65t43 -120q0 -95 -73.5 -152.5t-185.5 -57.5q-92 0 -161 43t-97 117zM292 -182q-30 2 -48.5 19.5t-18.5 45.5q0 29 20 47t51 18t51 -18t20 -47q0 -44 -41 -60v-55l-117 -69v71z"/>
    <glyph glyph-name="uni0219" unicode="ș" horiz-adv-x="465" d="M38 105l81 34q9 -37 39.5 -58t71.5 -21q49 0 78.5 21.5t29.5 60.5q0 56 -78 72l-78 16q-131 26 -131 133q0 67 52.5 108.5t136.5 41.5q66 0 115 -30t66 -81l-72 -36q-8 35 -38.5 56.5t-70.5 21.5q-47 0 -74 -20.5t-27 -54.5q0 -52 82 -70l76 -16q129 -26 129 -135 q0 -71 -54 -114.5t-144 -43.5q-69 0 -120.5 31t-69.5 84zM227 -182q-30 2 -48.5 19.5t-18.5 45.5q0 29 20 47t51 18t51 -18t20 -47q0 -44 -41 -60v-55l-117 -69v71z"/>
    <glyph glyph-name="uni021A" unicode="Ț" horiz-adv-x="706" d="M38 621v79h630v-79h-268v-621h-93v621h-269zM349 -182q-30 2 -48.5 19.5t-18.5 45.5q0 29 20 47t51 18t51 -18t20 -47q0 -44 -41 -60v-55l-117 -69v71z"/>
    <glyph glyph-name="uni021B" unicode="ț" horiz-adv-x="470" d="M188 500v155l88 55v-210h163l1 -77h-164v-423h-88v423h-158v77h158zM148 -301v71l83 48q-30 2 -48.5 19.5t-18.5 45.5q0 29 20 47t51 18t51 -18t20 -47q0 -44 -41 -60v-55z"/>
    <glyph glyph-name="circumflex" unicode="ˆ" horiz-adv-x="397" d="M30 590v81l168 71l169 -71v-81l-169 72z"/>
    <glyph glyph-name="caron" unicode="ˇ" horiz-adv-x="397" d="M30 742l168 -71l169 71v-80l-169 -72l-168 72v80z"/>
    <glyph glyph-name="breve" unicode="˘" horiz-adv-x="382" d="M191 598q-72 0 -116.5 36t-44.5 95v21h79v-16q0 -32 22.5 -50.5t59.5 -18.5q38 0 60.5 19t22.5 50v16h78v-21q0 -59 -44 -95t-117 -36z"/>
    <glyph glyph-name="dotaccent" unicode="˙" horiz-adv-x="233" d="M117 579q-37 0 -62 23t-25 60t25 60t62 23t61.5 -23t24.5 -60q0 -36 -25 -59.5t-61 -23.5z"/>
    <glyph glyph-name="ring" unicode="˚" horiz-adv-x="262" d="M131 576q-54 0 -87 28.5t-33 76.5t33 76.5t87 28.5t87 -28.5t33 -76.5t-33 -76.5t-87 -28.5zM131 634q23 0 37 12.5t14 34.5q0 21 -14.5 34.5t-36.5 13.5t-36.5 -13.5t-14.5 -34.5q0 -22 14 -34.5t37 -12.5z"/>
    <glyph glyph-name="ogonek" unicode="˛" horiz-adv-x="255" d="M154 -191q-57 0 -90.5 27t-33.5 73q0 57 50 91h66q-52 -23 -52 -70q0 -28 20.5 -44t55.5 -16q32 0 55 10l-1 -58q-28 -13 -70 -13z"/>
    <glyph glyph-name="tilde" unicode="˜" horiz-adv-x="377" d="M103 595q-33 0 -53 20.5t-20 54.5v95h69v-70q0 -26 20 -26q15 0 36 26l31 36q37 42 81 42q36 0 58 -23.5t22 -62.5v-89h-69v67q0 33 -25 33q-4 0 -8.5 -1t-7 -2.5t-6.5 -5t-6 -5.5t-6.5 -7t-6.5 -7l-34 -39q-34 -36 -75 -36z"/>
    <glyph glyph-name="hungarumlaut" unicode="˝" horiz-adv-x="439" d="M30 589v81l199 63v-50l180 57v-80l-199 -64v51z"/>
    <glyph glyph-name="gravecomb" unicode="̀" horiz-adv-x="0" d="M-341 737l246 -64v-80l-246 63v81z"/>
    <glyph glyph-name="acutecomb" unicode="́" horiz-adv-x="0" d="M-95 737v-81l-246 -63v80z"/>
    <glyph glyph-name="uni0302" unicode="̂" horiz-adv-x="0" d="M-392 590v81l168 71l169 -71v-81l-169 72z"/>
    <glyph glyph-name="tildecomb" unicode="̃" horiz-adv-x="0" d="M-360 765h69v-70q0 -26 20 -26q15 0 36 26l31 36q37 42 81 42q36 0 58 -23.5t22 -62.5v-89h-69v67q0 33 -25 33q-4 0 -8.5 -1t-7 -2.5t-6.5 -5t-6 -5.5t-6.5 -7t-6.5 -7l-34 -39q-34 -36 -75 -36q-33 0 -53 20.5t-20 54.5v95z"/>
    <glyph glyph-name="uni0304" unicode="̄" horiz-adv-x="0" d="M-316 693h296v-70h-296v70z"/>
    <glyph glyph-name="uni0306" unicode="̆" horiz-adv-x="0" d="M-435 750h79v-16q0 -32 22.5 -50.5t59.5 -18.5q38 0 60.5 19t22.5 50v16h78v-21q0 -59 -44 -95t-117 -36q-72 0 -116.5 36t-44.5 95v21z"/>
    <glyph glyph-name="uni0307" unicode="̇" horiz-adv-x="0" d="M-209 722q25 23 62 23t61.5 -23t24.5 -60q0 -36 -25 -59.5t-61 -23.5q-37 0 -62 23t-25 60t25 60z"/>
    <glyph glyph-name="uni0308" unicode="̈" horiz-adv-x="0" d="M-210 722q25 23 62 23t62 -23t25 -60q0 -36 -25 -59q-25 -24 -62 -24t-61.5 23t-24.5 60t24 60zM-458 722q25 23 62 23t61.5 -23t24.5 -60q0 -36 -25 -59.5t-61 -23.5q-37 0 -62 23t-25 60t25 60z"/>
    <glyph glyph-name="uni030A" unicode="̊" horiz-adv-x="0" d="M-275 681q0 48 33 76.5t87 28.5t87 -28.5t33 -76.5t-33 -76q-33 -29 -87 -29t-87 28.5t-33 76.5zM-192 647q14 -13 37 -13t37 12.5t14 34.5q0 21 -14.5 34.5t-36.5 13.5t-36.5 -13.5t-14.5 -34.5q0 -22 14 -34z"/>
    <glyph glyph-name="uni030B" unicode="̋" horiz-adv-x="0" d="M-474 589v81l199 63v-50l180 57v-80l-199 -64v51z"/>
    <glyph glyph-name="uni030C" unicode="̌" horiz-adv-x="0" d="M-392 742l168 -71l169 71v-80l-169 -72l-168 72v80z"/>
    <glyph glyph-name="uni0312" unicode="̒" horiz-adv-x="0" d="M-178 728v58l143 95v-82l-99 -64q32 -3 52.5 -24.5t20.5 -54.5q0 -35 -23.5 -56.5t-58.5 -21.5q-34 0 -57.5 21.5t-23.5 56.5q0 52 46 72z"/>
    <glyph glyph-name="uni0326" unicode="̦" horiz-adv-x="0" d="M-440 -230l83 48q-30 2 -48.5 19.5t-18.5 45.5q0 29 20 47t51 18t51 -18t20 -47q0 -44 -41 -60v-55l-117 -69v71z"/>
    <glyph glyph-name="uni0327" unicode="̧" horiz-adv-x="0" d="M-299 -166l65 16q4 -22 20 -35t40 -13q26 0 41.5 14t15.5 37t-14.5 37t-38.5 14t-37 -11l-32 8v111h66v-63q14 2 22 2q42 0 71 -27t29 -69q0 -50 -34.5 -79.5t-88.5 -29.5q-47 0 -81.5 25t-43.5 63z"/>
    <glyph glyph-name="uni0328" unicode="̨" horiz-adv-x="0" d="M-182 0h66q-52 -23 -52 -70q0 -28 20.5 -44t55.5 -16q32 0 55 10l-1 -58q-28 -13 -70 -13q-57 0 -90.5 27t-33.5 73q0 57 50 91z"/>
    <glyph glyph-name="Wgrave" unicode="Ẁ" horiz-adv-x="1139" d="M33 700h105l162 -586l219 586h102l218 -586l162 586h105l-203 -700h-114l-219 562l-219 -562h-115zM445 937l246 -64v-80l-246 63v81z"/>
    <glyph glyph-name="wgrave" unicode="ẁ" horiz-adv-x="884" d="M115 500l127 -381l161 381h79l160 -381l127 381h100l-175 -500h-88l-163 371l-162 -371h-91l-175 500h100zM565 695v-80l-246 63v81z"/>
    <glyph glyph-name="Wacute" unicode="Ẃ" horiz-adv-x="1139" d="M33 700h105l162 -586l219 586h102l218 -586l162 586h105l-203 -700h-114l-219 562l-219 -562h-115zM691 937v-81l-246 -63v80z"/>
    <glyph glyph-name="wacute" unicode="ẃ" horiz-adv-x="884" d="M115 500l127 -381l161 381h79l160 -381l127 381h100l-175 -500h-88l-163 371l-162 -371h-91l-175 500h100zM319 615v80l246 64v-81z"/>
    <glyph glyph-name="Wdieresis" unicode="Ẅ" horiz-adv-x="1139" d="M33 700h105l162 -586l219 586h102l218 -586l162 586h105l-203 -700h-114l-219 562l-219 -562h-115zM606 862q0 37 24.5 60t61.5 23t62 -23t25 -60q0 -36 -25 -59q-25 -24 -62 -24t-61.5 23t-24.5 60zM357 862q0 37 25 60t62 23t61.5 -23t24.5 -60q0 -36 -25 -59.5 t-61 -23.5q-37 0 -62 23t-25 60z"/>
    <glyph glyph-name="wdieresis" unicode="ẅ" horiz-adv-x="884" d="M115 500l127 -381l161 381h79l160 -381l127 381h100l-175 -500h-88l-163 371l-162 -371h-91l-175 500h100zM505 744q24 23 61 23t62 -23t25 -60q0 -36 -25 -59q-25 -24 -62 -24t-61.5 23t-24.5 60t25 60zM231 684q0 37 25 60t62 23t61.5 -23t24.5 -60q0 -36 -25 -59.5 t-61 -23.5q-37 0 -62 23t-25 60z"/>
    <glyph glyph-name="Germandbls" unicode="ẞ" horiz-adv-x="726" d="M435 -9q-52 0 -92 10v77q29 -8 75 -8q80 0 127.5 41t47.5 109q0 60 -41.5 96t-105.5 36q-38 0 -80 -13l-6 65l181 217h-358v-622h-93v701h554v-72l-196 -231q94 22 168 -30t74 -152q0 -104 -72 -164t-183 -60z"/>
    <glyph glyph-name="Ygrave" unicode="Ỳ" horiz-adv-x="794" d="M8 700h119l270 -292l270 292h119l-342 -363v-337h-93v337zM520 873v-80l-246 63v81z"/>
    <glyph glyph-name="ygrave" unicode="ỳ" horiz-adv-x="599" d="M75 4v9h87v-13q0 -62 36 -95t101 -33q66 0 101.5 33t35.5 95v143h-361v357h87v-280h274v280h88v-496q0 -102 -60 -155.5t-165 -53.5q-108 0 -166 55t-58 154zM422 673v-80l-246 63v81z"/>
    <glyph glyph-name="endash" unicode="–" horiz-adv-x="810" d="M120 299h570v-72h-570v72z"/>
    <glyph glyph-name="emdash" unicode="—" horiz-adv-x="1020" d="M75 298h870v-71h-870v71z"/>
    <glyph glyph-name="quoteleft" unicode="‘" horiz-adv-x="273" d="M228 580q0 -37 -24.5 -60t-61.5 -23t-62 23t-25 60q0 27 20 63l85 157h57l-52 -139q28 -7 45.5 -28.5t17.5 -52.5z"/>
    <glyph glyph-name="quoteright" unicode="’" horiz-adv-x="273" d="M45 726q0 37 24.5 60t61.5 23t62 -23t25 -60q0 -27 -20 -63l-85 -157h-57l52 139q-28 7 -45.5 28.5t-17.5 52.5z"/>
    <glyph glyph-name="quotesinglbase" unicode="‚" horiz-adv-x="297" d="M49 75q0 37 24.5 60t61.5 23t62 -23t25 -60q0 -27 -20 -63l-85 -157h-57l52 139q-28 7 -45.5 28.5t-17.5 52.5z"/>
    <glyph glyph-name="quotedblleft" unicode="“" horiz-adv-x="529" d="M228 580q0 -37 -24.5 -60t-61.5 -23t-62 23t-25 60q0 27 20 63l85 157h57l-52 -139q28 -7 45.5 -28.5t17.5 -52.5zM484 580q0 -37 -24.5 -60t-61.5 -23t-62 23t-25 60q0 27 20 63l85 157h57l-52 -139q28 -7 45.5 -28.5t17.5 -52.5z"/>
    <glyph glyph-name="quotedblright" unicode="”" horiz-adv-x="529" d="M45 726q0 37 24.5 60t61.5 23t62 -23t25 -60q0 -27 -20 -63l-85 -157h-57l52 139q-28 7 -45.5 28.5t-17.5 52.5zM301 726q0 37 24.5 60t61.5 23t62 -23t25 -60q0 -27 -20 -63l-85 -157h-57l52 139q-28 7 -45.5 28.5t-17.5 52.5z"/>
    <glyph glyph-name="quotedblbase" unicode="„" horiz-adv-x="553" d="M49 75q0 37 24.5 60t61.5 23t62 -23t25 -60q0 -27 -20 -63l-85 -157h-57l52 139q-28 7 -45.5 28.5t-17.5 52.5zM305 75q0 37 24.5 60t61.5 23t62 -23t25 -60q0 -27 -20 -63l-85 -157h-57l52 139q-28 7 -45.5 28.5t-17.5 52.5z"/>
    <glyph glyph-name="dagger" unicode="†" horiz-adv-x="564" d="M60 475v54l104 26l106 -34l-38 115l30 164h55l30 -164l-38 -115l106 34l104 -25v-55l-104 -26l-106 34l38 -213l-30 -470h-55l-30 470l38 213l-106 -34z"/>
    <glyph glyph-name="daggerdbl" unicode="‡" horiz-adv-x="564" d="M60 231v54l104 26l106 -34l-38 103l38 103l-106 -34l-104 26v54l104 26l106 -34l-38 115l30 164h55l30 -164l-38 -115l106 34l104 -25v-55l-104 -26l-106 34l38 -103l-38 -103l106 34l104 -26v-55l-104 -25l-106 34l38 -115l-30 -324h-55l-30 324l38 115l-106 -34z"/>
    <glyph glyph-name="bullet" unicode="•" horiz-adv-x="534" d="M267 105q-88 0 -147.5 55t-59.5 144q0 88 59.5 143t147.5 55t147.5 -55t59.5 -143q0 -89 -59.5 -144t-147.5 -55z"/>
    <glyph glyph-name="ellipsis" unicode="…" horiz-adv-x="846" d="M98 -9q-37 0 -61.5 23t-24.5 61q0 37 24.5 60t61.5 23t62 -23t25 -60t-25 -60.5t-62 -23.5zM378 -9q-37 0 -61.5 23t-24.5 61q0 37 24.5 60t61.5 23t62 -23t25 -60t-25 -60.5t-62 -23.5zM658 -9q-37 0 -61.5 23t-24.5 61q0 37 24.5 60t61.5 23t62 -23t25 -60t-25 -60.5 t-62 -23.5z"/>
    <glyph glyph-name="perthousand" unicode="‰" horiz-adv-x="1056" d="M823 339q77 0 130 -51t53 -124t-53 -123.5t-130 -50.5q-65 0 -113.5 36t-63.5 93q-15 -57 -63.5 -93t-113.5 -36q-78 0 -130.5 50.5t-52.5 123.5q0 25 8 51l-172 -215h-72l308 387q-43 -26 -97 -26q-78 0 -130.5 50.5t-52.5 123.5t52.5 124t130.5 51t130.5 -51t52.5 -124 q0 -22 -7 -50l171 215h72l-309 -387q45 26 98 26q64 0 113 -36.5t64 -93.5q15 57 64 93.5t113 36.5zM261 427q48 0 80.5 31.5t32.5 76.5q0 46 -32.5 78t-80.5 32q-47 0 -79.5 -32t-32.5 -78q0 -45 32.5 -76.5t79.5 -31.5zM469 56q48 0 80.5 31.5t32.5 76.5q0 46 -32.5 78 t-80.5 32q-47 0 -80 -32t-33 -78q0 -45 33 -76.5t80 -31.5zM823 56q48 0 80.5 31.5t32.5 76.5q0 46 -32.5 78t-80.5 32t-80.5 -32t-32.5 -78q0 -45 32.5 -76.5t80.5 -31.5z"/>
    <glyph glyph-name="guilsinglleft" unicode="‹" horiz-adv-x="319" d="M283 500l-129 -250l129 -250h-193v500h193z"/>
    <glyph glyph-name="guilsinglright" unicode="›" horiz-adv-x="319" d="M36 500h193v-500h-193l129 250z"/>
    <glyph glyph-name="uni203D" unicode="‽" horiz-adv-x="585" d="M77 269v360q43 38 105.5 59.5t129.5 21.5q102 0 165 -51.5t63 -135.5q0 -77 -48.5 -126.5t-134.5 -63.5v-64h-77v114q80 3 125 37.5t45 93.5q0 55 -40.5 87.5t-107.5 32.5q-86 0 -148 -43v-322h-77zM57 75q0 36 24.5 59.5t61.5 23.5q29 0 51 -14.5t30 -39.5 q10 25 32 39.5t50 14.5q37 0 61.5 -23.5t24.5 -59.5t-24.5 -60t-61.5 -24q-29 0 -51.5 15t-30.5 41q-7 -25 -29.5 -40.5t-51.5 -15.5q-37 0 -61.5 24t-24.5 60z"/>
    <glyph glyph-name="fraction" unicode="⁄" horiz-adv-x="251" d="M338 700h53l-478 -700h-53z"/>
    <glyph glyph-name="uni2070" unicode="⁰" horiz-adv-x="663" d="M332 797q119 0 195 -72.5t76 -179.5q0 -108 -76 -180t-195 -72q-120 0 -196 72.5t-76 179.5t76 179.5t196 72.5zM332 723q-82 0 -135 -51t-53 -127q0 -64 37 -109l258 258q-48 29 -107 29zM332 367q83 0 135.5 50.5t52.5 127.5q0 63 -37 109l-258 -258q48 -29 107 -29z "/>
    <glyph glyph-name="uni2074" unicode="⁴" horiz-adv-x="526" d="M38 442v66l263 282h86v-278h86v-70h-86v-142h-81v142h-268zM134 512h172v177z"/>
    <glyph glyph-name="uni2075" unicode="⁵" horiz-adv-x="495" d="M269 619q70 0 116.5 -44t46.5 -114q0 -75 -52 -121.5t-132 -46.5q-70 0 -121 31.5t-67 83.5l76 24q8 -31 37.5 -50t69.5 -19q47 0 76.5 27t29.5 71q0 42 -28.5 68t-73.5 26q-40 0 -70 -18t-40 -50l-73 10l42 293h301v-74h-235l-20 -133q43 36 117 36z"/>
    <glyph glyph-name="uni2076" unicode="⁶" horiz-adv-x="493" d="M263 619q74 0 122 -42.5t48 -113.5q0 -76 -52.5 -123t-136.5 -47q-78 0 -128.5 44.5t-50.5 115.5q0 37 14.5 73.5t45.5 92.5l95 171h93q-43 -75 -113 -184q25 13 63 13zM246 366q47 0 75.5 26.5t28.5 70.5q0 41 -28.5 68t-72.5 27q-46 0 -74 -27.5t-28 -71.5 q0 -42 27 -67.5t72 -25.5z"/>
    <glyph glyph-name="uni2077" unicode="⁷" horiz-adv-x="439" d="M45 716v74h349v-65l-210 -425h-95l217 416h-261z"/>
    <glyph glyph-name="uni2078" unicode="⁸" horiz-adv-x="500" d="M250 293q-84 0 -135.5 41t-51.5 107q0 44 24.5 78t64.5 44q-34 13 -53 41.5t-19 63.5q0 57 47 93t123 36q77 0 124 -36t47 -94q0 -35 -19.5 -63t-52.5 -41q40 -11 64 -44.5t24 -77.5q0 -66 -51.5 -107t-135.5 -41zM250 585q42 0 67 20t25 54t-25 54.5t-67 20.5t-67 -21 t-25 -54q0 -34 25 -54t67 -20zM250 363q49 0 76.5 23t27.5 62t-27.5 62t-76.5 23q-48 0 -75.5 -23t-27.5 -62t27.5 -62t75.5 -23z"/>
    <glyph glyph-name="uni2079" unicode="⁹" horiz-adv-x="496" d="M252 797q79 0 130 -44t51 -114q0 -25 -9.5 -55.5t-19.5 -51t-32 -61.5l-91 -171h-93q46 82 108 183q-27 -12 -62 -12q-74 0 -122 42.5t-48 113.5q0 76 53 123t135 47zM249 532q45 0 73 28t28 72q0 42 -27.5 67.5t-71.5 25.5q-47 0 -75.5 -27t-28.5 -71q0 -41 28.5 -68 t73.5 -27z"/>
    <glyph glyph-name="uni2080" unicode="₀" horiz-adv-x="663" d="M332 407q119 0 195 -72.5t76 -179.5q0 -108 -76 -180t-195 -72q-120 0 -196 72.5t-76 179.5t76 179.5t196 72.5zM332 333q-82 0 -135 -51t-53 -127q0 -64 37 -109l258 258q-48 29 -107 29zM332 -23q83 0 135.5 50.5t52.5 127.5q0 63 -37 109l-258 -258q48 -29 107 -29z "/>
    <glyph glyph-name="uni2081" unicode="₁" horiz-adv-x="490" d="M60 -90v74h151v304l-137 -119v91l165 140h53v-416h138v-74h-370z"/>
    <glyph glyph-name="uni2082" unicode="₂" horiz-adv-x="486" d="M178 -16h248v-74h-366v68l160 126h-7q-66 0 -108 41t-42 104q0 70 51.5 114t130.5 44q75 0 125.5 -41t50.5 -113q0 -37 -16 -68.5t-32.5 -47.5t-45.5 -38zM143 248q0 -41 28 -66.5t72 -25.5q42 0 70 26t28 67t-27.5 65.5t-69.5 24.5q-43 0 -72 -25t-29 -66z"/>
    <glyph glyph-name="uni2083" unicode="₃" horiz-adv-x="471" d="M223 -97q-75 0 -125.5 36.5t-59.5 99.5l81 17q5 -38 32.5 -61t69.5 -23q43 0 69.5 23.5t26.5 59.5q0 33 -21.5 54t-60.5 21h-54v60h51q36 0 58 20t22 53q0 35 -24 55.5t-65 20.5q-36 0 -62 -20.5t-32 -54.5l-75 20q10 55 59 89t117 34q73 0 118.5 -37.5t45.5 -98.5 q0 -40 -21 -69.5t-56 -40.5q38 -9 60.5 -39.5t22.5 -74.5q0 -63 -50.5 -103.5t-126.5 -40.5z"/>
    <glyph glyph-name="uni2084" unicode="₄" horiz-adv-x="526" d="M38 52v66l263 282h86v-278h86v-70h-86v-142h-81v142h-268zM134 122h172v177z"/>
    <glyph glyph-name="uni2085" unicode="₅" horiz-adv-x="495" d="M269 229q70 0 116.5 -44t46.5 -114q0 -75 -52 -121.5t-132 -46.5q-70 0 -121 31.5t-67 83.5l76 24q8 -31 37.5 -50t69.5 -19q47 0 76.5 27t29.5 71q0 42 -28.5 68t-73.5 26q-40 0 -70 -18t-40 -50l-73 10l42 293h301v-74h-235l-20 -133q43 36 117 36z"/>
    <glyph glyph-name="uni2086" unicode="₆" horiz-adv-x="493" d="M263 229q74 0 122 -42.5t48 -113.5q0 -76 -52.5 -123t-136.5 -47q-78 0 -128.5 44.5t-50.5 115.5q0 37 14.5 73.5t45.5 92.5l95 171h93q-43 -75 -113 -184q25 13 63 13zM246 -24q47 0 75.5 26.5t28.5 70.5q0 41 -28.5 68t-72.5 27q-46 0 -74 -27.5t-28 -71.5 q0 -42 27 -67.5t72 -25.5z"/>
    <glyph glyph-name="uni2087" unicode="₇" horiz-adv-x="439" d="M45 326v74h349v-65l-210 -425h-95l217 416h-261z"/>
    <glyph glyph-name="uni2088" unicode="₈" horiz-adv-x="500" d="M250 -97q-84 0 -135.5 41t-51.5 107q0 44 24.5 78t64.5 44q-34 13 -53 41.5t-19 63.5q0 57 47 93t123 36q77 0 124 -36t47 -94q0 -35 -19.5 -63t-52.5 -41q40 -11 64 -44.5t24 -77.5q0 -66 -51.5 -107t-135.5 -41zM250 195q42 0 67 20t25 54t-25 54.5t-67 20.5t-67 -21 t-25 -54q0 -34 25 -54t67 -20zM250 -27q49 0 76.5 23t27.5 62t-27.5 62t-76.5 23q-48 0 -75.5 -23t-27.5 -62t27.5 -62t75.5 -23z"/>
    <glyph glyph-name="uni2089" unicode="₉" horiz-adv-x="496" d="M252 407q79 0 130 -44t51 -114q0 -25 -9.5 -55.5t-19.5 -51t-32 -61.5l-91 -171h-93q46 82 108 183q-27 -12 -62 -12q-74 0 -122 42.5t-48 113.5q0 76 53 123t135 47zM249 142q45 0 73 28t28 72q0 42 -27.5 67.5t-71.5 25.5q-47 0 -75.5 -27t-28.5 -71q0 -41 28.5 -68 t73.5 -27z"/>
    <glyph glyph-name="Euro" unicode="€" horiz-adv-x="940" d="M137 301q-3 24 -3 49t3 49h-107v22h111q25 127 128.5 208t252.5 81q131 0 228.5 -64t136.5 -168l-91 -30q-30 81 -103.5 129t-170.5 48q-106 0 -182 -56.5t-100 -147.5l306 1v-22l-311 -1q-4 -21 -4 -49t4 -49l311 1v-22l-306 -1q23 -91 99.5 -147t182.5 -56 q98 0 171.5 47.5t102.5 129.5l91 -30q-39 -105 -136 -169t-229 -64q-149 0 -252.5 81t-128.5 208h-111v22h107z"/>
    <glyph glyph-name="uni2116" unicode="№" horiz-adv-x="1388" d="M1130 285q-100 0 -164 61t-64 150t64 150t164 61t164 -61t64 -150t-64 -150t-164 -61zM90 0v700h116l498 -551v551h91v-700h-95l-518 574v-574h-92zM1130 354q66 0 109 40.5t43 101.5t-43 101.5t-109 40.5t-108.5 -40.5t-42.5 -101.5t42.5 -101.5t108.5 -40.5z"/>
    <glyph glyph-name="trademark" unicode="™" horiz-adv-x="987" d="M38 643v57h333v-57h-136v-257h-60v257h-137zM449 386v314h96l128 -229l128 229h96v-314h-60v256l-139 -256h-50l-139 256v-256h-60z"/>
    <glyph glyph-name="oneeighth" unicode="⅛" horiz-adv-x="986" d="M31 280v71h125v242l-113 -100v87l141 120h50v-349h114v-71h-317zM717 700h53l-478 -700h-53zM793 -6q-73 0 -117 35.5t-44 92.5q0 37 20 65.5t54 38.5q-28 10 -44 34.5t-16 53.5q0 50 40.5 81t106.5 31t106 -31.5t40 -81.5q0 -29 -16 -53t-43 -34q33 -10 53.5 -38 t20.5 -66q0 -57 -44 -92.5t-117 -35.5zM793 245q32 0 52 16.5t20 44.5q0 27 -20 43.5t-52 16.5q-33 0 -52.5 -16.5t-19.5 -43.5q0 -28 20 -44.5t52 -16.5zM793 60q37 0 59 18.5t22 49.5t-21.5 49.5t-59.5 18.5t-59.5 -18.5t-21.5 -49.5t22 -49.5t59 -18.5z"/>
    <glyph glyph-name="threeeighths" unicode="⅜" horiz-adv-x="965" d="M179 274q-64 0 -108 31t-52 85l78 16q3 -30 25 -48t55 -18q34 0 54.5 18.5t20.5 47.5q0 26 -17 42.5t-48 16.5h-49v57h46q29 0 46.5 16t17.5 43t-19 43.5t-51 16.5q-29 0 -50 -16.5t-25 -43.5l-71 20q9 47 51.5 76t101.5 29q62 0 102 -32.5t40 -84.5q0 -34 -17.5 -59 t-47.5 -35q32 -8 51 -34.5t19 -63.5q0 -54 -43.5 -88.5t-109.5 -34.5zM696 700h53l-478 -700h-53zM772 -6q-72 0 -116.5 35.5t-44.5 92.5q0 37 20 65.5t54 38.5q-28 10 -44 34.5t-16 53.5q0 50 40.5 81t106.5 31t106 -31.5t40 -81.5q0 -29 -16 -53t-43 -34q33 -10 53.5 -38 t20.5 -66q0 -57 -44 -92.5t-117 -35.5zM772 245q32 0 52 16.5t20 44.5q0 27 -20 43.5t-52 16.5q-33 0 -52.5 -16.5t-19.5 -43.5q0 -28 20 -44.5t52 -16.5zM772 60q37 0 59 18.5t22 49.5t-21.5 49.5t-59.5 18.5t-59.5 -18.5t-21.5 -49.5t22 -49.5t59 -18.5z"/>
    <glyph glyph-name="fiveeighths" unicode="⅝" horiz-adv-x="979" d="M350 418q0 -65 -44.5 -104.5t-113.5 -39.5q-60 0 -103.5 27t-57.5 71l72 23q7 -24 30 -39t54 -15q38 0 61 21.5t23 55.5t-23 54.5t-58 20.5q-31 0 -54.5 -14.5t-31.5 -39.5l-70 9l36 252h258v-71h-195l-16 -103q36 28 94 28q59 0 99 -38t40 -98zM710 700h53l-478 -700 h-53zM873 226q33 -10 53.5 -38t20.5 -66q0 -57 -44 -92.5t-117 -35.5q-72 0 -116.5 35.5t-44.5 92.5q0 37 20 65.5t54 38.5q-28 10 -44 34.5t-16 53.5q0 50 40.5 81t106.5 31t106 -31.5t40 -81.5q0 -29 -16 -53t-43 -34zM786 366q-33 0 -52.5 -16.5t-19.5 -43.5 q0 -28 20 -44.5t52 -16.5t52 16.5t20 44.5q0 27 -20 43.5t-52 16.5zM786 60q37 0 59 18.5t22 49.5t-21.5 49.5t-59.5 18.5t-59.5 -18.5t-21.5 -49.5t22 -49.5t59 -18.5z"/>
    <glyph glyph-name="seveneighths" unicode="⅞" horiz-adv-x="872" d="M23 629v71h299v-62l-178 -358h-90l184 349h-215zM603 700h53l-478 -700h-53zM679 -6q-73 0 -117 35.5t-44 92.5q0 37 20 65.5t54 38.5q-28 10 -44 34.5t-16 53.5q0 50 40.5 81t106.5 31t106 -31.5t40 -81.5q0 -29 -16 -53t-43 -34q33 -10 53.5 -38t20.5 -66 q0 -57 -44 -92.5t-117 -35.5zM679 245q32 0 52 16.5t20 44.5q0 27 -20 43.5t-52 16.5q-33 0 -52.5 -16.5t-19.5 -43.5q0 -28 20 -44.5t52 -16.5zM679 60q37 0 59 18.5t22 49.5t-21.5 49.5t-59.5 18.5t-59.5 -18.5t-21.5 -49.5t22 -49.5t59 -18.5z"/>
    <glyph glyph-name="arrowleft" unicode="←" horiz-adv-x="1070" d="M890 340v-61h-626l145 -319h-67l-162 350l162 350h67l-145 -320h626z"/>
    <glyph glyph-name="arrowup" unicode="↑" horiz-adv-x="940" d="M820 548v-67l-319 145v-626h-61v626l-320 -145v67l350 162z"/>
    <glyph glyph-name="arrowright" unicode="→" horiz-adv-x="1070" d="M728 660l162 -350l-162 -350h-67l145 319h-626v61h626l-145 320h67z"/>
    <glyph glyph-name="arrowdown" unicode="↓" horiz-adv-x="940" d="M501 74l319 145v-67l-350 -162l-350 162v67l320 -145v626h61v-626z"/>
    <glyph glyph-name="arrowboth" unicode="↔" horiz-adv-x="1127" d="M180 350l162 350h68l-146 -319h599l-146 319h68l162 -350l-162 -350h-68l146 320h-599l145 -320h-67z"/>
    <glyph glyph-name="arrowupdn" unicode="↕" horiz-adv-x="940" d="M470 670l350 -162v-68l-319 146v-599l319 146v-68l-350 -162l-350 162v68l320 -146v599l-320 -145v67z"/>
    <glyph glyph-name="partialdiff" unicode="∂" horiz-adv-x="607" d="M427 487q73 -65 104 -123t31 -126q0 -109 -75 -177.5t-186 -68.5q-112 0 -184 65t-72 170q0 102 71 168.5t173 66.5q40 0 71 -10l-282 228v122zM303 74q75 0 121.5 44t46.5 113q0 70 -46.5 114t-121.5 44q-72 0 -120 -44.5t-48 -113.5q0 -68 48 -112.5t120 -44.5z"/>
    <glyph glyph-name="emptyset" unicode="∅" horiz-adv-x="866" d="M606 677q100 -43 157.5 -130t57.5 -196q0 -153 -109 -257t-279 -104q-83 0 -153 26l-55 -112h-24l59 120q-100 44 -157.5 131t-57.5 196q0 153 108.5 256.5t279.5 103.5q83 0 153 -26l55 112h24zM147 351q0 -82 41.5 -146t113.5 -97l243 494q-54 19 -112 19 q-125 0 -205.5 -77t-80.5 -193zM433 81q125 0 206 77t81 193q0 81 -41.5 145.5t-113.5 97.5l-243 -494q52 -19 111 -19z"/>
    <glyph glyph-name="product" unicode="∏" horiz-adv-x="998" d="M930 700v-73h-234v-827h-79v827h-235v-827h-79v827h-235v73h862z"/>
    <glyph glyph-name="summation" unicode="∑" horiz-adv-x="642" d="M90 -200v69l142 381l-142 381v69h462v-74h-377l143 -376l-143 -376h377v-74h-462z"/>
    <glyph glyph-name="minus" unicode="−" horiz-adv-x="680" d="M590 365v-79h-500v79h500z"/>
    <glyph glyph-name="radical" unicode="√" horiz-adv-x="642" d="M246 -200l-160 500l84 2l146 -465l254 964l34 -1l-262 -1000h-96z"/>
    <glyph glyph-name="infinity" unicode="∞" horiz-adv-x="1036" d="M743 519q87 0 145 -54t58 -139t-58 -139.5t-145 -54.5q-78 0 -134 45t-67 118h-48q-11 -73 -67 -118t-134 -45q-87 0 -145 54.5t-58 139.5t58 139t145 54q78 0 134 -44.5t67 -117.5h48q11 73 67 117.5t134 44.5zM293 199q58 0 95 35.5t37 91.5q0 55 -37 90.5t-95 35.5 t-94.5 -35t-36.5 -91t36.5 -91.5t94.5 -35.5zM743 199q58 0 95 35.5t37 91.5q0 55 -37 90.5t-95 35.5t-94.5 -35t-36.5 -91t36.5 -91.5t94.5 -35.5z"/>
    <glyph glyph-name="integral" unicode="∫" horiz-adv-x="642" d="M83 -200v73h86q52 0 81 26t29 75v571q0 73 43.5 114t115.5 41h121v-78h-96q-50 0 -77.5 -25.5t-27.5 -71.5v-566q0 -74 -44 -116.5t-120 -42.5h-111z"/>
    <glyph glyph-name="approxequal" unicode="≈" horiz-adv-x="570" d="M187 359q-43 0 -70 27.5t-27 75.5v121h66v-116q0 -38 26 -38q12 0 20.5 8.5t23.5 31.5l41 60q17 21 28.5 32t34 23t47.5 12q46 0 74.5 -31.5t28.5 -86.5v-117h-65v111q0 52 -32 52q-5 0 -10 -1t-9.5 -4.5t-7.5 -5.5t-8 -8t-6.5 -8t-6.5 -10t-6 -9l-41 -60 q-43 -59 -101 -59zM187 81q-43 0 -70 27.5t-27 75.5v121h66v-116q0 -38 26 -38q12 0 20.5 8.5t23.5 31.5l41 60q17 21 28.5 32t34 23t47.5 12q46 0 74.5 -31.5t28.5 -86.5v-117h-65v111q0 52 -32 52q-5 0 -10 -1t-9.5 -4.5t-7.5 -5.5t-8 -8t-6.5 -8t-6.5 -10t-6 -9l-41 -60 q-43 -59 -101 -59z"/>
    <glyph glyph-name="notequal" unicode="≠" horiz-adv-x="720" d="M630 405h-236l-43 -160h279v-80h-301l-77 -287h-24l77 287h-215v80h237l43 160h-280v80h301l77 286h24l-77 -286h215v-80z"/>
    <glyph glyph-name="lessequal" unicode="≤" horiz-adv-x="680" d="M90 357v97l496 175v-82l-399 -141l399 -142v-82zM90 0v75h500v-75h-500z"/>
    <glyph glyph-name="greaterequal" unicode="≥" horiz-adv-x="680" d="M94 182v82l399 141l-399 142v82l496 -175v-97zM90 0v75h500v-75h-500z"/>
    <glyph glyph-name="uni2460" unicode="①" d="M524 -80q-123 0 -228.5 54.5t-170.5 157.5t-65 232t65 231t170.5 156.5t228.5 54.5t228 -54.5t169.5 -156.5t64.5 -231t-64.5 -232t-169.5 -157.5t-228 -54.5zM524 -26q170 0 287.5 111t117.5 279t-117.5 278t-287.5 110t-288 -110.5t-118 -277.5q0 -168 118 -279 t288 -111zM348 128v84h152v278l-132 -115v103l164 140h60v-406h126v-84h-370z"/>
    <glyph glyph-name="uni2461" unicode="②" d="M524 806q123 0 228 -54.5t169.5 -156.5t64.5 -231t-64.5 -232t-169.5 -157.5t-228 -54.5t-228.5 54.5t-170.5 157.5t-65 232t65 231t170.5 156.5t228.5 54.5zM524 -26q170 0 287.5 111t117.5 279t-117.5 278t-287.5 110t-288 -110.5t-118 -277.5q0 -168 118 -279 t288 -111zM609 304l-137 -105h235v-84h-368v77l152 120h-5q-62 0 -102 40t-40 101q0 71 51 115t130 44q77 0 126 -40.5t49 -112.5q0 -53 -23 -86.5t-68 -68.5zM432 452q0 -37 25.5 -60.5t65.5 -23.5t64.5 24t24.5 62q0 36 -24 58.5t-65 22.5q-40 0 -65.5 -23t-25.5 -60z"/>
    <glyph glyph-name="uni2462" unicode="③" d="M524 -80q-123 0 -228.5 54.5t-170.5 157.5t-65 232t65 231t170.5 156.5t228.5 54.5t228 -54.5t169.5 -156.5t64.5 -231t-64.5 -232t-169.5 -157.5t-228 -54.5zM524 -26q170 0 287.5 111t117.5 279t-117.5 278t-287.5 110t-288 -110.5t-118 -277.5q0 -168 118 -279 t288 -111zM529 111q-75 0 -127 36t-62 99l92 20q4 -35 29.5 -55.5t62.5 -20.5q39 0 63 21t24 54q0 29 -19 48t-49 19h-65v70h62q30 0 48 18.5t18 47.5q0 32 -22.5 50.5t-57.5 18.5t-58 -18t-28 -50l-85 23q11 56 59.5 89.5t118.5 33.5q72 0 120 -38t48 -99q0 -40 -21 -69 t-56 -40q38 -10 60.5 -40.5t22.5 -73.5q0 -64 -49 -104t-129 -40z"/>
    <glyph glyph-name="uni2463" unicode="④" d="M524 806q123 0 228 -54.5t169.5 -156.5t64.5 -231t-64.5 -232t-169.5 -157.5t-228 -54.5t-228.5 54.5t-170.5 157.5t-65 232t65 231t170.5 156.5t228.5 54.5zM524 -26q170 0 287.5 111t117.5 279t-117.5 278t-287.5 110t-288 -110.5t-118 -277.5q0 -168 118 -279 t288 -111zM641 608v-275h86v-79h-86v-136h-92v136h-258v74l253 280h97zM549 333v161l-89 -95l-63 -66h152z"/>
    <glyph glyph-name="uni2464" unicode="⑤" d="M524 806q123 0 228 -54.5t169.5 -156.5t64.5 -231t-64.5 -232t-169.5 -157.5t-228 -54.5t-228.5 54.5t-170.5 157.5t-65 232t65 231t170.5 156.5t228.5 54.5zM524 -26q170 0 287.5 111t117.5 279t-117.5 278t-287.5 110t-288 -110.5t-118 -277.5q0 -168 118 -279 t288 -111zM549 441q69 0 116.5 -44t47.5 -114q0 -75 -51.5 -121.5t-134.5 -46.5q-70 0 -121 31.5t-67 83.5l86 27q8 -28 34 -45.5t62 -17.5q43 0 69.5 25t26.5 64t-26 62.5t-67 23.5q-36 0 -62.5 -16.5t-36.5 -45.5l-83 10l42 295h301v-84h-226l-18 -119q38 32 108 32z"/>
    <glyph glyph-name="uni2465" unicode="⑥" d="M524 806q123 0 228 -54.5t169.5 -156.5t64.5 -231t-64.5 -232t-169.5 -157.5t-228 -54.5t-228.5 54.5t-170.5 157.5t-65 232t65 231t170.5 156.5t228.5 54.5zM524 -26q170 0 287.5 111t117.5 279t-117.5 278t-287.5 110t-288 -110.5t-118 -277.5q0 -168 118 -279 t288 -111zM543 439q71 0 119 -43t48 -111q0 -84 -61 -129q-52 -41 -134 -41q-77 0 -127.5 45t-50.5 118q0 36 14 70.5t47 92.5l100 171h105q-43 -71 -120 -182q23 9 60 9zM521 197q39 0 64 22q28 23 28 65q0 38 -25.5 62t-65.5 24t-65 -24.5t-25 -64.5q0 -38 24.5 -61 t64.5 -23z"/>
    <glyph glyph-name="uni2466" unicode="⑦" d="M524 -80q-123 0 -228.5 54.5t-170.5 157.5t-65 232t65 231t170.5 156.5t228.5 54.5t228 -54.5t169.5 -156.5t64.5 -231t-64.5 -232t-169.5 -157.5t-228 -54.5zM524 -26q170 0 287.5 111t117.5 279t-117.5 278t-287.5 110t-288 -110.5t-118 -277.5q0 -168 118 -279 t288 -111zM348 524v84h349v-74l-207 -416h-107l214 406h-249z"/>
    <glyph glyph-name="uni2467" unicode="⑧" d="M524 806q123 0 228 -54.5t169.5 -156.5t64.5 -231t-64.5 -232t-169.5 -157.5t-228 -54.5t-228.5 54.5t-170.5 157.5t-65 232t65 231t170.5 156.5t228.5 54.5zM524 -26q170 0 287.5 111t117.5 279t-117.5 278t-287.5 110t-288 -110.5t-118 -277.5q0 -168 118 -279 t288 -111zM629 382q38 -13 60.5 -46t22.5 -75q0 -66 -51.5 -108t-137.5 -42t-137.5 42t-51.5 108q0 43 23 76t60 45q-29 12 -47 40.5t-18 62.5q0 58 47 94t124 36t124 -36t47 -95q0 -34 -18 -62t-47 -40zM523 543q-38 0 -61 -19t-23 -50q0 -32 23.5 -50.5t60.5 -18.5 t60.5 18.5t23.5 50.5q0 31 -23 50t-61 19zM523 190q43 0 68 21t25 57t-25 57t-68 21t-67.5 -21t-24.5 -57t24.5 -57t67.5 -21z"/>
    <glyph glyph-name="uni2468" unicode="⑨" d="M524 806q123 0 228 -54.5t169.5 -156.5t64.5 -231t-64.5 -232t-169.5 -157.5t-228 -54.5t-228.5 54.5t-170.5 157.5t-65 232t65 231t170.5 156.5t228.5 54.5zM524 -26q170 0 287.5 111t117.5 279t-117.5 278t-287.5 110t-288 -110.5t-118 -277.5q0 -168 118 -279 t288 -111zM528 612q79 0 130.5 -44t51.5 -113q0 -25 -10.5 -57t-18.5 -48t-33 -63l-90 -172h-106q35 64 107 181q-19 -8 -57 -8q-72 0 -119 42t-47 112q0 81 58 128q51 42 134 42zM524 357q40 0 65 24.5t25 64.5q0 38 -24.5 61t-64.5 23q-43 0 -70 -27q-22 -24 -22 -60 q0 -38 25.5 -62t65.5 -24z"/>
    <glyph glyph-name="uni24EA" unicode="⓪" d="M524 806q123 0 228 -54.5t169.5 -156.5t64.5 -231t-64.5 -232t-169.5 -157.5t-228 -54.5t-228.5 54.5t-170.5 157.5t-65 232t65 231t170.5 156.5t228.5 54.5zM524 -26q170 0 287.5 111t117.5 279t-117.5 278t-287.5 110t-288 -110.5t-118 -277.5q0 -168 118 -279 t288 -111zM523 615q119 0 195 -72.5t76 -179.5q0 -108 -76 -180t-195 -72q-120 0 -196 72.5t-76 179.5t76 179.5t196 72.5zM523 531q-78 0 -127.5 -48t-49.5 -120q0 -57 32 -100l242 243q-42 25 -97 25zM523 195q78 0 127 48t49 120q0 56 -31 99l-242 -242q42 -25 97 -25z "/>
    <glyph glyph-name="uni24FF" unicode="⓿" d="M524 -80q-123 0 -228.5 54.5t-170.5 157.5t-65 232t65 231t170.5 156.5t228.5 54.5t228 -54.5t169.5 -156.5t64.5 -231t-64.5 -232t-169.5 -157.5t-228 -54.5zM523 111q119 0 195 72t76 180q0 107 -76 179.5t-195 72.5q-120 0 -196 -72.5t-76 -179.5t76 -179.5t196 -72.5 zM378 263q-32 43 -32 100q0 72 49.5 120t127.5 48q55 0 97 -25zM523 195q-55 0 -97 25l242 242q31 -43 31 -99q0 -72 -49 -120t-127 -48z"/>
    <glyph glyph-name="lozenge" unicode="◊" horiz-adv-x="677" d="M83 350l216 350h81l214 -350l-214 -350h-81zM172 350l167 -269l166 269l-166 270z"/>
    <glyph glyph-name="circle" unicode="○" d="M524 -80q-123 0 -228.5 54.5t-170.5 157.5t-65 232t65 231t170.5 156.5t228.5 54.5t228 -54.5t169.5 -156.5t64.5 -231t-64.5 -232t-169.5 -157.5t-228 -54.5zM524 -26q170 0 287.5 111t117.5 279t-117.5 278t-287.5 110t-288 -110.5t-118 -277.5q0 -168 118 -279 t288 -111z"/>
    <glyph glyph-name="uni2618" unicode="☘" horiz-adv-x="1093" d="M60 402q0 48 29 84t74 42q-20 32 -20 65q0 67 54 102t115 7q46 -21 90 -106l36 17q-24 58 -24 94q0 52 32 86t81 34q46 0 78.5 -23.5t39.5 -62.5q31 37 79 37q64 0 100.5 -43.5t22.5 -104.5q-12 -44 -67 -91l24 -32q63 43 110 43q53 0 86 -33t33 -86q0 -78 -64 -105 q50 -33 50 -97q0 -53 -32.5 -86.5t-84.5 -33.5q-36 0 -75.5 24.5t-71.5 57t-82 75t-97 68.5q-21 -86 -21 -117q0 -60 25.5 -113t71.5 -88l-80 -44q-85 86 -85 204q0 55 19 134l10 40q-80 -5 -185 -34t-142 -29q-55 0 -92 33.5t-37 81.5z"/>
    <glyph glyph-name="uni261A" unicode="☚" horiz-adv-x="1187" d="M1052 27v523h-107v-59l-38 -12q-126 104 -260 104q-90 0 -135 -51l-265 -3q-50 0 -81 -28.5t-31 -74.5t31.5 -75t80.5 -29l105 -1q-6 -27 4 -52q9 -25 31 -41q-8 -27 2 -54q10 -29 40 -45q-3 -18 4 -37q13 -39 52.5 -56t81.5 -1l53 20q34 -9 80 -9q124 0 226 58l19 -8 v-69h107zM1018 57h-46v60l-52 20q-95 -61 -221 -61q-47 0 -80 11l-62 -24q-31 -11 -58.5 0.5t-36.5 38.5q-9 26 5 47q-38 5 -48 35q-12 33 9 56q-31 11 -42 40q-17 43 20 71l-156 1q-37 0 -59 20.5t-22 53.5t22 53t59 20l276 3q22 29 49.5 40t71.5 11q128 0 251 -107l74 23 v51h46v-463zM883 168v231q-50 49 -114 79t-119 30q-40 0 -65 -13.5t-41 -50.5l-32 -75q10 -35 49 -35q21 0 40 28t23 70l27 -21q-1 -15 -10 -45q19 -32 65.5 -52t101.5 -20v-31q-59 -6 -111 12t-79 51q-16 -17 -29 -24q29 -12 37 -40q12 -30 -2 -52q23 -8 36 -37 q7 -25 0 -47q21 -4 47 -4q92 0 176 46zM506 457l-253 -1q-36 0 -36 -30q0 -31 36 -31l227 2zM972 168v246l-44 -12v-221zM534 299q-31 10 -52 45l-34 -13q-14 -5 -20 -15.5t-1 -23.5q4 -13 16 -18t27 1zM593 250q-10 29 -43 16l-68 -25q-34 -14 -23 -40q13 -27 43 -16l68 24 q33 12 23 41zM626 160q-12 29 -43 16l-59 -22q-32 -12 -22 -39q4 -13 16.5 -17.5t26.5 0.5l59 22q32 11 22 40z"/>
    <glyph glyph-name="uni261B" unicode="☛" horiz-adv-x="1187" d="M135 27h107v69l19 8q101 -58 226 -58q45 0 80 9l53 -20q42 -16 81.5 1t52.5 56q7 19 4 37q30 16 40 45q10 27 2 54q22 16 31 41q10 25 4 52l105 1q49 0 80.5 29t31.5 75t-31 74.5t-81 28.5l-265 3q-45 51 -135 51q-134 0 -260 -104l-38 12v59h-107v-523zM169 57v463h46 v-51l74 -23q123 107 251 107q44 0 71.5 -11t49.5 -40l276 -3q37 0 59 -20t22 -53t-22 -53.5t-59 -20.5l-156 -1q37 -28 20 -71q-11 -29 -42 -40q21 -23 9 -56q-10 -30 -48 -35q14 -21 5 -47q-9 -27 -36.5 -38.5t-58.5 -0.5l-62 24q-33 -11 -80 -11q-126 0 -221 61l-52 -20 v-60h-46zM304 168q84 -46 176 -46q26 0 47 4q-7 22 0 47q13 29 36 37q-14 22 -2 52q8 28 37 40q-13 7 -29 24q-27 -33 -79 -51t-111 -12v31q55 0 101.5 20t65.5 52q-9 30 -10 45l27 21q4 -42 23 -70t40 -28q39 0 49 35l-32 75q-16 37 -41 50.5t-65 13.5q-55 0 -119 -30 t-114 -79v-231zM681 457l26 -60l227 -2q36 0 36 31q0 30 -36 30zM215 168l44 13v221l-44 12v-246zM653 299l64 -24q15 -6 27 -1t16 18q5 13 -1 23.5t-20 15.5l-34 13q-21 -35 -52 -45zM594 250q-10 -29 23 -41l68 -24q30 -11 43 16q11 26 -23 40l-68 25q-33 13 -43 -16z M561 160q-10 -29 22 -40l59 -22q14 -5 26.5 -0.5t16.5 17.5q10 27 -22 39l-59 22q-31 13 -43 -16z"/>
    <glyph glyph-name="uni261C" unicode="☜" horiz-adv-x="1029" d="M939 57h-46v60l-52 20q-95 -61 -221 -61q-47 0 -80 11l-62 -24q-30 -12 -58 0t-37 39q-9 26 5 47q-38 5 -48 35q-12 33 9 56q-31 11 -42 40q-17 45 23 73l-159 -1q-38 0 -59.5 20t-21.5 54q0 33 22 52.5t59 20.5l276 3q22 29 49.5 40t71.5 11q128 0 251 -107l74 23v51h46 v-463zM804 168v231q-50 49 -114 79t-119 30q-40 0 -65 -13.5t-41 -50.5l-32 -75q10 -35 49 -35q21 0 40 28t23 70l27 -21q-1 -15 -10 -45q19 -32 65.5 -52t101.5 -20v-31q-59 -6 -111 12t-79 51q-16 -17 -29 -24q29 -12 37 -40q12 -30 -2 -52q23 -8 36 -37q7 -25 0 -47 q21 -4 47 -4q92 0 176 46zM427 457l-253 -1q-36 0 -36 -30q0 -31 36 -31l227 2zM893 168v246l-44 -12v-221zM455 299q-31 10 -52 45l-34 -13q-32 -12 -21 -39q4 -13 16 -18t27 1zM514 250q-10 29 -43 16l-68 -25q-34 -12 -23 -40q13 -27 43 -16l68 24q33 11 23 41zM547 160 q-12 29 -43 16l-59 -22q-32 -12 -22 -39q4 -13 16.5 -17.5t26.5 0.5l59 22q32 11 22 40z"/>
    <glyph glyph-name="uni261D" unicode="☝" horiz-adv-x="766" d="M631 -32h-463v46h51l23 74q-107 123 -107 251q0 44 11 71.5t40 49.5l3 276q1 37 20.5 59t52.5 22q34 0 54 -21.5t20 -59.5l-1 -159q28 40 73 23q29 -11 40 -42q23 21 56 9q30 -10 35 -48q21 14 47 5q27 -9 39 -37t0 -58l-24 -62q11 -33 11 -80q0 -126 -61 -221l20 -52h60 v-46zM231 480l60 26l2 227q0 36 -31 36q-30 0 -30 -36zM389 452l24 64q6 15 1 27t-18 16q-27 11 -39 -21l-13 -34q35 -21 45 -52zM438 393q30 -10 41 23l24 68q11 30 -16 43q-28 11 -40 -23l-25 -68q-13 -33 16 -43zM528 360q29 -10 40 22l22 59q5 14 0.5 26.5t-17.5 16.5 q-27 10 -39 -22l-22 -59q-13 -31 16 -43zM520 103q46 84 46 176q0 26 -4 47q-22 -7 -47 0q-29 13 -37 36q-22 -14 -52 -2q-28 8 -40 37q-7 -13 -24 -29q33 -27 51 -79t12 -111h-31q0 55 -20 101.5t-52 65.5q-30 -9 -45 -10l-21 27q42 4 70 23t28 40q0 39 -35 49l-75 -32 q-37 -16 -50.5 -41t-13.5 -65q0 -55 30 -119t79 -114h231zM520 14l-13 44h-221l-12 -44h246z"/>
    <glyph glyph-name="uni261E" unicode="☞" horiz-adv-x="1029" d="M90 57v463h46v-51l74 -23q123 107 251 107q44 0 71.5 -11t49.5 -40l276 -3q37 -1 59 -20.5t22 -52.5q0 -34 -21.5 -54t-59.5 -20l-159 1q40 -28 23 -73q-11 -29 -42 -40q21 -23 9 -56q-10 -30 -48 -35q14 -21 5 -47q-9 -27 -37 -39t-58 0l-62 24q-33 -11 -80 -11 q-126 0 -221 61l-52 -20v-60h-46zM225 168q84 -46 176 -46q26 0 47 4q-7 22 0 47q13 29 36 37q-14 22 -2 52q8 28 37 40q-13 7 -29 24q-27 -33 -79 -51t-111 -12v31q55 0 101.5 20t65.5 52q-9 30 -10 45l27 21q4 -42 23 -70t40 -28q39 0 49 35l-32 75q-16 37 -41 50.5 t-65 13.5q-55 0 -119 -30t-114 -79v-231zM602 457l26 -60l227 -2q36 0 36 31q0 30 -36 30zM136 168l44 13v221l-44 12v-246zM574 299l64 -24q15 -6 27 -1t16 18q11 27 -21 39l-34 13q-21 -35 -52 -45zM515 250q-10 -30 23 -41l68 -24q30 -11 43 16q11 28 -23 40l-68 25 q-33 13 -43 -16zM482 160q-10 -29 22 -40l59 -22q14 -5 26.5 -0.5t16.5 17.5q10 27 -22 39l-59 22q-31 13 -43 -16z"/>
    <glyph glyph-name="uni261F" unicode="☟" horiz-adv-x="826" d="M135 799v-107h69l8 -19q-58 -101 -58 -226q0 -45 9 -80l-20 -53q-16 -42 1 -81.5t56 -52.5q19 -7 37 -4q16 -30 45 -40q27 -10 54 -2q16 -22 41 -31q25 -10 52 -4l1 -105q0 -49 29 -80.5t75 -31.5t74.5 31t28.5 81l3 265q51 45 51 135q0 134 -104 260l12 38h59v107h-523z M165 765h463v-46h-51l-23 -74q107 -123 107 -251q0 -44 -11 -71.5t-40 -49.5l-3 -276q0 -37 -20 -59t-53 -22t-53.5 22t-20.5 59l-1 156q-28 -37 -71 -20q-29 11 -40 42q-23 -21 -56 -9q-30 10 -35 48q-21 -14 -47 -5q-27 9 -38.5 36.5t-0.5 58.5l24 62q-11 33 -11 80 q0 126 61 221l-20 52h-60v46zM276 719l13 -44h221l12 44h-246zM276 630q-46 -84 -46 -176q0 -26 4 -47q22 7 47 0q29 -13 37 -36q22 14 52 2q28 -8 40 -37q7 13 24 29q-33 27 -51 79t-12 111h31q0 -55 20 -101.5t52 -65.5q30 9 45 10l21 -27q-42 -4 -70 -23t-28 -40 q0 -39 35 -49l75 32q37 16 50.5 41t13.5 65q0 55 -30 119t-79 114h-231zM268 373q-29 10 -40 -22l-22 -59q-5 -14 -0.5 -26.5t17.5 -16.5q27 -10 39 22l22 59q13 31 -16 43zM358 340q-29 10 -41 -23l-24 -68q-11 -30 16 -43q26 -11 40 23l25 68q13 33 -16 43zM407 281 l-24 -64q-6 -15 -1 -27t18 -16q13 -5 23.5 1t15.5 20l13 34q-35 21 -45 52zM565 253l-60 -26l-2 -227q0 -36 31 -36q30 0 30 36z"/>
    <glyph glyph-name="uni2639" unicode="☹" horiz-adv-x="1004" d="M502 -10q-168 0 -275 104t-107 256t107 256t275 104t275 -104t107 -256t-107 -256t-275 -104zM502 36q146 0 238.5 89.5t92.5 224.5q0 134 -93 224t-238 90t-237.5 -90t-92.5 -224q0 -135 92.5 -224.5t237.5 -89.5zM405 391q-25 0 -40 15.5t-15 37.5t15 37.5t40 15.5 q24 0 39 -15.5t15 -37.5t-15 -37.5t-39 -15.5zM600 391q-24 0 -39 15.5t-15 37.5t15 37.5t39 15.5t39 -15.5t15 -37.5t-15 -37.5t-39 -15.5zM326 209l-12 36l188 66l188 -66l-12 -36l-176 55z"/>
    <glyph glyph-name="smileface" unicode="☺" horiz-adv-x="1004" d="M502 -10q-168 0 -275 104t-107 256t107 256t275 104t275 -104t107 -256t-107 -256t-275 -104zM502 36q146 0 238.5 89.5t92.5 224.5q0 134 -93 224t-238 90t-237.5 -90t-92.5 -224q0 -135 92.5 -224.5t237.5 -89.5zM405 391q-25 0 -40 15.5t-15 37.5t15 37.5t40 15.5 q24 0 39 -15.5t15 -37.5t-15 -37.5t-39 -15.5zM600 391q-24 0 -39 15.5t-15 37.5t15 37.5t39 15.5t39 -15.5t15 -37.5t-15 -37.5t-39 -15.5zM502 186l-189 91v45l189 -87l190 87v-45z"/>
    <glyph glyph-name="invsmileface" unicode="☻" horiz-adv-x="1004" d="M502 -10q-168 0 -275 104t-107 256t107 256t275 104t275 -104t107 -256t-107 -256t-275 -104zM405 391q24 0 39 15.5t15 37.5t-15 37.5t-39 15.5q-25 0 -40 -15.5t-15 -37.5t15 -37.5t40 -15.5zM600 391q24 0 39 15.5t15 37.5t-15 37.5t-39 15.5t-39 -15.5t-15 -37.5 t15 -37.5t39 -15.5zM502 186l190 91v45l-190 -87l-189 87v-45z"/>
    <glyph glyph-name="uni270A" unicode="✊" horiz-adv-x="675" d="M53 424q0 81 48 120l54 143q22 59 77 59q44 0 64 -38q22 18 50 18q24 0 42.5 -14t22.5 -37q16 14 40 14q27 0 44.5 -16t19.5 -42q13 8 35 8q43 0 61.5 -32.5t4.5 -70.5l-29 -79q12 -36 12 -91q0 -138 -69 -242l22 -77h46v-47h-484v47h36l26 91q-55 65 -89 143.5 t-34 142.5zM161 584l88 40l11 26q8 19 -1.5 33t-27.5 14q-17 0 -24.5 -8t-14.5 -26zM301 633q37 -12 57 -42l13 36q8 23 -1.5 37.5t-26.5 14.5q-27 0 -36 -27zM382 536q-8 -21 1 -36.5t29 -15.5q25 0 35 29l27 77q8 23 0 37.5t-28 14.5q-25 0 -36 -29zM105 421 q0 -58 32 -131t84 -136h273q53 98 53 202q0 30 -4 54q-23 -5 -28 -5q-26 0 -44.5 13.5t-24.5 32.5q-12 -8 -36 -8q-17 0 -36 10t-29 28q-15 -13 -35 -20q33 -29 54.5 -80t21.5 -110q0 -20 -1 -30h-36q0 63 -24 120t-62 82q-52 -10 -97 -7l-3 25q88 15 127.5 34.5t39.5 47.5 t-37 50l-115 -50q-42 -18 -57.5 -47t-15.5 -75zM482 481q0 -16 9.5 -25.5t23.5 -9.5q23 0 34 28l24 63q9 25 1 40.5t-27 15.5q-26 0 -37 -28l-25 -67q-3 -7 -3 -17zM203 47h296l-15 64h-268z"/>
    <glyph glyph-name="uni2713" unicode="✓" horiz-adv-x="1879" d="M90 260q0 98 67.5 214t179.5 211q-81 -104 -81 -216q0 -138 152 -140q46 0 140 19t351 88l900 239l-978 -420q-267 -114 -363 -146.5t-171 -32.5q-92 0 -144.5 48.5t-52.5 135.5z"/>
    <glyph glyph-name="uni274C" unicode="❌" horiz-adv-x="817" d="M739 88l-68 -68l-263 263l-263 -263l-67 68l263 262l-263 263l68 68l263 -263l262 262l67 -67l-262 -262z"/>
    <glyph glyph-name="uni2764" unicode="❤" horiz-adv-x="1060" d="M60 471q0 107 71 173t183 66q76 0 131.5 -37t74.5 -98h20q22 61 80 98t135 37q108 0 176.5 -65.5t68.5 -172.5q0 -34 -8.5 -66t-20 -56.5t-36 -53t-41.5 -46t-53 -44.5t-55 -40t-61 -42l-195 -133l-195 133q-49 33 -71.5 49t-62 47t-59 54t-42 55.5t-31.5 67.5t-9 74z "/>
    <glyph glyph-name="uni2776" unicode="❶" d="M524 -80q-123 0 -228.5 54.5t-170.5 157.5t-65 232t65 231t170.5 156.5t228.5 54.5t228 -54.5t169.5 -156.5t64.5 -231t-64.5 -232t-169.5 -157.5t-228 -54.5zM348 128h370v84h-126v406h-60l-164 -140v-103l132 115v-278h-152v-84z"/>
    <glyph glyph-name="uni2777" unicode="❷" d="M524 -80q-123 0 -228.5 54.5t-170.5 157.5t-65 232t65 231t170.5 156.5t228.5 54.5t228 -54.5t169.5 -156.5t64.5 -231t-64.5 -232t-169.5 -157.5t-228 -54.5zM339 115h368v84h-235l137 105q45 35 68 68.5t23 86.5q0 72 -49 112.5t-126 40.5q-79 0 -130 -44t-51 -115 q0 -61 40 -101t102 -40h5l-152 -120v-77zM432 452q0 37 25.5 60t65.5 23q41 0 65 -22.5t24 -58.5q0 -38 -24.5 -62t-64.5 -24t-65.5 23.5t-25.5 60.5z"/>
    <glyph glyph-name="uni2778" unicode="❸" d="M524 -80q-123 0 -228.5 54.5t-170.5 157.5t-65 232t65 231t170.5 156.5t228.5 54.5t228 -54.5t169.5 -156.5t64.5 -231t-64.5 -232t-169.5 -157.5t-228 -54.5zM529 111q80 0 129 40t49 104q0 43 -22.5 73.5t-60.5 40.5q35 11 56 40t21 69q0 61 -48 99t-120 38 q-70 0 -118.5 -33.5t-59.5 -89.5l85 -23q5 32 28 50t58 18t57.5 -18.5t22.5 -50.5q0 -29 -18 -47.5t-48 -18.5h-62v-70h65q30 0 49 -19t19 -48q0 -33 -24 -54t-63 -21q-37 0 -62.5 20.5t-29.5 55.5l-92 -20q10 -63 62 -99t127 -36z"/>
    <glyph glyph-name="uni2779" unicode="❹" d="M524 806q123 0 228 -54.5t169.5 -156.5t64.5 -231t-64.5 -232t-169.5 -157.5t-228 -54.5t-228.5 54.5t-170.5 157.5t-65 232t65 231t170.5 156.5t228.5 54.5zM727 254v79h-86v275h-97l-253 -280v-74h258v-136h92v136h86zM397 333l63 66l89 95v-161h-152z"/>
    <glyph glyph-name="uni277A" unicode="❺" d="M524 -80q-123 0 -228.5 54.5t-170.5 157.5t-65 232t65 231t170.5 156.5t228.5 54.5t228 -54.5t169.5 -156.5t64.5 -231t-64.5 -232t-169.5 -157.5t-228 -54.5zM527 115q83 0 134.5 46.5t51.5 121.5q0 70 -47.5 114t-116.5 44q-70 0 -108 -32l18 119h226v84h-301l-42 -295 l83 -10q10 29 36.5 45.5t62.5 16.5q41 0 67 -23.5t26 -62.5t-26.5 -64t-69.5 -25q-36 0 -62 17.5t-34 45.5l-86 -27q16 -52 67 -83.5t121 -31.5z"/>
    <glyph glyph-name="uni277B" unicode="❻" d="M524 806q123 0 228 -54.5t169.5 -156.5t64.5 -231t-64.5 -232t-169.5 -157.5t-228 -54.5t-228.5 54.5t-170.5 157.5t-65 232t65 231t170.5 156.5t228.5 54.5zM649 156q61 45 61 129q0 68 -48 111t-119 43q-37 0 -60 -9q77 111 120 182h-105l-100 -171q-33 -58 -47 -92.5 t-14 -70.5q0 -73 50.5 -118t127.5 -45q82 0 134 41zM613 284q0 -42 -28 -65q-25 -22 -64 -22q-40 0 -64.5 23t-24.5 61q0 40 25 64.5t65 24.5t65.5 -24t25.5 -62z"/>
    <glyph glyph-name="uni277C" unicode="❼" d="M524 -80q-123 0 -228.5 54.5t-170.5 157.5t-65 232t65 231t170.5 156.5t228.5 54.5t228 -54.5t169.5 -156.5t64.5 -231t-64.5 -232t-169.5 -157.5t-228 -54.5zM383 118h107l207 416v74h-349v-84h249z"/>
    <glyph glyph-name="uni277D" unicode="❽" d="M524 806q123 0 228 -54.5t169.5 -156.5t64.5 -231t-64.5 -232t-169.5 -157.5t-228 -54.5t-228.5 54.5t-170.5 157.5t-65 232t65 231t170.5 156.5t228.5 54.5zM523 111q86 0 137.5 42t51.5 108q0 42 -22.5 75t-60.5 46q29 12 47 40t18 62q0 59 -47 95t-124 36t-124 -36 t-47 -94q0 -34 18 -62.5t47 -40.5q-37 -12 -60 -45t-23 -76q0 -66 51.5 -108t137.5 -42zM523 405q-37 0 -60.5 18.5t-23.5 50.5q0 31 23 50t61 19t61 -19t23 -50q0 -32 -23.5 -50.5t-60.5 -18.5zM523 346q43 0 68 -21t25 -57t-25 -57t-68 -21t-67.5 21t-24.5 57t24.5 57 t67.5 21z"/>
    <glyph glyph-name="uni277E" unicode="❾" d="M524 806q123 0 228 -54.5t169.5 -156.5t64.5 -231t-64.5 -232t-169.5 -157.5t-228 -54.5t-228.5 54.5t-170.5 157.5t-65 232t65 231t170.5 156.5t228.5 54.5zM648 287q48 92 57 128q5 21 5 40q0 69 -51.5 113t-130.5 44q-83 0 -134 -42q-58 -47 -58 -128q0 -70 47 -112 t119 -42q38 0 57 8q-72 -117 -107 -181h106zM525 530q40 0 64.5 -23t24.5 -61q0 -40 -25 -64.5t-65 -24.5t-65.5 24t-25.5 62q0 36 22 60q27 27 70 27z"/>
    <glyph glyph-name="uni3010" unicode="【" horiz-adv-x="366" d="M90 -180v900h238q-112 -189 -112 -449q0 -259 112 -451h-238z"/>
    <glyph glyph-name="uni3011" unicode="】" horiz-adv-x="366" d="M276 720v-900h-238q112 189 112 449q0 259 -112 451h238z"/>
    <glyph glyph-name="uniF8FF" unicode="" horiz-adv-x="600"/>
    <glyph glyph-name="u1F310" unicode="🌐" horiz-adv-x="1092" d="M546 -9q-186 0 -306 99.5t-120 259.5q0 161 121 260t305 99t305 -99t121 -260q0 -160 -120 -259.5t-306 -99.5zM383 534h149v147q-20 0 -56 -4q-60 -51 -93 -143zM561 534h150q-35 94 -93 143q-36 4 -57 4v-147zM213 534h140q33 88 84 135q-149 -29 -224 -135zM741 534 h139q-76 106 -223 135q52 -49 84 -135zM153 364h167q3 80 23 143h-149q-38 -64 -41 -143zM350 364h182v143h-159q-21 -69 -23 -143zM561 364h183q-3 74 -23 143h-160v-143zM773 364h166q-3 78 -40 143h-149q21 -69 23 -143zM194 194h149q-20 63 -23 143h-167q3 -79 41 -143z M373 194h159v143h-182q2 -74 23 -143zM561 194h160q20 69 23 143h-183v-143zM750 194h149q37 65 40 143h-166q-2 -74 -23 -143zM437 31q-53 50 -84 136h-141q76 -107 225 -136zM532 20v146l-149 1q32 -91 93 -143q24 -4 56 -4zM561 20q33 0 57 4q59 50 93 143l-150 -1v-146z M657 31q149 31 223 136h-139q-31 -86 -84 -136z"/>
    <glyph glyph-name="u1F3B5" unicode="🎵" horiz-adv-x="781" d="M50 56q0 61 46.5 92t122.5 30v396l472 136v-553q0 -64 -40 -102.5t-105 -38.5q-49 0 -79 27.5t-30 72.5q0 61 46.5 92t122.5 30v300l-302 -88v-353q0 -64 -40 -102.5t-105 -38.5q-49 0 -79 27.5t-30 72.5z"/>
    <glyph glyph-name="u1F3E0" unicode="🏠" horiz-adv-x="1099" d="M90 0v482l337 228l337 -228h16v135h-32v83h271v-83h-31v-617h-898z"/>
    <glyph glyph-name="u1F3ED" unicode="🏭" horiz-adv-x="1106" d="M90 0v710l309 -170v170l309 -170v170l308 -170v-540h-926z"/>
    <glyph glyph-name="u1F440" unicode="👀" horiz-adv-x="931" d="M60 339q0 167 47.5 267t140.5 100q82 0 134.5 -87t52.5 -260q0 -167 -47.5 -267t-139.5 -100q-83 0 -135.5 87t-52.5 260zM496 339q0 167 47.5 267t140.5 100q82 0 134.5 -87t52.5 -260q0 -167 -47.5 -267t-139.5 -100q-83 0 -135.5 87t-52.5 260zM125 429q22 32 56 32 q33 0 53.5 -30.5t20.5 -81.5t-20.5 -81.5t-53.5 -30.5q-34 0 -56 32q1 -97 36 -155.5t87 -58.5q57 0 91 77.5t34 216.5q0 140 -32.5 217t-92.5 77q-49 0 -81 -55.5t-42 -158.5zM561 429q22 32 56 32q33 0 53.5 -30.5t20.5 -81.5t-20.5 -81.5t-53.5 -30.5q-34 0 -56 32 q1 -97 36 -155.5t87 -58.5q57 0 91 77.5t34 216.5q0 140 -32.5 217t-92.5 77q-49 0 -81 -55.5t-42 -158.5z"/>
    <glyph glyph-name="u1F447" unicode="👇" horiz-adv-x="766" d="M135 770h463v-46h-51l-23 -74q107 -123 107 -251q0 -44 -11 -71.5t-40 -49.5l-3 -276q-1 -37 -20.5 -59t-52.5 -22q-34 0 -54 21.5t-20 59.5l1 159q-28 -40 -73 -23q-29 11 -40 42q-23 -21 -56 -9q-30 10 -35 48q-21 -14 -47 -5q-27 9 -39 37t0 58l24 62q-11 33 -11 80 q0 126 61 221l-20 52h-60v46zM246 724l13 -44h221l12 44h-246zM246 635q-46 -84 -46 -176q0 -26 4 -47q22 7 47 0q29 -13 37 -36q22 14 52 2q28 -8 40 -37q7 13 24 29q-33 27 -51 79t-12 111h31q0 -55 20 -101.5t52 -65.5q30 9 45 10l21 -27q-42 -4 -70 -23t-28 -40 q0 -39 35 -49l75 32q37 16 50.5 41t13.5 65q0 55 -30 119t-79 114h-231zM238 378q-29 10 -40 -22l-22 -59q-5 -14 -0.5 -26.5t17.5 -16.5q27 -10 39 22l22 59q13 31 -16 43zM328 345q-30 10 -41 -23l-24 -68q-11 -30 16 -43q28 -11 40 23l25 68q13 33 -16 43zM377 286 l-24 -64q-6 -15 -1 -27t18 -16q27 -11 39 21l13 34q-35 21 -45 52zM535 258l-60 -26l-2 -227q0 -36 31 -36q30 0 30 36z"/>
    <glyph glyph-name="u1F496" unicode="💖" horiz-adv-x="1101" d="M889 755v13q49 0 66.5 20.5t17.5 71.5h14q0 -54 18.5 -73t65.5 -19v-13q-49 0 -66.5 -20.5t-17.5 -71.5h-14q0 54 -18.5 73t-65.5 19zM60 471q0 107 71 173t183 66q76 0 131.5 -37t74.5 -98h20q22 61 80 98t135 37q108 0 176.5 -65.5t68.5 -172.5q0 -34 -8.5 -66 t-20 -56.5t-36 -53t-41.5 -46t-53 -44.5t-55 -40t-61 -42l-195 -133l-195 133q-49 33 -71.5 49t-62 47t-59 54t-42 55.5t-31.5 67.5t-9 74zM670 454q47 0 65.5 -19t18.5 -73h14q0 51 17.5 71.5t66.5 20.5v13q-47 0 -65.5 19t-18.5 73h-14q0 -51 -17.5 -71.5t-66.5 -20.5v-13 zM116 5v13q49 0 66.5 20.5t17.5 71.5h14q0 -54 18.5 -73t65.5 -19v-13q-49 0 -66.5 -20.5t-17.5 -71.5h-14q0 54 -18.5 73t-65.5 19z"/>
    <glyph glyph-name="u1F528" unicode="🔨" horiz-adv-x="1183" d="M160 43q-23 -11 -63 78q-41 88 -19 98l73 34q5 28 29 40q24 10 49 -4h1q6 30 28 40q22 11 48 -4l2 1q4 27 29 40q20 9 48 -4l250 116l-88 206q-4 9 32 30.5t75.5 35t43.5 4.5l26 -56q37 -78 89.5 -94t139.5 25l160 -342q5 -13 -38 -42t-106 -58q-62 -29 -112 -43.5 t-57 -2.5l-83 161l-250 -116q-7 -30 -28 -40q-25 -11 -49 4l-2 -1q-5 -30 -27 -39q-24 -12 -49 3h-1q-5 -28 -29 -40q-23 -10 -49 4z"/>
    <glyph glyph-name="u1F697" unicode="🚗" horiz-adv-x="1286" d="M80 60v80q0 101 62 174t183 104q59 138 170 214t248 76q146 0 241.5 -77t118.5 -211q103 -32 103 -182v-174h-145q-17 -33 -49.5 -53t-71.5 -20t-71.5 19.5t-49.5 52.5l-295 -2q-18 -32 -49.5 -51t-70.5 -19q-37 0 -69.5 19t-49.5 51zM391 418h313v236q-104 -7 -187 -71 t-126 -165zM757 418h280q-13 106 -90 171t-190 65v-236zM307 128q0 -40 28.5 -68.5t69.5 -28.5t68.5 29.5t27.5 67.5q0 40 -28 68t-68 28q-41 0 -69.5 -28t-28.5 -68zM842 128q0 -40 28.5 -68.5t69.5 -28.5t68.5 29.5t27.5 67.5q0 40 -28 68t-68 28q-41 0 -69.5 -28 t-28.5 -68zM360 128q0 19 12.5 31.5t31.5 12.5t32 -12.5t13 -31.5q0 -20 -12.5 -32.5t-32.5 -12.5q-19 0 -31.5 13t-12.5 32zM895 128q0 19 13 31.5t32 12.5q18 0 31 -12.5t13 -31.5t-13 -32t-31 -13q-20 0 -32.5 12.5t-12.5 32.5z"/>
    <glyph glyph-name="u1F918" unicode="🤘" horiz-adv-x="820" d="M199 0h463v46h-61l-23 74q107 123 107 251q0 45 -12 74t-45 51l-2 242q-1 72 -68 72q-32 0 -50.5 -18t-18.5 -54v-133q-17 32 -57 32q-22 0 -38.5 -13t-21.5 -34q-15 13 -35 13q-29 0 -45 -21l-26 71q-16 45 -63 45q-29 0 -48.5 -17t-19.5 -44q0 -19 6 -34l78 -214 q-9 -40 -9 -94q0 -48 17.5 -102t46.5 -94l-22 -53h-53v-46zM589 512l-60 26l-2 197q0 36 31 36q30 0 30 -36zM300 135q-48 66 -48 176q0 38 7 80l-82 221q-3 8 -3 17q0 12 8 20t22 8q19 0 29 -24l78 -207q14 -38 61 -38q20 0 37 11.5t25 29.5q7 -13 24 -29q-28 -24 -46 -68 t-18 -95q0 -18 1 -27h31q0 55 20 101.5t52 65.5q30 -9 45 -10l21 27q-42 4 -70 23t-28 40q0 39 35 49l75 -32q37 -16 50.5 -41t13.5 -65q0 -55 -30 -119t-79 -114h-231zM431 484l-24 64q-3 9 -3 16q0 13 8.5 21t22.5 8q19 0 28 -23l13 -34q-35 -21 -45 -52zM371 423 q-21 0 -30 25l-24 68q-4 10 -4 17q0 28 31 28q19 0 27 -20l27 -73q3 -9 3 -16q0 -12 -9 -20.5t-21 -8.5zM300 46l18 44h216l12 -44h-246z"/>
    <glyph glyph-name="u1F9A0" unicode="🦠" horiz-adv-x="983" d="M125 447q-17 11 15 77t54 66q10 0 14 -13q15 -53 46 -79q32 52 85.5 85.5t116.5 41.5v1q0 72 -66 138q-5 5 -5 12q0 14 51.5 20t103.5 0.5t52 -20.5q0 -7 -5 -12q-66 -66 -66 -138v-1q94 -11 150 -67q29 42 23 92q-1 9 5 12q13 6 45 -19.5t56 -56t15 -39.5q-2 -2 -10 -2 q-63 0 -95 -27q49 -56 55 -142.5t-34 -157.5q60 -29 128 -12q14 2 16 1q12 -8 -14.5 -55t-63 -87t-47.5 -30q-2 2 -2 11q0 65 -55 116q-28 -34 -73.5 -57t-96.5 -29q0 -22 14.5 -46t32.5 -33q8 -4 8 -10q0 -18 -82 -18t-82 18q0 6 8 10q18 9 31.5 32t13.5 44q-52 4 -99.5 26 t-73.5 53q-25 -33 -25 -85v-5q0 -9 -2 -11q-8 -10 -41.5 14.5t-60 57t-17.5 41.5q3 3 16 3q58 0 94 29q-47 71 -47 154q0 50 18 96q-36 13 -84 2q-15 -4 -20 -1zM362 496q0 -16 13 -29t29 -13q17 0 29.5 12t12.5 29t-13 29.5t-29 12.5q-17 0 -29.5 -12t-12.5 -29zM507 492 q0 -13 7.5 -20.5t19.5 -7.5q13 0 21.5 8t8.5 21q0 28 -28 28q-13 0 -21 -8t-8 -21zM608 399q0 -19 12 -30.5t31 -11.5t30.5 11t11.5 30q0 20 -11.5 31.5t-31.5 11.5q-19 0 -30.5 -11.5t-11.5 -30.5zM445 358q0 -22 15 -36t39 -14q23 0 37 13t14 35q0 23 -14 36.5t-37 13.5 q-25 0 -39.5 -13t-14.5 -35zM283 295q0 -19 11.5 -30.5t30.5 -11.5t30.5 11t11.5 30t-11.5 30.5t-30.5 11.5t-30.5 -11t-11.5 -30zM578 249q0 -13 7.5 -20.5t19.5 -7.5q13 0 21.5 8t8.5 21q0 28 -28 28q-13 0 -21 -8t-8 -21zM399 218q0 -19 11.5 -30t31.5 -11q18 0 29 11 t11 28q0 19 -12 30.5t-31 11.5q-18 0 -29 -11t-11 -29z"/>
    <glyph glyph-name="A.ss01" horiz-adv-x="822" d="M352 702h117l344 -702h-105l-80 163q-89 -37 -216 -37q-129 0 -218 38l-81 -164h-104zM602 215l-191 389l-192 -389h383z"/>
    <glyph glyph-name="Aacute.ss01" horiz-adv-x="822" d="M352 702h117l344 -702h-105l-80 163q-89 -37 -216 -37q-129 0 -218 38l-81 -164h-104zM602 215l-191 389l-192 -389h383zM290 793v80l246 64v-81z"/>
    <glyph glyph-name="Abreve.ss01" horiz-adv-x="822" d="M352 702h117l344 -702h-105l-80 163q-89 -37 -216 -37q-129 0 -218 38l-81 -164h-104zM602 215l-191 389l-192 -389h383zM248 929v21h79v-16q0 -32 22.5 -50.5t59.5 -18.5q38 0 60.5 19t22.5 50v16h78v-21q0 -59 -44 -95t-117 -36q-72 0 -116.5 36t-44.5 95z"/>
    <glyph glyph-name="Acircumflex.ss01" horiz-adv-x="822" d="M9 0l343 702h117l344 -702h-105l-80 163q-89 -37 -216 -37q-129 0 -218 38l-81 -164h-104zM602 215l-191 389l-192 -389h383zM245 871l168 71l169 -71v-81l-169 72l-168 -72v81z"/>
    <glyph glyph-name="Adieresis.ss01" horiz-adv-x="822" d="M352 702h117l344 -702h-105l-80 163q-89 -37 -216 -37q-129 0 -218 38l-81 -164h-104zM219 215h383l-191 389zM451 862q0 37 24.5 60t61.5 23t62 -23t25 -60q0 -36 -25 -59q-25 -24 -62 -24t-61.5 23t-24.5 60zM202 862q0 37 25 60t62 23t61.5 -23t24.5 -60 q0 -36 -25 -59.5t-61 -23.5q-37 0 -62 23t-25 60z"/>
    <glyph glyph-name="Agrave.ss01" horiz-adv-x="822" d="M352 702h117l344 -702h-105l-80 163q-89 -37 -216 -37q-129 0 -218 38l-81 -164h-104zM602 215l-191 389l-192 -389h383zM290 856v81l246 -64v-80z"/>
    <glyph glyph-name="Amacron.ss01" horiz-adv-x="822" d="M352 702h117l344 -702h-105l-80 163q-89 -37 -216 -37q-129 0 -218 38l-81 -164h-104zM602 215l-191 389l-192 -389h383zM265 823v70h296v-70h-296z"/>
    <glyph glyph-name="Aogonek.ss01" horiz-adv-x="822" d="M352 702h117l344 -702h-39q-52 -23 -52 -70q0 -28 20.5 -44t55.5 -16q32 0 55 10l-1 -58q-28 -13 -70 -13q-57 0 -90.5 27t-33.5 73q0 57 50 91l-80 163q-89 -37 -216 -37q-129 0 -218 38l-81 -164h-104zM602 215l-191 389l-192 -389h383z"/>
    <glyph glyph-name="Aring.ss01" horiz-adv-x="822" d="M9 0l343 702h117l344 -702h-105l-80 163q-89 -37 -216 -37q-129 0 -218 38l-81 -164h-104zM602 215l-191 389l-192 -389h383zM326 958q33 28 87 28t87 -28.5t33 -76.5t-33 -76q-33 -29 -87 -29t-87 28.5t-33 76.5t33 77zM376 847q14 -13 37 -13t37 12.5t14 34.5 q0 21 -14 35q-15 13 -37 13t-36.5 -13.5t-14.5 -34.5q0 -22 14 -34z"/>
    <glyph glyph-name="Atilde.ss01" horiz-adv-x="822" d="M352 702h117l344 -702h-105l-80 163q-89 -37 -216 -37q-129 0 -218 38l-81 -164h-104zM602 215l-191 389l-192 -389h383zM307 965v-70q0 -26 20 -26q15 0 36 26l31 36q37 42 81 42q36 0 58 -23.5t22 -62.5v-89h-69v67q0 33 -25 33q-4 0 -8.5 -1t-7 -2.5t-6.5 -5t-6 -5.5 t-6.5 -7t-6.5 -7l-34 -39q-34 -36 -75 -36q-33 0 -53 20.5t-20 54.5v95h69z"/>
    <glyph glyph-name="A.ss02" horiz-adv-x="1206" d="M9 0l544 700h100l544 -700h-112l-119 152h-726l-120 -152h-111zM904 231l-301 383l-301 -383h602z"/>
    <glyph glyph-name="Aacute.ss02" horiz-adv-x="1206" d="M9 0l544 700h100l544 -700h-112l-119 152h-726l-120 -152h-111zM904 231l-301 383l-301 -383h602zM726 953v-81l-246 -63v80z"/>
    <glyph glyph-name="Abreve.ss02" horiz-adv-x="1206" d="M553 700h100l544 -700h-112l-119 152h-726l-120 -152h-111zM302 231h602l-301 383zM438 966h79v-16q0 -32 22.5 -50.5t59.5 -18.5q38 0 60.5 19t22.5 50v16h78v-21q0 -59 -44 -95t-117 -36q-72 0 -116.5 36t-44.5 95v21z"/>
    <glyph glyph-name="Acircumflex.ss02" horiz-adv-x="1206" d="M553 700h100l544 -700h-112l-119 152h-726l-120 -152h-111zM904 231l-301 383l-301 -383h602zM435 806v81l168 71l169 -71v-81l-169 72z"/>
    <glyph glyph-name="Adieresis.ss02" horiz-adv-x="1206" d="M553 700h100l544 -700h-112l-119 152h-726l-120 -152h-111zM904 231l-301 383l-301 -383h602zM641 878q0 37 24.5 60t61.5 23t62 -23t25 -60q0 -36 -25 -59q-25 -24 -62 -24t-61.5 23t-24.5 60zM392 878q0 37 25 60t62 23t61.5 -23t24.5 -60q0 -36 -25 -59.5t-61 -23.5 q-37 0 -62 23t-25 60z"/>
    <glyph glyph-name="Agrave.ss02" horiz-adv-x="1206" d="M9 0l544 700h100l544 -700h-112l-119 152h-726l-120 -152h-111zM904 231l-301 383l-301 -383h602zM726 889v-80l-246 63v81z"/>
    <glyph glyph-name="Amacron.ss02" horiz-adv-x="1206" d="M9 0l544 700h100l544 -700h-112l-119 152h-726l-120 -152h-111zM904 231l-301 383l-301 -383h602zM751 909v-70h-296v70h296z"/>
    <glyph glyph-name="Aogonek.ss02" horiz-adv-x="1206" d="M553 700h100l544 -700h-46q-52 -23 -52 -70q0 -28 20.5 -44t55.5 -16q32 0 55 10l-1 -58q-28 -13 -70 -13q-57 0 -90.5 27t-33.5 73q0 57 50 91l-119 152h-726l-120 -152h-111zM904 231l-301 383l-301 -383h602z"/>
    <glyph glyph-name="Aring.ss02" horiz-adv-x="1206" d="M553 700h100l544 -700h-112l-119 152h-726l-120 -152h-111zM904 231l-301 383l-301 -383h602zM483 897q0 48 33 76.5t87 28.5t87 -28.5t33 -76.5t-33 -76q-33 -29 -87 -29t-87 28.5t-33 76.5zM552 897q0 -22 14 -34.5t37 -12.5t37 12.5t14 34.5q0 21 -14 35 q-15 13 -37 13t-36.5 -13.5t-14.5 -34.5z"/>
    <glyph glyph-name="Atilde.ss02" horiz-adv-x="1206" d="M553 700h100l544 -700h-112l-119 152h-726l-120 -152h-111zM302 231h602l-301 383zM428 981h69v-70q0 -26 20 -26q15 0 36 26l31 36q37 42 81 42q36 0 58 -23.5t22 -62.5v-89h-69v67q0 33 -25 33q-4 0 -8.5 -1t-7 -2.5t-6.5 -5t-6 -5.5t-6.5 -7t-6.5 -7l-34 -39 q-34 -36 -75 -36q-33 0 -53 20.5t-20 54.5v95z"/>
    <glyph glyph-name="E.ss02" horiz-adv-x="1199" d="M90 700h1050v-79h-957v-233h949v-76h-949v-233h957v-79h-1050v700z"/>
    <glyph glyph-name="Eacute.ss02" horiz-adv-x="1199" d="M90 700h1050v-79h-957v-233h949v-76h-949v-233h957v-79h-1050v700zM485 873l246 64v-81l-246 -63v80z"/>
    <glyph glyph-name="Ecaron.ss02" horiz-adv-x="1199" d="M90 700h1050v-79h-957v-233h949v-76h-949v-233h957v-79h-1050v700zM608 871l169 71v-80l-169 -72l-168 72v80z"/>
    <glyph glyph-name="Ecircumflex.ss02" horiz-adv-x="1199" d="M90 700h1050v-79h-957v-233h949v-76h-949v-233h957v-79h-1050v700zM608 942l169 -71v-81l-169 72l-168 -72v81z"/>
    <glyph glyph-name="Edieresis.ss02" horiz-adv-x="1199" d="M90 0v700h1050v-79h-957v-233h949v-76h-949v-233h957v-79h-1050zM671 922q24 23 61 23t62 -23t25 -60q0 -36 -25 -59q-25 -24 -62 -24t-61.5 23t-24.5 60t25 60zM397 862q0 37 25 60t62 23t61.5 -23t24.5 -60q0 -36 -25 -59.5t-61 -23.5q-37 0 -62 23t-25 60z"/>
    <glyph glyph-name="Edotaccent.ss02" horiz-adv-x="1199" d="M90 700h1050v-79h-957v-233h949v-76h-949v-233h957v-79h-1050v700zM520 862q0 37 25 60t62 23t61.5 -23t24.5 -60q0 -36 -25 -59.5t-61 -23.5q-37 0 -62 23t-25 60z"/>
    <glyph glyph-name="Egrave.ss02" horiz-adv-x="1199" d="M90 700h1050v-79h-957v-233h949v-76h-949v-233h957v-79h-1050v700zM485 937l246 -64v-80l-246 63v81z"/>
    <glyph glyph-name="Emacron.ss02" horiz-adv-x="1199" d="M90 700h1050v-79h-957v-233h949v-76h-949v-233h957v-79h-1050v700zM460 893h296v-70h-296v70z"/>
    <glyph glyph-name="Eogonek.ss02" horiz-adv-x="1199" d="M90 700h1050v-79h-957v-233h949v-76h-949v-233h957v-79h-129q-50 -23 -50 -69q0 -28 20.5 -44t55.5 -16q32 0 55 10l-1 -58q-28 -13 -70 -13q-57 0 -90.5 27t-33.5 73q0 57 49 90h-856v700z"/>
    <glyph glyph-name="I.ss02" horiz-adv-x="1253" d="M60 79h521v542h-521v79h1133v-79h-520v-542h520v-79h-1133v79z"/>
    <glyph glyph-name="Iacute.ss02" horiz-adv-x="1253" d="M60 0v79h521v542h-521v79h1133v-79h-520v-542h520v-79h-1133zM504 793v80l246 64v-81z"/>
    <glyph glyph-name="Icircumflex.ss02" horiz-adv-x="1253" d="M60 621v79h1133v-79h-520v-542h520v-79h-1133v79h521v542h-521zM627 942l169 -71v-81l-169 72l-168 -72v81z"/>
    <glyph glyph-name="Idieresis.ss02" horiz-adv-x="1253" d="M581 79v542h-521v79h1133v-79h-520v-542h520v-79h-1133v79h521zM665 862q0 37 24.5 60t61.5 23t62 -23t25 -60q0 -36 -25 -59q-25 -24 -62 -24t-61.5 23t-24.5 60zM441 922q25 23 62 23t61.5 -23t24.5 -60q0 -36 -25 -59.5t-61 -23.5q-37 0 -62 23t-25 60t25 60z"/>
    <glyph glyph-name="Idotaccent.ss02" horiz-adv-x="1253" d="M581 79v542h-521v79h1133v-79h-520v-542h520v-79h-1133v79h521zM564 922q25 23 62 23t61.5 -23t24.5 -60q0 -36 -25 -59.5t-61 -23.5q-37 0 -62 23t-25 60t25 60z"/>
    <glyph glyph-name="Igrave.ss02" horiz-adv-x="1253" d="M60 0v79h521v542h-521v79h1133v-79h-520v-542h520v-79h-1133zM504 856v81l246 -64v-80z"/>
    <glyph glyph-name="Imacron.ss02" horiz-adv-x="1253" d="M60 0v79h521v542h-521v79h1133v-79h-520v-542h520v-79h-1133zM479 823v70h296v-70h-296z"/>
    <glyph glyph-name="Iogonek.ss02" horiz-adv-x="1253" d="M60 621v79h1133v-79h-520v-542h520v-79h-130q-52 -23 -52 -70q0 -28 20.5 -44t55.5 -16q32 0 55 10l-1 -58q-28 -13 -70 -13q-57 0 -90.5 27t-33.5 73q0 57 50 91h-937v79h521v542h-521z"/>
    <glyph glyph-name="M.ss02" horiz-adv-x="1047" d="M237 700l287 -524l286 524h147v-700h-93v608l-335 -608h-11l-335 608v-608h-93v700h147z"/>
    <glyph glyph-name="O.ss02" horiz-adv-x="1357" d="M90 0v700h1177v-700h-1177zM183 79h992v542h-992v-542z"/>
    <glyph glyph-name="Oacute.ss02" horiz-adv-x="1357" d="M802 937v-81l-246 -63v80zM90 0v700h1177v-700h-1177zM183 79h992v542h-992v-542z"/>
    <glyph glyph-name="Ocircumflex.ss02" horiz-adv-x="1357" d="M511 790v81l168 71l169 -71v-81l-169 72zM90 0v700h1177v-700h-1177zM183 79h992v542h-992v-542z"/>
    <glyph glyph-name="Odieresis.ss02" horiz-adv-x="1357" d="M1267 700v-700h-1177v700h1177zM183 79h992v542h-992v-542zM742 922q24 23 61 23t62 -23t25 -60q0 -36 -25 -59q-25 -24 -62 -24t-61.5 23t-24.5 60t25 60zM468 862q0 37 25 60t62 23t61.5 -23t24.5 -60q0 -36 -25 -59.5t-61 -23.5q-37 0 -62 23t-25 60z"/>
    <glyph glyph-name="Ograve.ss02" horiz-adv-x="1357" d="M556 937l246 -64v-80l-246 63v81zM90 0v700h1177v-700h-1177zM183 79h992v542h-992v-542z"/>
    <glyph glyph-name="Ohungarumlaut.ss02" horiz-adv-x="1357" d="M488 789v81l199 63v-50l180 57v-80l-199 -64v51zM90 0v700h1177v-700h-1177zM183 79h992v542h-992v-542z"/>
    <glyph glyph-name="Omacron.ss02" horiz-adv-x="1357" d="M531 893h296v-70h-296v70zM90 0v700h1177v-700h-1177zM183 79h992v542h-992v-542z"/>
    <glyph glyph-name="Oslash.ss02" horiz-adv-x="1357" d="M90 700h1177v-700h-1177v700zM1046 621h-863v-540zM310 79h865v541z"/>
    <glyph glyph-name="Otilde.ss02" horiz-adv-x="1357" d="M90 0v700h1177v-700h-1177zM183 79h992v542h-992v-542zM573 965v-70q0 -26 20 -26q15 0 36 26l31 36q37 42 81 42q36 0 58 -23.5t22 -62.5v-89h-69v67q0 33 -25 33q-4 0 -8.5 -1t-7 -2.5t-6.5 -5t-6 -5.5t-6.5 -7t-6.5 -7l-34 -39q-34 -36 -75 -36q-33 0 -53 20.5 t-20 54.5v95h69z"/>
    <glyph glyph-name="Q.ss02" horiz-adv-x="916" d="M815 226h79v-248q0 -86 -54 -139t-142 -53q-152 0 -196 150l-16 55q-12 -1 -37 -1q-171 0 -280 103.5t-109 256.5t108.5 256.5t279.5 103.5t279.5 -103.5t108.5 -256.5q0 -67 -21 -124zM448 76h13l-69 236h91l66 -221q87 27 138.5 96.5t51.5 162.5q0 118 -82 196.5 t-209 78.5t-209 -78.5t-82 -196.5t82 -196t209 -78zM697 -132q53 0 82.5 31t29.5 87v224q-31 -74 -92 -126.5t-143 -76.5l17 -57q25 -82 106 -82z"/>
    <glyph glyph-name="V.ss02" horiz-adv-x="1234" d="M23 700h117l477 -615l478 615h116l-543 -700h-102z"/>
    <glyph glyph-name="K.ss03" horiz-adv-x="750" d="M90 700h93v-303l489 311h18v-86l-433 -272l433 -267v-91h-18l-489 306v-298h-93v700z"/>
    <glyph glyph-name="uni0136.ss03" horiz-adv-x="750" d="M90 0v700h93v-303l489 311h18v-86l-433 -272l433 -267v-91h-18l-489 306v-298h-93zM303 -301v71l83 48q-30 2 -48.5 19.5t-18.5 45.5q0 29 20 47t51 18t51 -18t20 -47q0 -44 -41 -60v-55z"/>
    <glyph glyph-name="Q.ss03" horiz-adv-x="896" d="M169 607q108 103 279 103t279.5 -103.5t108.5 -256.5q0 -135 -85 -233t-225 -121l180 -196h-133l-130 190q-112 1 -200 49.5t-135.5 130t-47.5 180.5q0 153 109 257zM239 154q82 -78 209 -78q129 0 210 77.5t81 196.5q0 118 -82 196.5t-209 78.5t-209 -78.5t-82 -196.5 t82 -196zM384 411q24 25 64 25t64.5 -25t24.5 -61q0 -37 -24.5 -61.5t-64.5 -24.5t-64.5 24.5t-24.5 61.5q0 36 25 61z"/>
    <glyph glyph-name="R.ss03" horiz-adv-x="797" d="M90 700h415q104 0 166.5 -53.5t62.5 -145.5q0 -91 -61.5 -145t-167.5 -54h-152l375 -218v-89h-11l-534 315v-310h-93v700zM183 364h300q72 0 113.5 33.5t41.5 96.5q0 60 -38 93.5t-110 33.5h-307v-257z"/>
    <glyph glyph-name="S.ss04" horiz-adv-x="622" d="M346 75q62 0 98.5 29.5t36.5 82.5q0 51 -30 76.5t-91 38.5l-101 22q-44 10 -75 21.5t-60 32.5t-43.5 54t-14.5 79q0 89 64 139t172 50h247v-79h-247q-65 0 -101.5 -28t-36.5 -78t31 -73t93 -37l110 -24q90 -20 134.5 -64.5t44.5 -124.5q0 -92 -59.5 -144t-162.5 -52h-295 v79h286z"/>
    <glyph glyph-name="Sacute.ss04" horiz-adv-x="622" d="M60 75h286q62 0 98.5 29.5t36.5 82.5q0 51 -30 76.5t-91 38.5l-101 22q-44 10 -75 21.5t-60 32.5t-43.5 54t-14.5 79q0 89 64 139t172 50h247v-79h-247q-65 0 -101.5 -28t-36.5 -78t31 -73t93 -37l110 -24q90 -20 134.5 -64.5t44.5 -124.5q0 -92 -59.5 -144t-162.5 -52 h-295v79zM184 873l246 64v-81l-246 -63v80z"/>
    <glyph glyph-name="Scaron.ss04" horiz-adv-x="622" d="M346 75q62 0 98.5 29.5t36.5 82.5q0 51 -30 76.5t-91 38.5l-101 22q-44 10 -75 21.5t-60 32.5t-43.5 54t-14.5 79q0 89 64 139t172 50h247v-79h-247q-65 0 -101.5 -28t-36.5 -78t31 -73t93 -37l110 -24q90 -20 134.5 -64.5t44.5 -124.5q0 -92 -59.5 -144t-162.5 -52h-295 v79h286zM139 942l168 -71l169 71v-80l-169 -72l-168 72v80z"/>
    <glyph glyph-name="Scedilla.ss04" horiz-adv-x="622" d="M60 75h286q62 0 98.5 29.5t36.5 82.5q0 51 -30 76.5t-91 38.5l-101 22q-44 10 -75 21.5t-60 32.5t-43.5 54t-14.5 79q0 89 64 139t172 50h247v-79h-247q-65 0 -101.5 -28t-36.5 -78t31 -73t93 -37l110 -24q90 -20 134.5 -64.5t44.5 -124.5q0 -92 -59.5 -144t-162.5 -52 h-15v-47q14 2 22 2q42 0 71 -27t29 -69q0 -50 -34.5 -79.5t-88.5 -29.5q-47 0 -81.5 25t-43.5 63l65 16q4 -22 20 -35t40 -13q26 0 41.5 14t15.5 37t-14.5 37t-38.5 14t-37 -11l-32 8v95h-214v79z"/>
    <glyph glyph-name="uni0218.ss04" horiz-adv-x="622" d="M60 75h286q62 0 98.5 29.5t36.5 82.5q0 51 -30 76.5t-91 38.5l-101 22q-44 10 -75 21.5t-60 32.5t-43.5 54t-14.5 79q0 89 64 139t172 50h247v-79h-247q-65 0 -101.5 -28t-36.5 -78t31 -73t93 -37l110 -24q90 -20 134.5 -64.5t44.5 -124.5q0 -92 -59.5 -144t-162.5 -52 h-295v79zM303 -182q-30 2 -48.5 19.5t-18.5 45.5q0 29 20 47t51 18t51 -18t20 -47q0 -44 -41 -60v-55l-117 -69v71z"/>
    <glyph glyph-name="i.loclTRK" horiz-adv-x="238" d="M75 500h88v-500h-88v500zM56 722q25 23 62 23t61.5 -23t24.5 -60q0 -36 -25 -59.5t-61 -23.5q-37 0 -62 23t-25 60t25 60z"/>
    <glyph glyph-name="x.001" horiz-adv-x="648" d="M23 0l237 248l-232 252h111l187 -200l187 200h105l-231 -247l238 -253h-111l-193 199l-193 -199h-105z"/>
    <glyph glyph-name="y.ss01" horiz-adv-x="614" d="M15 500h100l193 -303l193 303h98l-438 -700h-96l193 312z"/>
    <glyph glyph-name="yacute.ss01" horiz-adv-x="614" d="M115 500l193 -303l193 303h98l-438 -700h-96l193 312l-243 388h100zM185 593v80l246 64v-81z"/>
    <glyph glyph-name="ycircumflex.ss01" horiz-adv-x="614" d="M115 500l193 -303l193 303h98l-438 -700h-96l193 312l-243 388h100zM140 671l168 71l169 -71v-81l-169 72l-168 -72v81z"/>
    <glyph glyph-name="ydieresis.ss01" horiz-adv-x="614" d="M115 500l193 -303l193 303h98l-438 -700h-96l193 312l-243 388h100zM346 662q0 37 24.5 60t61.5 23t62 -23t25 -60q0 -36 -25 -59q-25 -24 -62 -24t-61.5 23t-24.5 60zM97 662q0 37 25 60t62 23t61.5 -23t24.5 -60q0 -36 -25 -59.5t-61 -23.5q-37 0 -62 23t-25 60z"/>
    <glyph glyph-name="ygrave.ss01" horiz-adv-x="614" d="M115 500l193 -303l193 303h98l-438 -700h-96l193 312l-243 388h100zM185 656v81l246 -64v-80z"/>
    <glyph glyph-name="a.ss02" horiz-adv-x="791" d="M45 250q0 118 85 189t226 71q87 0 162 -29t120 -80v97h78v-498h-78v97l-1 2q-46 -50 -120.5 -79.5t-160.5 -29.5q-141 0 -226 71.5t-85 188.5zM202 118q62 -49 161 -49q82 0 154 33.5t111 90.5v115q-40 56 -111.5 89.5t-153.5 33.5q-99 0 -161.5 -49t-62.5 -132t63 -132z "/>
    <glyph glyph-name="aacute.ss02" horiz-adv-x="791" d="M45 250q0 118 85 189t226 71q87 0 162 -29t120 -80v97h78v-498h-78v97l-1 2q-46 -50 -120.5 -79.5t-160.5 -29.5q-141 0 -226 71.5t-85 188.5zM202 118q62 -49 161 -49q82 0 154 33.5t111 90.5v115q-40 56 -111.5 89.5t-153.5 33.5q-99 0 -161.5 -49t-62.5 -132t63 -132z M274 673l246 64v-81l-246 -63v80z"/>
    <glyph glyph-name="abreve.ss02" horiz-adv-x="791" d="M130 439q85 71 226 71q87 0 162 -29t120 -80v97h78v-498h-78v97l-1 2q-46 -50 -120.5 -79.5t-160.5 -29.5q-141 0 -226 71.5t-85 188.5q0 118 85 189zM202 118q62 -49 161 -49q82 0 154 33.5t111 90.5v115q-40 56 -111.5 89.5t-153.5 33.5q-99 0 -161.5 -49t-62.5 -132 t63 -132zM311 750v-16q0 -32 22.5 -50.5t59.5 -18.5q38 0 60.5 19t22.5 50v16h78v-21q0 -59 -44 -95t-117 -36q-72 0 -116.5 36t-44.5 95v21h79z"/>
    <glyph glyph-name="acircumflex.ss02" horiz-adv-x="791" d="M130 439q85 71 226 71q87 0 162 -29t120 -80v97h78v-498h-78v97l-1 2q-46 -50 -120.5 -79.5t-160.5 -29.5q-141 0 -226 71.5t-85 188.5q0 118 85 189zM202 118q62 -49 161 -49q82 0 154 33.5t111 90.5v115q-40 56 -111.5 89.5t-153.5 33.5q-99 0 -161.5 -49t-62.5 -132 t63 -132zM397 742l169 -71v-81l-169 72l-168 -72v81z"/>
    <glyph glyph-name="adieresis.ss02" horiz-adv-x="791" d="M45 250q0 118 85 189t226 71q87 0 162 -29t120 -80v97h78v-498h-78v97l-1 2q-46 -50 -120.5 -79.5t-160.5 -29.5q-141 0 -226 71.5t-85 188.5zM202 118q62 -49 161 -49q82 0 154 33.5t111 90.5v115q-40 56 -111.5 89.5t-153.5 33.5q-99 0 -161.5 -49t-62.5 -132t63 -132z M435 662q0 37 24.5 60t61.5 23t62 -23t25 -60q0 -36 -25 -59q-25 -24 -62 -24t-61.5 23t-24.5 60zM186 662q0 37 25 60t62 23t61.5 -23t24.5 -60q0 -36 -25 -59.5t-61 -23.5q-37 0 -62 23t-25 60z"/>
    <glyph glyph-name="agrave.ss02" horiz-adv-x="791" d="M45 250q0 118 85 189t226 71q87 0 162 -29t120 -80v97h78v-498h-78v97l-1 2q-46 -50 -120.5 -79.5t-160.5 -29.5q-141 0 -226 71.5t-85 188.5zM202 118q62 -49 161 -49q82 0 154 33.5t111 90.5v115q-40 56 -111.5 89.5t-153.5 33.5q-99 0 -161.5 -49t-62.5 -132t63 -132z M274 737l246 -64v-80l-246 63v81z"/>
    <glyph glyph-name="amacron.ss02" horiz-adv-x="791" d="M45 250q0 118 85 189t226 71q87 0 162 -29t120 -80v97h78v-498h-78v97l-1 2q-46 -50 -120.5 -79.5t-160.5 -29.5q-141 0 -226 71.5t-85 188.5zM202 118q62 -49 161 -49q82 0 154 33.5t111 90.5v115q-40 56 -111.5 89.5t-153.5 33.5q-99 0 -161.5 -49t-62.5 -132t63 -132z M249 693h296v-70h-296v70z"/>
    <glyph glyph-name="aogonek.ss02" horiz-adv-x="791" d="M130 439q85 71 226 71q87 0 162 -29t120 -80v97h78v-498h-22q-42 -22 -42 -65q0 -28 20.5 -44t55.5 -16q32 0 55 10l-1 -58q-28 -13 -70 -13q-57 0 -90.5 27t-33.5 73q0 57 50 91v92l-1 2q-46 -50 -120.5 -79.5t-160.5 -29.5q-141 0 -226 71.5t-85 188.5q0 118 85 189z M139 250q0 -83 62.5 -132t161.5 -49q82 0 154 33.5t111 90.5v115q-40 56 -111.5 89.5t-153.5 33.5q-99 0 -161.5 -49t-62.5 -132z"/>
    <glyph glyph-name="aring.ss02" horiz-adv-x="791" d="M130 439q85 71 226 71q87 0 162 -29t120 -80v97h78v-498h-78v97l-1 2q-46 -50 -120.5 -79.5t-160.5 -29.5q-141 0 -226 71.5t-85 188.5q0 118 85 189zM202 118q62 -49 161 -49q82 0 154 33.5t111 90.5v115q-40 56 -111.5 89.5t-153.5 33.5q-99 0 -161.5 -49t-62.5 -132 t63 -132zM277 681q0 48 33 76.5t87 28.5t87 -28.5t33 -76.5t-33 -76q-33 -29 -87 -29t-87 28.5t-33 76.5zM346 681q0 -22 14 -34.5t37 -12.5t37 12.5t14 34.5q0 21 -14 35q-15 13 -37 13t-36.5 -13.5t-14.5 -34.5z"/>
    <glyph glyph-name="atilde.ss02" horiz-adv-x="791" d="M130 439q85 71 226 71q87 0 162 -29t120 -80v97h78v-498h-78v97l-1 2q-46 -50 -120.5 -79.5t-160.5 -29.5q-141 0 -226 71.5t-85 188.5q0 118 85 189zM202 118q62 -49 161 -49q82 0 154 33.5t111 90.5v115q-40 56 -111.5 89.5t-153.5 33.5q-99 0 -161.5 -49t-62.5 -132 t63 -132zM222 670v95h69v-70q0 -26 20 -26q15 0 36 26l31 36q37 42 81 42q36 0 58 -23.5t22 -62.5v-89h-69v67q0 33 -25 33q-4 0 -8.5 -1t-7 -2.5t-6.5 -5t-6 -5.5t-6.5 -7t-6.5 -7l-34 -39q-34 -36 -75 -36q-33 0 -53 20.5t-20 54.5z"/>
    <glyph glyph-name="b.ss02" horiz-adv-x="791" d="M163 800v-388q47 46 118.5 72t153.5 26q141 0 226 -71t85 -189q0 -117 -85 -188.5t-226 -71.5q-86 0 -160.5 29.5t-120.5 79.5l-1 -2v-97h-78v745zM163 308v-115q39 -57 111 -90.5t154 -33.5q99 0 161.5 49t62.5 132t-62.5 132t-161.5 49q-82 0 -153.5 -33.5 t-111.5 -89.5z"/>
    <glyph glyph-name="d.ss02" horiz-adv-x="791" d="M45 250q0 118 85 189t226 71q82 0 153.5 -26t118.5 -72v333l88 55v-800h-78v97l-1 2q-46 -50 -120.5 -79.5t-160.5 -29.5q-141 0 -226 71.5t-85 188.5zM202 118q62 -49 161 -49q82 0 154 33.5t111 90.5v115q-40 56 -111.5 89.5t-153.5 33.5q-99 0 -161.5 -49t-62.5 -132 t63 -132z"/>
    <glyph glyph-name="dcaron.ss02" horiz-adv-x="912" d="M130 439q85 71 226 71q82 0 153.5 -26t118.5 -72v333l88 55v-800h-78v97l-1 2q-46 -50 -120.5 -79.5t-160.5 -29.5q-141 0 -226 71.5t-85 188.5q0 118 85 189zM139 250q0 -83 62.5 -132t161.5 -49q82 0 154 33.5t111 90.5v115q-40 56 -111.5 89.5t-153.5 33.5 q-99 0 -161.5 -49t-62.5 -132zM813 531v229l79 40v-269h-79z"/>
    <glyph glyph-name="dcroat.ss02" horiz-adv-x="791" d="M45 250q0 118 85 189t226 71q82 0 153.5 -26t118.5 -72v221h-173v67h173v45l88 55v-100h76v-67h-76v-633h-78v97l-1 2q-46 -50 -120.5 -79.5t-160.5 -29.5q-141 0 -226 71.5t-85 188.5zM202 118q62 -49 161 -49q82 0 154 33.5t111 90.5v115q-40 56 -111.5 89.5 t-153.5 33.5q-99 0 -161.5 -49t-62.5 -132t63 -132z"/>
    <glyph glyph-name="f.ss02" horiz-adv-x="467" d="M30 500h152v116q0 98 53 145t135 47q47 0 74 -11v-82q-24 9 -55 9q-57 0 -88.5 -27t-31.5 -95v-102h170v-77h-170v-423h-87v423h-152v77z"/>
    <glyph glyph-name="i.ss02" horiz-adv-x="519" d="M45 77h181v346h-161v77h249v-423h160v-77h-429v77zM168 662q0 37 25 60t62 23t61.5 -23t24.5 -60q0 -36 -25 -59.5t-61 -23.5q-37 0 -62 23t-25 60z"/>
    <glyph glyph-name="dotlessi.ss02" horiz-adv-x="519" d="M226 77v346h-161v77h249v-423h160v-77h-429v77h181z"/>
    <glyph glyph-name="iacute.ss02" horiz-adv-x="519" d="M226 77v346h-161v77h249v-423h160v-77h-429v77h181zM147 673l246 64v-81l-246 -63v80z"/>
    <glyph glyph-name="icircumflex.ss02" horiz-adv-x="519" d="M226 77v346h-161v77h249v-423h160v-77h-429v77h181zM102 671l168 71l169 -71v-81l-169 72l-168 -72v81z"/>
    <glyph glyph-name="idieresis.ss02" horiz-adv-x="519" d="M226 77v346h-161v77h249v-423h160v-77h-429v77h181zM308 662q0 37 24.5 60t61.5 23t62 -23t25 -60q0 -36 -25 -59q-25 -24 -62 -24t-61.5 23t-24.5 60zM59 662q0 37 25 60t62 23t61.5 -23t24.5 -60q0 -36 -25 -59.5t-61 -23.5q-37 0 -62 23t-25 60z"/>
    <glyph glyph-name="i.loclTRK.ss02" horiz-adv-x="519" d="M45 77h181v346h-161v77h249v-423h160v-77h-429v77zM182 662q0 37 25 60t62 23t61.5 -23t24.5 -60q0 -36 -25 -59.5t-61 -23.5q-37 0 -62 23t-25 60z"/>
    <glyph glyph-name="igrave.ss02" horiz-adv-x="519" d="M45 77h181v346h-161v77h249v-423h160v-77h-429v77zM393 673v-80l-246 63v81z"/>
    <glyph glyph-name="imacron.ss02" horiz-adv-x="519" d="M45 77h181v346h-161v77h249v-423h160v-77h-429v77zM418 693v-70h-296v70h296z"/>
    <glyph glyph-name="iogonek.ss02" horiz-adv-x="519" d="M45 0v77h181v346h-161v77h249v-423h160v-77h-77q-52 -23 -52 -70q0 -28 20.5 -44t55.5 -16q32 0 55 10l-1 -58q-28 -13 -70 -13q-57 0 -90.5 27t-33.5 73q0 57 50 91h-286zM207 722q25 23 62 23t61.5 -23t24.5 -60q0 -36 -25 -59.5t-61 -23.5q-37 0 -62 23t-25 60t25 60z "/>
    <glyph glyph-name="j.ss02" horiz-adv-x="315" d="M196 579q-37 0 -61.5 23t-24.5 60t24.5 60t61.5 23t62 -23t25 -60q0 -36 -25 -59.5t-62 -23.5zM46 -215q-103 0 -150 62l46 53q31 -42 95 -42q52 0 84 30t32 78v457h-168v77h255v-539q0 -79 -53.5 -127.5t-140.5 -48.5z"/>
    <glyph glyph-name="k.ss02" horiz-adv-x="584" d="M163 800v-500h184l129 200h100l-153 -228l159 -272h-100l-134 223h-185v-223h-88v745z"/>
    <glyph glyph-name="uni0137.ss02" horiz-adv-x="584" d="M75 745l88 55v-500h184l129 200h100l-153 -228l159 -272h-100l-134 223h-185v-223h-88v745zM228 -301v71l83 48q-30 2 -48.5 19.5t-18.5 45.5q0 29 20 47t51 18t51 -18t20 -47q0 -44 -41 -60v-55z"/>
    <glyph glyph-name="l.ss02" horiz-adv-x="519" d="M226 77v646h-161v77h249v-723h160v-77h-429v77h181z"/>
    <glyph glyph-name="o.ss02" horiz-adv-x="1205" d="M75 0v500h1055v-500h-1055zM163 77h880v346h-880v-346z"/>
    <glyph glyph-name="oacute.ss02" horiz-adv-x="1205" d="M726 737v-81l-246 -63v80zM75 0v500h1055v-500h-1055zM163 77h880v346h-880v-346z"/>
    <glyph glyph-name="ocircumflex.ss02" horiz-adv-x="1205" d="M435 590v81l168 71l169 -71v-81l-169 72zM75 0v500h1055v-500h-1055zM163 77h880v346h-880v-346z"/>
    <glyph glyph-name="odieresis.ss02" horiz-adv-x="1205" d="M1130 500v-500h-1055v500h1055zM163 77h880v346h-880v-346zM666 722q24 23 61 23t62 -23t25 -60q0 -36 -25 -59q-25 -24 -62 -24t-61.5 23t-24.5 60t25 60zM392 662q0 37 25 60t62 23t61.5 -23t24.5 -60q0 -36 -25 -59.5t-61 -23.5q-37 0 -62 23t-25 60z"/>
    <glyph glyph-name="ograve.ss02" horiz-adv-x="1205" d="M480 737l246 -64v-80l-246 63v81zM75 0v500h1055v-500h-1055zM163 77h880v346h-880v-346z"/>
    <glyph glyph-name="ohungarumlaut.ss02" horiz-adv-x="1205" d="M412 589v81l199 63v-50l180 57v-80l-199 -64v51zM75 0v500h1055v-500h-1055zM163 77h880v346h-880v-346z"/>
    <glyph glyph-name="omacron.ss02" horiz-adv-x="1205" d="M455 693h296v-70h-296v70zM75 0v500h1055v-500h-1055zM163 77h880v346h-880v-346z"/>
    <glyph glyph-name="oslash.ss02" horiz-adv-x="1168" d="M75 500h1055v-500h-1055v500zM1043 77v346h-16l-716 -346h732zM163 94l682 329h-682v-329z"/>
    <glyph glyph-name="otilde.ss02" horiz-adv-x="1205" d="M75 0v500h1055v-500h-1055zM163 77h880v346h-880v-346zM497 765v-70q0 -26 20 -26q15 0 36 26l31 36q37 42 81 42q36 0 58 -23.5t22 -62.5v-89h-69v67q0 33 -25 33q-4 0 -8.5 -1t-7 -2.5t-6.5 -5t-6 -5.5t-6.5 -7t-6.5 -7l-34 -39q-34 -36 -75 -36q-33 0 -53 20.5 t-20 54.5v95h69z"/>
    <glyph glyph-name="p.ss02" horiz-adv-x="791" d="M75 -200v700h78v-95l1 -3q46 50 121.5 79t159.5 29q141 0 226 -71t85 -189q0 -117 -85 -188.5t-226 -71.5q-81 0 -153 26.5t-119 72.5v-289h-88zM163 308v-115q39 -57 111 -90.5t154 -33.5q99 0 161.5 49t62.5 132t-62.5 132t-161.5 49q-82 0 -153.5 -33.5t-111.5 -89.5z "/>
    <glyph glyph-name="thorn.ss02" horiz-adv-x="791" d="M435 510q141 0 226 -71t85 -189q0 -117 -85 -188.5t-226 -71.5q-81 0 -153 26.5t-119 72.5v-289h-88v950h88v-339q48 46 120 72.5t152 26.5zM428 69q99 0 161.5 49t62.5 132t-62.5 132t-161.5 49q-82 0 -153.5 -33.5t-111.5 -89.5v-115q39 -57 111 -90.5t154 -33.5z"/>
    <glyph glyph-name="q.ss02" horiz-adv-x="791" d="M45 250q0 118 85 189t226 71q87 0 162 -29t120 -80v97h78v-698h-88v289q-47 -46 -119 -72.5t-153 -26.5q-141 0 -226 71.5t-85 188.5zM202 118q62 -49 161 -49q82 0 154 33.5t111 90.5v115q-40 56 -111.5 89.5t-153.5 33.5q-99 0 -161.5 -49t-62.5 -132t63 -132z"/>
    <glyph glyph-name="f.ss03" horiz-adv-x="467" d="M30 500h152v46l262 255v-108l-199 -193h194v-77h-170v-423h-87v423h-152v77z"/>
    <glyph glyph-name="h.ss03" horiz-adv-x="638" d="M162 800v-530l401 239v-509h-87v368l-314 -188v-180h-87v745z"/>
    <glyph glyph-name="m.ss03" horiz-adv-x="940" d="M162 500v-227l352 236v-237l351 237v-509h-87v361l-264 -179v-182h-88v361l-264 -178v-183h-87v500h87z"/>
    <glyph glyph-name="n.ss03" horiz-adv-x="638" d="M162 500v-230l401 239v-509h-87v368l-314 -188v-180h-87v500h87z"/>
    <glyph glyph-name="nacute.ss03" horiz-adv-x="638" d="M75 500h87v-230l401 239v-509h-87v368l-314 -188v-180h-87v500zM206 593v80l246 64v-81z"/>
    <glyph glyph-name="ncaron.ss03" horiz-adv-x="638" d="M75 500h87v-230l401 239v-509h-87v368l-314 -188v-180h-87v500zM161 662v80l168 -71l169 71v-80l-169 -72z"/>
    <glyph glyph-name="uni0146.ss03" horiz-adv-x="638" d="M162 500v-230l401 239v-509h-87v368l-314 -188v-180h-87v500h87zM242 -301v71l83 48q-30 2 -48.5 19.5t-18.5 45.5q0 29 20 47t51 18t51 -18t20 -47q0 -44 -41 -60v-55z"/>
    <glyph glyph-name="eng.ss03" horiz-adv-x="638" d="M75 0v500h87v-227l401 236v-561q0 -72 -45.5 -114.5t-126.5 -42.5q-56 0 -96 21t-55 59l67 37q14 -44 79 -44q42 0 66 23t24 63v411l-314 -179v-182h-87z"/>
    <glyph glyph-name="ntilde.ss03" horiz-adv-x="638" d="M75 500h87v-230l401 239v-509h-87v368l-314 -188v-180h-87v500zM154 765h69v-70q0 -26 20 -26q15 0 36 26l31 36q37 42 81 42q36 0 58 -23.5t22 -62.5v-89h-69v67q0 33 -25 33q-4 0 -8.5 -1t-7 -2.5t-6.5 -5t-6 -5.5t-6.5 -7t-6.5 -7l-34 -39q-34 -36 -75 -36 q-33 0 -53 20.5t-20 54.5v95z"/>
    <glyph glyph-name="q.ss03" horiz-adv-x="628" d="M124 435q78 75 201 75t201.5 -75t78.5 -185q0 -94 -60 -164.5t-158 -89.5l103 -196h-113l-55 190q-122 1 -199.5 76t-77.5 184q0 110 79 185zM131 250q0 -78 55 -130.5t139 -52.5q85 0 140 52t55 131t-55 131t-140 52q-84 0 -139 -52t-55 -131zM249 250q0 31 21.5 52.5 t54.5 21.5q34 0 55.5 -21.5t21.5 -52.5t-21.5 -52t-55.5 -21q-33 0 -54.5 21t-21.5 52z"/>
    <glyph glyph-name="s.ss03" horiz-adv-x="515" d="M45 362q0 62 44 100t126 38h238v-77h-233q-41 0 -62.5 -17t-21.5 -47q0 -48 63 -61l143 -26q135 -25 135 -139q0 -63 -44 -98t-118 -35h-260v73h248q37 0 56.5 16.5t19.5 44.5q0 53 -65 65l-138 25q-131 25 -131 138z"/>
    <glyph glyph-name="sacute.ss03" horiz-adv-x="515" d="M45 362q0 62 44 100t126 38h238v-77h-233q-41 0 -62.5 -17t-21.5 -47q0 -48 63 -61l143 -26q135 -25 135 -139q0 -63 -44 -98t-118 -35h-260v73h248q37 0 56.5 16.5t19.5 44.5q0 53 -65 65l-138 25q-131 25 -131 138zM133 673l246 64v-81l-246 -63v80z"/>
    <glyph glyph-name="scaron.ss03" horiz-adv-x="515" d="M45 362q0 62 44 100t126 38h238v-77h-233q-41 0 -62.5 -17t-21.5 -47q0 -48 63 -61l143 -26q135 -25 135 -139q0 -63 -44 -98t-118 -35h-260v73h248q37 0 56.5 16.5t19.5 44.5q0 53 -65 65l-138 25q-131 25 -131 138zM256 671l169 71v-80l-169 -72l-168 72v80z"/>
    <glyph glyph-name="scedilla.ss03" horiz-adv-x="515" d="M45 362q0 62 44 100t126 38h238v-77h-233q-41 0 -62.5 -17t-21.5 -47q0 -48 63 -61l143 -26q135 -25 135 -139q0 -63 -44 -98t-118 -35h-26v-51q14 2 22 2q42 0 71 -27t29 -69q0 -50 -34.5 -79.5t-88.5 -29.5q-47 0 -81.5 25t-43.5 63l65 16q4 -22 20 -35t40 -13 q26 0 41.5 14t15.5 37t-14.5 37t-38.5 14t-37 -11l-32 8v99h-168v73h248q37 0 56.5 16.5t19.5 44.5q0 53 -65 65l-138 25q-131 25 -131 138z"/>
    <glyph glyph-name="uni0219.ss03" horiz-adv-x="515" d="M45 362q0 62 44 100t126 38h238v-77h-233q-41 0 -62.5 -17t-21.5 -47q0 -48 63 -61l143 -26q135 -25 135 -139q0 -63 -44 -98t-118 -35h-260v73h248q37 0 56.5 16.5t19.5 44.5q0 53 -65 65l-138 25q-131 25 -131 138zM169 -301v71l83 48q-30 2 -48.5 19.5t-18.5 45.5 q0 29 20 47t51 18t51 -18t20 -47q0 -44 -41 -60v-55z"/>
    <glyph glyph-name="t.ss03" horiz-adv-x="445" d="M250 623v-123h165v-78h-165v-422h-88v422h-147v13z"/>
    <glyph glyph-name="u.ss03" horiz-adv-x="618" d="M75 0v500h88v-423h293v423h87v-500h-468z"/>
    <glyph glyph-name="uacute.ss03" horiz-adv-x="618" d="M75 0v500h88v-423h293v423h87v-500h-468zM186 673l246 64v-81l-246 -63v80z"/>
    <glyph glyph-name="ucircumflex.ss03" horiz-adv-x="618" d="M75 500h88v-423h293v423h87v-500h-468v500zM141 590v81l168 71l169 -71v-81l-169 72z"/>
    <glyph glyph-name="udieresis.ss03" horiz-adv-x="618" d="M75 0v500h88v-423h293v423h87v-500h-468zM347 662q0 37 24.5 60t61.5 23t62 -23t25 -60q0 -36 -25 -59q-25 -24 -62 -24t-61.5 23t-24.5 60zM123 722q25 23 62 23t61.5 -23t24.5 -60q0 -36 -25 -59.5t-61 -23.5q-37 0 -62 23t-25 60t25 60z"/>
    <glyph glyph-name="ugrave.ss03" horiz-adv-x="618" d="M75 0v500h88v-423h293v423h87v-500h-468zM186 737l246 -64v-80l-246 63v81z"/>
    <glyph glyph-name="uhungarumlaut.ss03" horiz-adv-x="618" d="M75 500h88v-423h293v423h87v-500h-468v500zM118 589v81l199 63v-50l180 57v-80l-199 -64v51z"/>
    <glyph glyph-name="umacron.ss03" horiz-adv-x="618" d="M75 500h88v-423h293v423h87v-500h-468v500zM161 623v70h296v-70h-296z"/>
    <glyph glyph-name="uogonek.ss03" horiz-adv-x="618" d="M75 0v500h88v-423h293v423h87v-500h-76q-52 -23 -52 -70q0 -28 20.5 -44t55.5 -16q32 0 55 10l-1 -58q-28 -13 -70 -13q-57 0 -90.5 27t-33.5 73q0 57 50 91h-326z"/>
    <glyph glyph-name="uring.ss03" horiz-adv-x="618" d="M75 0v500h88v-423h293v423h87v-500h-468zM222 758q33 28 87 28t87 -28.5t33 -76.5t-33 -76q-33 -29 -87 -29t-87 28.5t-33 76.5t33 77zM272 647q14 -13 37 -13t37 12.5t14 34.5q0 21 -14 35q-15 13 -37 13t-36.5 -13.5t-14.5 -34.5q0 -22 14 -34z"/>
    <glyph glyph-name="y.ss03" horiz-adv-x="619" d="M114 500l196 -303l196 303h98l-250 -380v-320h-87v320l-252 380h99z"/>
    <glyph glyph-name="yacute.ss03" horiz-adv-x="619" d="M114 500l196 -303l196 303h98l-250 -380v-320h-87v320l-252 380h99zM187 593v80l246 64v-81z"/>
    <glyph glyph-name="ycircumflex.ss03" horiz-adv-x="619" d="M114 500l196 -303l196 303h98l-250 -380v-320h-87v320l-252 380h99zM142 590v81l168 71l169 -71v-81l-169 72z"/>
    <glyph glyph-name="ydieresis.ss03" horiz-adv-x="619" d="M114 500l196 -303l196 303h98l-250 -380v-320h-87v320l-252 380h99zM373 722q24 23 61 23t62 -23t25 -60q0 -36 -25 -59q-25 -24 -62 -24t-61.5 23t-24.5 60t25 60zM124 722q25 23 62 23t61.5 -23t24.5 -60q0 -36 -25 -59.5t-61 -23.5q-37 0 -62 23t-25 60t25 60z"/>
    <glyph glyph-name="ygrave.ss03" horiz-adv-x="619" d="M114 500l196 -303l196 303h98l-250 -380v-320h-87v320l-252 380h99zM187 656v81l246 -64v-80z"/>
    <glyph glyph-name="k.ss05" horiz-adv-x="599" d="M75 0v750l88 50v-554l403 264v-86l-178 -117l215 -307h-100l-186 260l-49 -28l-105 -66v-166h-88z"/>
    <glyph glyph-name="s.ss05" horiz-adv-x="532" d="M45 0v78h341l-321 339v83h419v-78h-309l319 -339v-83h-449z"/>
    <glyph glyph-name="sacute.ss05" horiz-adv-x="532" d="M390 737v-81l-246 -63v80zM45 0v78h341l-321 339v83h419v-78h-309l319 -339v-83h-449z"/>
    <glyph glyph-name="scaron.ss05" horiz-adv-x="532" d="M99 742l168 -71l169 71v-80l-169 -72l-168 72v80zM45 0v78h341l-321 339v83h419v-78h-309l319 -339v-83h-449z"/>
    <glyph glyph-name="scedilla.ss05" horiz-adv-x="532" d="M45 0v78h341l-321 339v83h419v-78h-309l319 -339v-83h-194v-51q14 2 22 2q42 0 71 -27t29 -69q0 -50 -34.5 -79.5t-88.5 -29.5q-47 0 -81.5 25t-43.5 63l65 16q4 -22 20 -35t40 -13q26 0 41.5 14t15.5 37t-14.5 37t-38.5 14t-37 -11l-32 8v99h-189z"/>
    <glyph glyph-name="uni0219.ss05" horiz-adv-x="532" d="M386 78l-321 339v83h419v-78h-309l319 -339v-83h-449v78h341zM180 -301v71l83 48q-30 2 -48.5 19.5t-18.5 45.5q0 29 20 47t51 18t51 -18t20 -47q0 -44 -41 -60v-55z"/>
    <glyph glyph-name="e.ss08" horiz-adv-x="643" d="M-377 733q208 131 554 139v25q0 184 -41 330l89 -10q44 -158 44 -338v-8q258 -12 401 -126t143 -298q0 -199 -129.5 -328t-338.5 -129q-125 0 -205 63t-93 162q-124 -121 -304 -121q-155 0 -241.5 79t-86.5 211q0 217 208 349zM-495 384q0 -95 63 -151.5t175 -56.5 q86 0 156.5 35t118 93.5t81.5 139t51.5 166.5t23.5 182q-309 -7 -489 -117.5t-180 -290.5zM136 244q2 -75 58.5 -123.5t150.5 -48.5q176 0 277 103.5t101 262.5q0 158 -123 250t-333 103q-11 -166 -57 -302q52 21 115 21q123 0 201.5 -75t78.5 -185v-6h-469zM141 292h369 q-14 61 -64 99q-51 37 -121 37t-120 -37.5t-64 -98.5z"/>
    <glyph glyph-name="F_t_f.dlig" horiz-adv-x="1120" d="M90 0v700h396v-79h-303v-237h347v115l88 55v-170h217v134q0 98 53 145t135 47q47 0 74 -11v-82q-24 9 -55 9q-57 0 -88.5 -27t-31.5 -95v-120h170v-77h-170v-307h-87v307h-217v-307h-88v307h-347v-307h-93z"/>
    <glyph glyph-name="f_t_f.dlig" horiz-adv-x="1151" d="M1073 724q-57 0 -88.5 -27t-31.5 -95v-102h170v-77h-170v-423h-87v423h-231v-423h-88v423h-278v-423h-87v423h-152v77h152v116q0 98 53 145t135 47q47 0 74 -11v-82q-24 9 -55 9q-57 0 -88.5 -27t-31.5 -95v-102h278v155l88 55v-210h231v116q0 98 53 145t135 47 q46 0 74 -11v-82q-24 9 -55 9z"/>
    <glyph glyph-name="s_s.dlig" horiz-adv-x="825" d="M38 1v82q24 -9 55 -9q57 0 88.5 27t31.5 95v120q0 98 53 145t135 47q47 0 74 -11v-82q-24 9 -55 9q-57 0 -88.5 -27t-31.5 -95v-120q0 -98 -53 -145t-135 -47q-46 0 -74 11zM365 1v82q24 -9 55 -9q57 0 88.5 27t31.5 95v120q0 98 53 145t135 47q46 0 74 -11v-82 q-24 9 -55 9q-57 0 -88.5 -27t-31.5 -95v-120q0 -98 -53 -145t-135 -47q-47 0 -74 11z"/>
    <glyph glyph-name="f_f_i.liga.ss02" horiz-adv-x="1254" d="M1049 77h160v-77h-429v77h181v346h-335v-423h-87v423h-270v-423h-87v423h-152v77h152v116q0 98 53 145t135 47q47 0 74 -11v-82q-24 9 -55 9q-57 0 -88.5 -27t-31.5 -95v-102h270v116q0 98 53 145t135 47q47 0 74 -11v-82q-24 9 -55 9q-57 0 -88.5 -27t-31.5 -95v-102 h423v-423zM990 579q-37 0 -62 23t-25 60t25 60t62 23t61.5 -23t24.5 -60q0 -36 -25 -59.5t-61 -23.5z"/>
    <glyph glyph-name="f_f_l.liga.ss02" horiz-adv-x="1256" d="M1051 77h160v-77h-429v77h181v646h-214q-57 0 -88.5 -27t-31.5 -95v-101h170v-77h-170v-423h-87v423h-273v-423h-87v423h-152v77h152v116q0 98 53 145t135 47q47 0 74 -11v-82q-24 9 -55 9q-57 0 -88.5 -27t-31.5 -95v-102h273v116q0 96 54 140t134 44h321v-723z"/>
    <glyph glyph-name="fi.liga.ss02" horiz-adv-x="896" d="M691 77h160v-77h-429v77h181v346h-334v-423h-87v423h-152v77h152v116q0 98 53 145t135 47q47 0 74 -11v-82q-24 9 -55 9q-57 0 -88.5 -27t-31.5 -95v-102h422v-423zM632 579q-37 0 -62 23t-25 60t25 60t62 23t61.5 -23t24.5 -60q0 -36 -25 -59.5t-61 -23.5z"/>
    <glyph glyph-name="fl.liga.ss02" horiz-adv-x="906" d="M701 77h160v-77h-429v77h181v646h-224q-57 0 -88.5 -27t-31.5 -95v-101h170v-77h-170v-423h-87v423h-152v77h152v116q0 96 54 140t134 44h331v-723z"/>
    <glyph glyph-name="i_t_i.liga.ss02" horiz-adv-x="1304" d="M168 662q0 37 25 60t62 23t61.5 -23t24.5 -60q0 -36 -25 -59.5t-61 -23.5q-37 0 -62 23t-25 60zM953 662q0 37 25 60t62 23t61.5 -23t24.5 -60q0 -36 -25 -59.5t-61 -23.5q-37 0 -62 23t-25 60zM45 0v77h181v346h-161v77h536v155l87 55v-210h411v-423h160v-77h-429v77 h181v346h-323v-423h-87v423h-287v-346h160v-77h-429z"/>
    <glyph glyph-name="l_i.liga.ss02" horiz-adv-x="937" d="M732 77h160v-77h-847v77h181v646h-161v77h249v-723h330v346h-161v77h249v-423zM673 579q-37 0 -62 23t-25 60t25 60t62 23t61.5 -23t24.5 -60q0 -36 -25 -59.5t-61 -23.5z"/>
    <glyph glyph-name="l_l.liga.ss02" horiz-adv-x="939" d="M734 77h160v-77h-849v77h181v646h-161v77h249v-723h332v646h-161v77h249v-723z"/>
    <glyph glyph-name="l_l_i.liga.ss02" horiz-adv-x="1365" d="M1160 77h160v-77h-1275v77h181v646h-161v77h249v-723h332v646h-161v77h249v-723h338v346h-161v77h249v-423zM1101 579q-37 0 -62 23t-25 60t25 60t62 23t61.5 -23t24.5 -60q0 -36 -25 -59.5t-61 -23.5z"/>
    <glyph glyph-name="t_i.liga.ss02" horiz-adv-x="887" d="M536 662q0 37 25 60t62 23t61.5 -23t24.5 -60q0 -36 -25 -59.5t-61 -23.5q-37 0 -62 23t-25 60zM30 423v77h158v155l88 55v-210h406v-423h160v-77h-429v77h181v346h-318v-423h-88v423h-158z"/>
    <glyph glyph-name="f_f.liga.ss03" horiz-adv-x="782" d="M30 423v77h152v46l262 255v-108l-199 -193h251v46l263 255v-108l-199 -193h194v-77h-170v-423h-88v423h-227v-423h-87v423h-152z"/>
    <glyph glyph-name="f_f_i.liga.ss03" horiz-adv-x="1015" d="M30 423v77h152v46l262 255v-108l-199 -193h244v58l238 243v-111l-188 -190h401v-500h-87v423h-276v-423h-88v423h-220v-423h-87v423h-152zM810 714q0 37 24.5 60t61.5 23t62 -23t25 -60q0 -36 -25 -59.5t-62 -23.5t-61.5 23t-24.5 60z"/>
    <glyph glyph-name="f_t.liga.ss03" horiz-adv-x="933" d="M182 500v46l262 255v-108l-199 -193h194v-77h-170v-423h-87v423h-152v77h152zM738 500h165v-78h-165v-422h-88v422h-147v13l235 188v-123z"/>
    <glyph glyph-name="fi.liga.ss03" horiz-adv-x="718" d="M30 423v77h152v58l237 243v-111l-187 -190h411v-500h-88v423h-286v-423h-87v423h-152zM513 662q0 37 24.5 60t61.5 23t62 -23t25 -60q0 -36 -25 -59.5t-62 -23.5t-61.5 23t-24.5 60z"/>
    <glyph glyph-name="i_t_i.liga.ss03" horiz-adv-x="919" d="M118 579q-37 0 -61.5 23t-24.5 60t24.5 60t61.5 23t62 -23t25 -60q0 -36 -25 -59.5t-62 -23.5zM800 579q-37 0 -61.5 23t-24.5 60t24.5 60t61.5 23t62 -23t25 -60q0 -36 -25 -59.5t-62 -23.5zM252 422v13l235 188v-123h165v-78h-165v-422h-88v422h-147zM162 500v-500h-87 v500h87zM844 500v-500h-87v500h87z"/>
    <glyph glyph-name="q_j.liga.ss03" horiz-adv-x="910" d="M792 745q37 0 61.5 -23.5t24.5 -59.5t-24.5 -59.5t-61.5 -23.5q-38 0 -62.5 23t-24.5 60q0 36 25 59.5t62 23.5zM748 -22v522h88v-532q0 -86 -52 -134.5t-140 -48.5q-114 0 -190 119l-60 93q-31 -7 -69 -7q-123 0 -201.5 75t-78.5 185t78.5 185t201.5 75t201.5 -75 t78.5 -185q0 -72 -35.5 -131.5t-98.5 -93.5l56 -86q48 -74 114 -74q52 0 79.5 29.5t27.5 83.5zM131 250q0 -78 55 -130.5t139 -52.5q85 0 140 52t55 131t-55 131t-140 52q-84 0 -139 -52t-55 -131zM325 324q34 0 55.5 -21.5t21.5 -52.5t-21.5 -52t-55.5 -21q-33 0 -54.5 21 t-21.5 52t21.5 52.5t54.5 21.5z"/>
    <glyph glyph-name="s_s.liga.ss03" horiz-adv-x="1031" d="M55 0v73h273q37 0 56.5 16.5t19.5 44.5q0 53 -65 65l-159 26q-56 9 -95.5 41t-39.5 94q0 65 45 102.5t128 37.5h750v-77h-258q-83 0 -83 -64q0 -51 60 -60l170 -27q67 -10 101.5 -46.5t34.5 -92.5q0 -63 -44 -98t-118 -35h-776zM136 362q0 -52 65 -64l166 -26 q135 -21 135 -134q0 -47 -39 -70h354q37 0 57 17t20 46q0 57 -64 68l-164 25q-57 8 -93.5 38.5t-36.5 85.5t39 80h-349q-45 0 -67.5 -18t-22.5 -48z"/>
    <glyph glyph-name="s_t.liga.ss03" horiz-adv-x="890" d="M45 360q0 65 45.5 102.5t129.5 37.5h320l155 123v-123h165v-78h-165v-422h-88v425h-384q-87 0 -87 -64q0 -51 63 -63l143 -26q66 -12 100.5 -47.5t34.5 -89.5q0 -65 -45 -100t-121 -35h-256v73h248q76 0 76 62q0 52 -65 64l-136 26q-133 26 -133 135z"/>
    <glyph glyph-name="t_i.liga.ss03" horiz-adv-x="605" d="M400 662q0 37 25 60t62 23t61.5 -23t24.5 -60q0 -36 -25 -59.5t-61 -23.5q-37 0 -62 23t-25 60zM15 422v13l234 188v-123h282v-500h-88v422h-194v-422h-87v422h-147z"/>
    <glyph glyph-name="t_t.liga.ss03" horiz-adv-x="900" d="M15 422v13l235 188v-123h165v-78h-165v-422h-88v422h-147zM470 422v13l235 188v-123h165v-78h-165v-422h-88v422h-147z"/>
    <glyph glyph-name="S_S.liga.ss04" horiz-adv-x="1241" d="M1017 380q179 -38 179 -190q0 -91 -64.5 -142.5t-174.5 -51.5h-897v79h294q67 0 104.5 29.5t37.5 83.5q0 90 -121 115l-120 25q-94 20 -141.5 63.5t-47.5 118.5q0 90 65 140t176 50h861v-79h-258q-67 0 -105 -27.5t-38 -77.5q0 -49 31.5 -74t93.5 -37zM964 75 q62 0 98.5 30t36.5 83q0 48 -30.5 74.5t-90.5 39.5l-139 30q-83 18 -126 54.5t-43 103.5q0 46 23.5 80t64.5 51h-451q-67 0 -105 -27.5t-38 -77.5q0 -49 31.5 -74t92.5 -37l142 -28q162 -33 162 -168q0 -92 -81 -134h453z"/>
    <glyph glyph-name="s_s.liga.ss04" horiz-adv-x="1231" d="M55 0v73h373q76 0 76 62q0 58 -65 64l-249 25q-62 7 -103.5 39.5t-41.5 97.5t45 102t133 37h945v-77h-358q-83 0 -83 -64q0 -54 60 -60l255 -25q74 -7 112.5 -44t38.5 -95q0 -65 -46 -100t-126 -35h-966zM136 361q0 -57 67 -63l264 -26q65 -6 100 -41.5t35 -89.5 q0 -49 -38 -73h452q38 0 58 17.5t20 47.5q0 60 -67 66l-261 25q-54 5 -92 35t-38 89q0 55 39 80h-452q-43 0 -65 -18t-22 -49z"/>
    <glyph glyph-name="zero.tf" horiz-adv-x="650" d="M325 713q125 0 201.5 -96.5t76.5 -266.5q0 -168 -76.5 -264t-201.5 -96q-124 0 -200.5 96t-76.5 264q0 170 76 266.5t201 96.5zM325 637q-96 0 -143.5 -77t-47.5 -210q0 -69 14 -127l333 315q-47 99 -156 99zM325 66q96 0 143.5 76t47.5 208q0 71 -14 129l-333 -314 q48 -99 156 -99z"/>
    <glyph glyph-name="one.tf" horiz-adv-x="650" d="M69 0v85h217v491l-198 -176v103l230 200h62v-618h202v-85h-513z"/>
    <glyph glyph-name="two.tf" horiz-adv-x="650" d="M217 85h355v-85h-493v79l233 196q-18 -2 -23 -2q-90 0 -147.5 60.5t-57.5 152.5q0 100 69 163.5t174 63.5q103 0 169.5 -58t66.5 -160q0 -75 -31 -124.5t-94 -101.5zM174 485q0 -67 42 -110.5t109 -43.5t108 44t41 115q0 64 -41 105t-108 41q-66 0 -108.5 -42.5 t-42.5 -108.5z"/>
    <glyph glyph-name="three.tf" horiz-adv-x="650" d="M330 -10q-107 0 -177 52.5t-83 144.5l93 19q7 -63 52.5 -100t114.5 -37q71 0 114 38t43 97q0 52 -34.5 85.5t-97.5 33.5h-72v69h69q57 0 92 32t35 85q0 56 -38 89.5t-107 33.5q-59 0 -101 -33.5t-52 -88.5l-86 23q15 80 82.5 128.5t163.5 48.5q104 0 167 -53t63 -140 q0 -57 -31 -100.5t-82 -57.5q57 -13 89.5 -57t32.5 -108q0 -89 -72 -146.5t-178 -57.5z"/>
    <glyph glyph-name="four.tf" horiz-adv-x="650" d="M39 216v75l367 412h98v-408h108v-79h-108v-216h-93v216h-372zM137 295h274v304z"/>
    <glyph glyph-name="five.tf" horiz-adv-x="650" d="M354 456q101 0 168.5 -63t67.5 -163q0 -107 -74.5 -173.5t-188.5 -66.5q-100 0 -172.5 45t-95.5 119l87 27q14 -50 62 -80.5t114 -30.5q79 0 127 44.5t48 115.5q0 69 -46.5 111t-120.5 42q-67 0 -115.5 -29.5t-64.5 -81.5l-84 11l60 417h430v-85h-354l-34 -221 q29 29 78.5 45.5t107.5 16.5z"/>
    <glyph glyph-name="six.tf" horiz-adv-x="650" d="M345 463q101 0 166.5 -63.5t65.5 -164.5q0 -109 -71.5 -177t-190.5 -68q-105 0 -173.5 64t-68.5 163q0 55 20.5 107.5t65.5 134.5l134 244h107q-93 -160 -158 -262q36 22 103 22zM321 73q71 0 115 45t44 116q0 69 -44 114.5t-111 45.5q-70 0 -112 -47t-42 -122 q0 -68 41 -110t109 -42z"/>
    <glyph glyph-name="seven.tf" horiz-adv-x="650" d="M83 619v84h485v-75l-287 -628h-113l291 619h-376z"/>
    <glyph glyph-name="eight.tf" horiz-adv-x="650" d="M325 -10q-120 0 -193 57.5t-73 151.5q0 65 37 114t98 63q-50 17 -80.5 58.5t-30.5 93.5q0 82 66.5 132t175.5 50t175.5 -50t66.5 -132q0 -52 -30.5 -93.5t-80.5 -58.5q61 -14 98 -63t37 -114q0 -94 -73 -151.5t-193 -57.5zM325 402q69 0 110 31.5t41 86.5q0 54 -40 86 t-111 32t-111 -32t-40 -86q0 -55 41 -86.5t110 -31.5zM325 70q81 0 126.5 36t45.5 99q0 64 -45.5 100t-126.5 36t-126.5 -36t-45.5 -100q0 -63 45.5 -99t126.5 -36z"/>
    <glyph glyph-name="nine.tf" horiz-adv-x="650" d="M335 713q106 0 174 -63.5t68 -162.5q0 -56 -20.5 -109.5t-64.5 -133.5l-135 -244h-107q10 16 33 56.5t52.5 89.5t71.5 115q-36 -21 -101 -21q-101 0 -167 63.5t-66 165.5q0 109 71.5 176.5t190.5 67.5zM326 310q70 0 112 46.5t42 121.5q0 68 -41.5 110t-108.5 42 q-71 0 -115 -44.5t-44 -116.5q0 -69 44 -114t111 -45z"/>
    <glyph glyph-name="zero.dnom" horiz-adv-x="528" d="M264 426q102 0 167.5 -62.5t65.5 -153.5q0 -93 -65.5 -154.5t-167.5 -61.5t-167.5 62.5t-65.5 153.5t65.5 153.5t167.5 62.5zM264 356q-67 0 -110 -42t-43 -104q0 -50 28 -87l210 210q-37 23 -85 23zM264 65q68 0 110.5 41.5t42.5 103.5q0 49 -28 86l-210 -209 q38 -22 85 -22z"/>
    <glyph glyph-name="one.dnom" horiz-adv-x="379" d="M31 0v71h125v242l-113 -100v87l141 120h50v-349h114v-71h-317z"/>
    <glyph glyph-name="two.dnom" horiz-adv-x="377" d="M142 71h204v-71h-315v64l131 104h-3q-54 0 -89 34.5t-35 87.5q0 60 44 98t112 38q64 0 107 -35t43 -96q0 -44 -21 -74.5t-58 -58.5zM110 289q0 -32 22 -52t57 -20q33 0 55 20.5t22 52.5t-22 51.5t-55 19.5q-34 0 -56.5 -20t-22.5 -52z"/>
    <glyph glyph-name="three.dnom" horiz-adv-x="368" d="M179 -6q-64 0 -108 31t-52 85l78 16q3 -30 25 -48t55 -18q34 0 54.5 18.5t20.5 47.5q0 26 -17 42.5t-48 16.5h-49v57h46q29 0 46.5 16t17.5 43t-19 43.5t-51 16.5q-29 0 -50 -16.5t-25 -43.5l-71 20q9 47 51.5 76t101.5 29q62 0 102 -32.5t40 -84.5q0 -34 -17.5 -59 t-47.5 -35q32 -8 51 -34.5t19 -63.5q0 -54 -43.5 -88.5t-109.5 -34.5z"/>
    <glyph glyph-name="four.dnom" horiz-adv-x="419" d="M19 117v63l218 240h82v-236h73v-67h-73v-117h-78v117h-222zM109 184h132v140z"/>
    <glyph glyph-name="five.dnom" horiz-adv-x="382" d="M211 274q59 0 99 -38t40 -98q0 -65 -44.5 -104.5t-113.5 -39.5q-60 0 -103.5 27t-57.5 71l72 23q7 -24 30 -39t54 -15q38 0 61 21.5t23 55.5t-23 54.5t-58 20.5q-31 0 -54.5 -14.5t-31.5 -39.5l-70 9l36 252h258v-71h-195l-16 -103q36 28 94 28z"/>
    <glyph glyph-name="six.dnom" horiz-adv-x="381" d="M206 272q63 0 103.5 -36t40.5 -96q0 -66 -45.5 -106t-117.5 -40q-67 0 -110.5 38t-43.5 99q0 23 9 50t16.5 42t26.5 50l82 147h89q-28 -50 -99 -157q21 9 49 9zM189 63q37 0 59.5 21t22.5 55q0 33 -22.5 54t-57.5 21q-36 0 -57.5 -21.5t-21.5 -56.5q0 -33 21.5 -53 t55.5 -20z"/>
    <glyph glyph-name="seven.dnom" horiz-adv-x="345" d="M23 349v71h299v-62l-178 -358h-90l184 349h-215z"/>
    <glyph glyph-name="eight.dnom" horiz-adv-x="386" d="M193 -6q-73 0 -117 35.5t-44 92.5q0 37 20 65.5t54 38.5q-28 10 -44 34.5t-16 53.5q0 50 40.5 81t106.5 31t106 -31.5t40 -81.5q0 -29 -16 -53t-43 -34q33 -10 53.5 -38t20.5 -66q0 -57 -44 -92.5t-117 -35.5zM193 245q32 0 52 16.5t20 44.5q0 27 -20 43.5t-52 16.5 q-33 0 -52.5 -16.5t-19.5 -43.5q0 -28 20 -44.5t52 -16.5zM193 60q37 0 59 18.5t22 49.5t-21.5 49.5t-59.5 18.5t-59.5 -18.5t-21.5 -49.5t22 -49.5t59 -18.5z"/>
    <glyph glyph-name="nine.dnom" horiz-adv-x="382" d="M195 426q67 0 111 -37.5t44 -97.5q0 -22 -8.5 -48.5t-16.5 -43t-27 -52.5l-78 -147h-88q30 57 93 157q-23 -9 -49 -9q-63 0 -103.5 36t-40.5 96q0 65 45.5 105.5t117.5 40.5zM191 206q36 0 57.5 21.5t21.5 56.5q0 33 -21 53t-56 20q-36 0 -58.5 -21t-22.5 -55 q0 -32 22.5 -53.5t56.5 -21.5z"/>
    <glyph glyph-name="zero.numr" horiz-adv-x="528" d="M264 706q102 0 167.5 -62.5t65.5 -153.5q0 -93 -65.5 -154.5t-167.5 -61.5t-167.5 62.5t-65.5 153.5t65.5 153.5t167.5 62.5zM264 636q-67 0 -110 -42t-43 -104q0 -50 28 -87l210 210q-37 23 -85 23zM264 345q68 0 110.5 41.5t42.5 103.5q0 49 -28 86l-210 -209 q38 -22 85 -22z"/>
    <glyph glyph-name="one.numr" horiz-adv-x="379" d="M31 280v71h125v242l-113 -100v87l141 120h50v-349h114v-71h-317z"/>
    <glyph glyph-name="two.numr" horiz-adv-x="377" d="M142 351h204v-71h-315v64l131 104h-3q-54 0 -89 34.5t-35 87.5q0 60 44 98t112 38q64 0 107 -35t43 -96q0 -44 -21 -74.5t-58 -58.5zM110 569q0 -32 22 -52t57 -20q33 0 55 20.5t22 52.5t-22 51.5t-55 19.5q-34 0 -56.5 -20t-22.5 -52z"/>
    <glyph glyph-name="three.numr" horiz-adv-x="368" d="M179 274q-64 0 -108 31t-52 85l78 16q3 -30 25 -48t55 -18q34 0 54.5 18.5t20.5 47.5q0 26 -17 42.5t-48 16.5h-49v57h46q29 0 46.5 16t17.5 43t-19 43.5t-51 16.5q-29 0 -50 -16.5t-25 -43.5l-71 20q9 47 51.5 76t101.5 29q62 0 102 -32.5t40 -84.5q0 -34 -17.5 -59 t-47.5 -35q32 -8 51 -34.5t19 -63.5q0 -54 -43.5 -88.5t-109.5 -34.5z"/>
    <glyph glyph-name="four.numr" horiz-adv-x="419" d="M19 397v63l218 240h82v-236h73v-67h-73v-117h-78v117h-222zM109 464h132v140z"/>
    <glyph glyph-name="five.numr" horiz-adv-x="382" d="M211 554q59 0 99 -38t40 -98q0 -65 -44.5 -104.5t-113.5 -39.5q-60 0 -103.5 27t-57.5 71l72 23q7 -24 30 -39t54 -15q38 0 61 21.5t23 55.5t-23 54.5t-58 20.5q-31 0 -54.5 -14.5t-31.5 -39.5l-70 9l36 252h258v-71h-195l-16 -103q36 28 94 28z"/>
    <glyph glyph-name="six.numr" horiz-adv-x="381" d="M206 552q63 0 103.5 -36t40.5 -96q0 -66 -45.5 -106t-117.5 -40q-67 0 -110.5 38t-43.5 99q0 23 9 50t16.5 42t26.5 50l82 147h89q-28 -50 -99 -157q21 9 49 9zM189 343q37 0 59.5 21t22.5 55q0 33 -22.5 54t-57.5 21q-36 0 -57.5 -21.5t-21.5 -56.5q0 -33 21.5 -53 t55.5 -20z"/>
    <glyph glyph-name="seven.numr" horiz-adv-x="345" d="M23 629v71h299v-62l-178 -358h-90l184 349h-215z"/>
    <glyph glyph-name="eight.numr" horiz-adv-x="386" d="M193 274q-73 0 -117 35.5t-44 92.5q0 37 20 65.5t54 38.5q-28 10 -44 34.5t-16 53.5q0 50 40.5 81t106.5 31t106 -31.5t40 -81.5q0 -29 -16 -53t-43 -34q33 -10 53.5 -38t20.5 -66q0 -57 -44 -92.5t-117 -35.5zM193 525q32 0 52 16.5t20 44.5q0 27 -20 43.5t-52 16.5 q-33 0 -52.5 -16.5t-19.5 -43.5q0 -28 20 -44.5t52 -16.5zM193 340q37 0 59 18.5t22 49.5t-21.5 49.5t-59.5 18.5t-59.5 -18.5t-21.5 -49.5t22 -49.5t59 -18.5z"/>
    <glyph glyph-name="nine.numr" horiz-adv-x="382" d="M195 706q67 0 111 -37.5t44 -97.5q0 -22 -8.5 -48.5t-16.5 -43t-27 -52.5l-78 -147h-88q30 57 93 157q-23 -9 -49 -9q-63 0 -103.5 36t-40.5 96q0 65 45.5 105.5t117.5 40.5zM191 486q36 0 57.5 21.5t21.5 56.5q0 33 -21 53t-56 20q-36 0 -58.5 -21t-22.5 -55 q0 -32 22.5 -53.5t56.5 -21.5z"/>
    <glyph glyph-name="comma.001" horiz-adv-x="316" d="M241 75q0 -49 -42 -73v-68l-143 -94v81l107 70h-9q-37 0 -61.5 23t-24.5 61q0 37 24.5 60t61.5 23t62 -23t25 -60z"/>
    <glyph glyph-name="numbersign.001" horiz-adv-x="821" d="M767 463h-170l-66 -226h170l-9 -29h-170l-61 -208h-32l61 208h-243l-61 -208h-32l61 208h-170l8 29h171l66 226h-170l8 29h171l61 208h32l-61 -208h243l61 208h32l-61 -208h170zM499 237l66 226h-243l-66 -226h243z"/>
    <glyph glyph-name="colon.case" horiz-adv-x="305" d="M152 444q-37 0 -61.5 23t-24.5 60t24.5 60t61.5 23t62 -23t25 -60t-25 -60t-62 -23zM152 60q-37 0 -61.5 23.5t-24.5 60.5t24.5 60t61.5 23t62 -23t25 -60t-25 -60.5t-62 -23.5z"/>
    <glyph glyph-name="slash.ss02" horiz-adv-x="1494" d="M1404 710v-80l-1314 -640v80z"/>
    <glyph glyph-name="backslash.ss02" horiz-adv-x="1494" d="M90 710l1314 -640v-80l-1314 640v80z"/>
    <glyph glyph-name="parenleft.case" horiz-adv-x="484" d="M448 -123q-173 43 -273 166.5t-100 300.5t100 300.5t273 166.5l21 -73q-148 -41 -229 -143.5t-81 -250.5q0 -147 81 -250.5t229 -143.5z"/>
    <glyph glyph-name="parenright.case" horiz-adv-x="560" d="M117 811q173 -43 273 -166.5t100 -300.5t-100 -300.5t-273 -166.5l-21 73q148 41 229 143.5t81 250.5q0 147 -81 250.5t-229 143.5z"/>
    <glyph glyph-name="braceleft.case" horiz-adv-x="477" d="M172 -100v310q0 99 -120 98v84q60 0 90 22.5t30 75.5v310h278v-70h-193v-250q0 -53 -26 -88t-73 -42q46 -6 72.5 -40.5t26.5 -89.5v-250h193v-70h-278z"/>
    <glyph glyph-name="braceright.case" horiz-adv-x="531" d="M367 800v-310q0 -99 120 -98v-84q-60 0 -90 -22.5t-30 -75.5v-310h-278v70h193v250q0 53 26 88t73 42q-46 6 -72.5 40.5t-26.5 89.5v250h-193v70h278z"/>
    <glyph glyph-name="bracketleft.case" horiz-adv-x="406" d="M90 -100v900h308v-70h-223v-760h223v-70h-308z"/>
    <glyph glyph-name="bracketright.case" horiz-adv-x="499" d="M409 800v-900h-308v70h223v760h-223v70h308z"/>
    <glyph glyph-name="uni3010.case" horiz-adv-x="333" d="M90 -100v900h238q-112 -189 -112 -449q0 -259 112 -451h-238z"/>
    <glyph glyph-name="uni3011.case" horiz-adv-x="426" d="M336 800v-900h-238q112 189 112 449q0 259 -112 451h238z"/>
    <glyph glyph-name="parenleft.ss04" horiz-adv-x="508" d="M141 -72q0 116 93 172q-93 53 -93 166q0 112 93 165q-93 56 -93 171q0 96 62.5 153.5t163.5 54.5v-80q-66 3 -106 -32t-40 -96t40 -96t106 -32v-80q-66 3 -106 -32t-40 -96t40 -96.5t106 -32.5v-80q-66 3 -106 -32.5t-40 -96.5q0 -60 40 -95t106 -32v-80 q-101 -3 -163.5 54.5t-62.5 152.5z"/>
    <glyph glyph-name="parenright.ss04" horiz-adv-x="508" d="M367 603q0 -116 -93 -172q93 -53 93 -166t-93 -165q93 -56 93 -171q0 -96 -62.5 -153.5t-163.5 -54.5v80q66 -3 106 32t40 96t-40 96t-106 32v80q66 -3 106 32t40 96t-40 96.5t-106 32.5v80q66 -3 106 32.5t40 96.5q0 60 -40 95t-106 32v80q101 3 163.5 -54.5 t62.5 -152.5z"/>
    <glyph glyph-name="bracketleft.ss04" horiz-adv-x="613" d="M472 -178v-80h-339l190 258h-192l197 271l-197 271h192l-190 258h339v-80h-180l190 -258h-193l137 -191l-137 -191h193l-190 -258h180z"/>
    <glyph glyph-name="bracketright.ss04" horiz-adv-x="613" d="M141 718v80h339l-190 -258h192l-197 -271l197 -271h-192l190 -258h-339v80h180l-190 258h193l-137 191l137 191h-193l190 258h-180z"/>
    <glyph glyph-name="hyphen.case" horiz-adv-x="520" d="M75 379h370v-78h-370v78z"/>
    <glyph glyph-name="endash.case" horiz-adv-x="720" d="M75 379h570v-78h-570v78z"/>
    <glyph glyph-name="emdash.case" horiz-adv-x="1020" d="M75 379h870v-78h-870v78z"/>
    <glyph glyph-name="quotedblleft.case" horiz-adv-x="513" d="M228 480q0 -37 -24.5 -60t-61.5 -23t-62 23t-25 60q0 27 20 63l85 157h57l-52 -139q28 -7 45.5 -28.5t17.5 -52.5zM468 480q0 -37 -24.5 -60t-61.5 -23t-62 23t-25 60q0 27 20 63l85 157h57l-52 -139q28 -7 45.5 -28.5t17.5 -52.5z"/>
    <glyph glyph-name="quotedblright.case" horiz-adv-x="514" d="M45 627q0 37 24.5 60t61.5 23t62 -23t25 -60q0 -27 -20 -63l-85 -157h-57l52 139q-28 7 -45.5 28.5t-17.5 52.5zM286 627q0 37 24.5 60t61.5 23t62 -23t25 -60q0 -27 -20 -63l-85 -157h-57l52 139q-28 7 -45.5 28.5t-17.5 52.5z"/>
    <glyph glyph-name="quoteleft.case" horiz-adv-x="273" d="M228 480q0 -37 -24.5 -60t-61.5 -23t-62 23t-25 60q0 27 20 63l85 157h57l-52 -139q28 -7 45.5 -28.5t17.5 -52.5z"/>
    <glyph glyph-name="quoteright.case" horiz-adv-x="273" d="M45 627q0 37 24.5 60t61.5 23t62 -23t25 -60q0 -27 -20 -63l-85 -157h-57l52 139q-28 7 -45.5 28.5t-17.5 52.5z"/>
    <glyph glyph-name="guillemotleft.case" horiz-adv-x="761" d="M60 340l170 250h129l-169 -250l169 -250h-129zM358 340l170 250h128l-169 -250l169 -250h-128z"/>
    <glyph glyph-name="guillemotright.case" horiz-adv-x="761" d="M403 340l-170 -250h-128l169 250l-169 250h128zM701 340l-170 -250h-129l169 250l-169 250h129z"/>
    <glyph glyph-name="guilsinglleft.case" horiz-adv-x="419" d="M60 340l170 250h129l-169 -250l169 -250h-129z"/>
    <glyph glyph-name="guilsinglright.case" horiz-adv-x="419" d="M359 340l-170 -250h-129l169 250l-169 250h129z"/>
    <glyph glyph-name="quotedbl.case" horiz-adv-x="551" d="M186 438h-81v262h81v-262zM446 438h-81v262h81v-262z"/>
    <glyph glyph-name="quotesingle.case" horiz-adv-x="291" d="M186 438h-81v262h81v-262z"/>
    <glyph glyph-name="ampersand.003" horiz-adv-x="768" d="M63 190q0 66 37.5 113t100.5 62q-46 20 -70 59.5t-24 89.5q0 88 64 142t163 54q101 0 166 -51t70 -134l-85 -15q-4 56 -45 90.5t-105 34.5q-63 0 -101.5 -34t-38.5 -90q0 -89 104 -111h444v-80h-155v-239h155v-81h-465q-102 0 -158.5 51.5t-56.5 138.5zM156 205 q0 -58 36.5 -91t99.5 -33h205v244h-222q-56 -6 -87.5 -39t-31.5 -81z"/>
    <glyph glyph-name="ampersand.ss01" horiz-adv-x="772" d="M749 413v-75h-120q8 -34 8 -70q0 -126 -80.5 -202t-215.5 -76q-126 0 -202 66t-76 168q0 71 35.5 125.5t94.5 80.5l-75 270h437v-79h-323l60 -225q-59 -9 -97.5 -51t-38.5 -108q0 -74 49.5 -118.5t135.5 -44.5q93 0 149 53t56 142q0 35 -8 69h-124v75h335z"/>
    <glyph glyph-name="ampersand.ss03" horiz-adv-x="786" d="M63 192q0 76 46 126.5t121 58.5q-52 14 -83 55.5t-31 97.5q0 81 62 130.5t162 49.5q99 0 160 -49t61 -128q0 -49 -26.5 -87.5t-72.5 -54.5h299v-75h-173v-235h173v-81h-477q-102 0 -161.5 52.5t-59.5 139.5zM208 516q0 -51 35 -83t94 -32q60 0 97.5 32.5t37.5 84.5 t-36.5 83.5t-95.5 31.5t-95.5 -32t-36.5 -85zM155 203q0 -56 38 -89t104 -33h200v244h-186q-79 0 -117.5 -33.5t-38.5 -88.5z"/>
    <glyph glyph-name="copyright.ss03" horiz-adv-x="884" d="M442 -10q-168 0 -275 104t-107 256t107 256t275 104t275 -104t107 -256t-107 -256t-275 -104zM448 160q70 0 122 35t72 92l-63 20q-13 -39 -48 -63t-83 -24q-61 0 -99.5 37.5t-38.5 92.5t38.5 92.5t99.5 37.5q48 0 83 -24t48 -63l63 21q-20 57 -72 91.5t-122 34.5 q-89 0 -147 -54.5t-58 -135.5t58 -135.5t147 -54.5z"/>
    <glyph glyph-name="registered.ss03" horiz-adv-x="594" d="M297 279q-101 0 -169.5 64t-68.5 163q0 100 68.5 163.5t169.5 63.5q102 0 170 -64t68 -163t-68 -163t-170 -64zM217 409h39v88l85 -88h53l-72 75q29 1 46.5 18t17.5 43q0 29 -18 46t-51 17h-100v-199zM256 508v65h53q36 0 36 -33q0 -32 -36 -32h-53z"/>
    <glyph glyph-name="BlacksignOfTheHorns" horiz-adv-x="786" d="M149 -30v106h64l8 20q-61 97 -61 199q0 50 8 92l-76 205q-8 22 -8 45q0 39 28.5 65t70.5 26q68 0 92 -65l13 -35q17 5 31 5q11 0 21 -3q27 37 75 37q11 0 22 -3l1 74q0 49 29.5 80t75.5 31t74.5 -30.5t29.5 -80.5l3 -231q52 -46 52 -136q0 -131 -105 -258l12 -37h69v-106 h-529zM182 0h463v46h-61l-23 74q107 123 107 251q0 44 -11 71.5t-40 49.5l-3 246q-1 37 -20.5 59t-52.5 22t-53.5 -22t-20.5 -59l-1 -126q-17 25 -51 25q-22 0 -38.5 -13t-21.5 -34q-15 13 -35 13q-29 0 -45 -21l-26 71q-16 45 -63 45q-29 0 -48.5 -17t-19.5 -44 q0 -19 6 -34l78 -214q-9 -41 -9 -94q0 -48 17.5 -102t46.5 -94l-22 -53h-53v-46zM572 512l-60 26l-2 197q0 36 31 36q30 0 30 -36zM283 135q-48 66 -48 176q0 38 7 80l-82 221q-3 8 -3 17q0 12 8 20t22 8q19 0 29 -24l78 -207q14 -38 61 -38q20 0 37 11.5t25 29.5 q7 -13 24 -29q-28 -24 -46 -68t-18 -95q0 -18 1 -27h31q0 55 20 101.5t52 65.5q30 -9 45 -10l21 27q-42 4 -70 23t-28 40q0 39 35 49l75 -32q37 -16 50.5 -41t13.5 -65q0 -55 -30 -119t-79 -114h-231zM414 484l-24 64q-3 9 -3 16q0 13 8.5 21t22.5 8q19 0 28 -23l13 -34 q-35 -21 -45 -52zM354 423q-21 0 -30 25l-24 68q-4 10 -4 17q0 28 31 28q19 0 27 -20l27 -73q3 -9 3 -16q0 -12 -9 -20.5t-21 -8.5zM283 46l18 44h216l12 -44h-246z"/>
    <glyph glyph-name="upBlackIndex" horiz-adv-x="826" d="M691 -75v107h-69l-8 19q58 101 58 226q0 45 -9 80l20 53q16 42 -1 81.5t-56 52.5q-19 7 -37 4q-16 30 -45 40q-27 10 -54 2q-16 22 -41 31q-25 10 -52 4l-1 105q0 49 -29 80.5t-75 31.5t-74.5 -31t-28.5 -81l-3 -265q-51 -45 -51 -135q0 -134 104 -260l-12 -38h-59v-107 h523zM661 -41h-463v46h51l23 74q-107 123 -107 251q0 44 11 71.5t40 49.5l3 276q0 37 20 59t53 22t53.5 -22t20.5 -59l1 -156q28 37 71 20q29 -11 40 -42q23 21 56 9q30 -10 35 -48q21 14 47 5q27 -9 38.5 -36.5t0.5 -58.5l-24 -62q11 -33 11 -80q0 -126 -61 -221l20 -52h60 v-46zM261 471l60 26l2 227q0 36 -31 36q-30 0 -30 -36zM419 443l24 64q6 15 1 27t-18 16q-13 5 -23.5 -1t-15.5 -20l-13 -34q35 -21 45 -52zM468 384q29 -10 41 23l24 68q11 30 -16 43q-26 11 -40 -23l-25 -68q-13 -33 16 -43zM558 351q29 -10 40 22l22 59q5 14 0.5 26.5 t-17.5 16.5q-27 10 -39 -22l-22 -59q-13 -31 16 -43zM550 94q46 84 46 176q0 26 -4 47q-22 -7 -47 0q-29 13 -37 36q-22 -14 -52 -2q-28 8 -40 37q-7 -13 -24 -29q33 -27 51 -79t12 -111h-31q0 55 -20 101.5t-52 65.5q-30 -9 -45 -10l-21 27q42 4 70 23t28 40q0 39 -35 49 l-75 -32q-37 -16 -50.5 -41t-13.5 -65q0 -55 30 -119t79 -114h231zM550 5l-13 44h-221l-12 -44h246z"/>
    <glyph glyph-name="raisedFistBlack" horiz-adv-x="836" d="M189 -30v106h40l11 37q-48 60 -76.5 130.5t-28.5 127.5q0 80 48 122l45 118q26 70 96 70q40 0 64 -24q17 7 37 7q47 0 72 -35q11 3 22 3q53 0 76 -45q4 1 11 1q52 0 79 -41t8 -90l-23 -59q9 -34 9 -79q0 -119 -59 -215l10 -28h48v-106h-489zM222 0h423v46h-40l-20 62 q61 91 61 211q0 47 -11 80l26 69q12 33 -4.5 61.5t-53.5 28.5q-19 0 -30 -7q-2 23 -17.5 37t-38.5 14q-21 0 -35 -12q-4 20 -20 32t-37 12q-26 0 -44 -16q-16 33 -56 33q-48 0 -67 -51l-47 -125q-42 -34 -42 -104q0 -56 29.5 -125t77.5 -126l-23 -74h-31v-46zM263 510l27 69 q6 16 13 23t21 7q16 0 24.5 -12t1.5 -29l-10 -23zM435 517q-17 26 -50 36l6 17q8 23 31 23q15 0 23.5 -13t1.5 -32zM483 423q-18 0 -26 13.5t-1 31.5l25 68q9 25 31 25q17 0 24.5 -13t0.5 -32l-24 -68q-9 -25 -30 -25zM316 135q-45 55 -73.5 119t-28.5 114q0 40 13.5 65 t50.5 41l91 40v-2l1 2l8 4q33 -19 33 -44t-35 -41.5t-111 -29.5l3 -22q36 -3 84 6q34 -22 55 -72t21 -105h31q1 9 1 27q0 51 -18.5 96t-47.5 70q16 5 30 17q18 -33 57 -33q21 0 31 7q5 -17 21.5 -28.5t39.5 -11.5q9 0 23 4q4 -21 4 -47q0 -92 -46 -176h-238zM573 390 q-13 0 -21.5 8.5t-8.5 21.5q0 8 3 15l22 59q10 24 32 24q16 0 23.5 -13t-0.5 -36l-21 -55q-9 -24 -29 -24zM308 46l12 44h221l13 -44h-246z"/>
    </font>
</defs>
</svg>
